<svg xmlns="http://www.w3.org/2000/svg" xmlns:svg="http://www.w3.org/2000/svg" width="400" height="400" version="1.1"><g transform="translate(0,-652.36218)"><g transform="matrix(3.4391588,0,0,3.4391588,5.1588215,646.88496)"><rect style="fill:#000;opacity:.98999999;stroke-linecap:round;stroke-linejoin:round;stroke-width:.47499257;stroke:#000" width="18.24" height="26.893" x="6.525" y="2.735" ry="1.02" transform="matrix(0.99999848,-0.00174534,0.00174534,0.99999848,0,0)"/><rect style="fill:#fff;opacity:.98999999;stroke-linecap:round;stroke-linejoin:round;stroke-width:.51979363;stroke:#000" width="13.746" height="19.574" x="8.831" y="4.485" ry="1.038" transform="matrix(0.99999848,-0.00174534,0.00174534,0.99999848,0,0)"/><path style="fill:#fff;opacity:.98999999;stroke-linecap:round;stroke-linejoin:round;stroke-width:.5;stroke:#000" d="m18.497743 25.92738c0 1.288953-1.044903 2.333856-2.333856 2.333856-1.288953 0-2.333856-1.044903-2.333856-2.333856 0-1.288954 1.044903-2.333856 2.333856-2.333856 1.288953 0 2.333856 1.044902 2.333856 2.333856z" transform="matrix(0.74683203,-0.00130346,0.00130346,0.74683203,3.845319,7.8606135)"/></g><g transform="matrix(3.6286429,0,0,3.6286429,294.87281,665.54813)"><rect style="fill:#000;opacity:.98999999;stroke-linecap:round;stroke-linejoin:round;stroke-width:.47499257;stroke:#000" width="25.652" height="32.157" x="2.192" y="-2.528" ry="1.02" transform="matrix(0.99999848,-0.00174534,0.00174534,0.99999848,0,0)"/><rect style="fill:#fff;opacity:.98999999;stroke-linecap:round;stroke-linejoin:round;stroke-width:.51979363;stroke:#000" width="21.162" height="24.38" x="4.726" y="-.321" ry="1.038" transform="matrix(0.99999848,-0.00174534,0.00174534,0.99999848,0,0)"/><path style="fill:#fff;opacity:.98999999;stroke-linecap:round;stroke-linejoin:round;stroke-width:.5;stroke:#000" d="m18.497743 25.92738c0 1.288953-1.044903 2.333856-2.333856 2.333856-1.288953 0-2.333856-1.044903-2.333856-2.333856 0-1.288954 1.044903-2.333856 2.333856-2.333856 1.288953 0 2.333856 1.044902 2.333856 2.333856z" transform="matrix(0.74683203,-0.00130346,0.00130346,0.74683203,3.4959626,7.8606135)"/></g><path style="fill:none;stroke-dasharray:15.96840858000000019,3.99210215000000002;stroke-width:3.99210215000000002;stroke:#8c8c8c" d="M60.08269 854.94188 60.01522 755.29411"/><path style="fill:none;stroke-dasharray:15.96840858000000019,3.99210215000000002;stroke-width:3.99210215000000002;stroke:#8c8c8c" d="M352.1586 856.78616 351.346 781.63957"/><g style="fill:#000;stroke-linejoin:round;stroke-width:4.7058115;stroke:#000"><g style="fill:#000;stroke-linejoin:round;stroke-width:6.68257952;stroke:#000"><path style="fill:#000;stroke-linejoin:round;stroke-width:6.68257952;stroke:#000" d="m176.56004 974.87746-32.11941-0.39098 0.73429-87.80455-40.3319-0.15749-40.331899 0.15534 0.734284 87.80451-35.509799 0.39105 75.107414 59.64966z" transform="matrix(0.73919824,0,0,0.35175611,132.81999,352.87274) matrix(0,-0.70419088,0.70419088,0,-582.65247,1027.4675)"/></g></g><g style="fill:#000;font-family:Sans;font-size:44.01089096px;letter-spacing:0;line-height:125%;word-spacing:0"><path d="m44.777376 670.7121 11.582944 0 0 3.52431-11.582944 0 0-3.52431"/><path d="m60.679748 670.7121 11.582945 0 0 3.52431-11.582945 0 0-3.52431"/></g><g><path style="fill:#000;stroke-linecap:round;stroke-linejoin:round;stroke-width:.92000002;stroke:#000" d="M7.1496859 14.810813 2.549702 18.425087 11.585384 28.200053 28.885038 8.0755336 24.942194 5.6112566 11.913955 20.889364z" transform="matrix(1.1002723,0,0,1.1002723,42.427543,690.65345)"/></g><g style="fill:#000;font-family:Sans;font-size:44.01089096px;letter-spacing:0;line-height:125%;word-spacing:0"><path d="m44.836557 681.21173 11.582944 0 0 3.52431-11.582944 0 0-3.52431"/><path d="m60.738929 681.21173 11.582945 0 0 3.52431-11.582945 0 0-3.52431"/></g><g><path style="fill:#000;stroke-linecap:round;stroke-linejoin:round;stroke-width:.92000002;stroke:#000" d="M7.1496859 14.810813 2.549702 18.425087 11.585384 28.200053 28.885038 8.0755336 24.942194 5.6112566 11.913955 20.889364z" transform="matrix(1.160893,0,0,1.160893,333.16564,712.17927)"/></g><rect width="13.02" height="12.824" x="329.118" y="671.396" fill="#000" ry="0"/><rect width="9.361" height="9.22" x="330.921" y="673" fill="#fff" ry="0"/><rect width="5.758" height="5.672" x="332.752" y="674.778" fill="#000" ry="0"/><rect width="13.02" height="12.824" x="329.118" y="699.556" fill="#000" ry="0"/><rect width="9.361" height="9.22" x="330.921" y="701.16" fill="#fff" ry="0"/><rect width="5.758" height="5.672" x="332.752" y="702.938" fill="#000" ry="0"/><rect width="13.02" height="12.824" x="358.101" y="671.453" fill="#000" ry="0"/><rect width="9.361" height="9.22" x="359.904" y="673.057" fill="#fff" ry="0"/><rect width="5.758" height="5.672" x="361.735" y="674.835" fill="#000" ry="0"/><rect width="5.758" height="5.672" x="343.637" y="671.474" fill="#000" ry="0"/><rect width="5.758" height="7.382" x="350.806" y="671.474" fill="#000" ry="0"/><rect width="5.758" height="9.753" x="343.657" y="680.29" fill="#000" ry="0"/><rect width="5.758" height="5.672" x="350.859" y="684.363" fill="#000" ry="0"/><rect width="5.758" height="5.672" x="343.694" y="699.664" fill="#000" ry="0"/><rect width="12.917" height="5.672" x="343.601" y="706.754" fill="#000" ry="0"/><rect width="5.758" height="9.541" x="350.878" y="695.612" fill="#000" ry="0"/><rect width="12.522" height="5.672" x="358.073" y="706.754" fill="#000" ry="0"/><rect width="5.758" height="5.672" x="358.131" y="692.574" fill="#000" ry="0"/><rect width="5.758" height="8.419" x="365.426" y="704.001" fill="#000" ry="0"/><rect width="13.076" height="5.672" x="358.082" y="685.613" fill="#000" ry="0"/><rect width="5.758" height="6.554" x="329.11" y="685.49" fill="#000" ry="0"/><rect width="5.758" height="5.672" x="336.387" y="687.779" fill="#000" ry="0"/><rect width="5.758" height="6.885" x="336.387" y="691.311" fill="#000" ry="0"/><g style="-inkscape-font-specification:Ubuntu Medium;fill:#000;font-family:Ubuntu;font-size:30.35477448px;font-weight:500;letter-spacing:0;line-height:125%;word-spacing:0"><path d="m161.5713 706.30117c1.17371-0.46542 2.34743-1.0624 3.52115-1.79093 1.19395-0.7285 2.24625-1.58855 3.1569-2.58016l2.58016 0 0 21.03586-3.67293 0 0-16.11838c-0.54639 0.42498-1.23444 0.83983-2.06413 1.24454-0.8297 0.40475-1.62904 0.73865-2.39802 1.00171l-1.12313-2.79264" transform="translate(0,13.470813)"/><path d="m182.55736 720.96253c-0.00001 0.70828-0.24285 1.28502-0.72852 1.73022-0.46544 0.4452-1.03206 0.6678-1.69986 0.6678-0.68805 0-1.26479-0.2226-1.73023-0.6678-0.46544-0.4452-0.69816-1.02194-0.69816-1.73022 0-0.70828 0.23272-1.28502 0.69816-1.73022 0.46544-0.46544 1.04218-0.69816 1.73023-0.69816 0.6678 0 1.23442 0.23272 1.69986 0.69816 0.48567 0.4452 0.72851 1.02194 0.72852 1.73022" transform="translate(0,13.470813)"/><path d="m198.75542 707.39394c-0.00001 0.72853-0.15178 1.44693-0.45532 2.15519-0.30356 0.68806-0.69817 1.36598-1.18383 2.03377-0.46546 0.64758-1.00172 1.28503-1.60881 1.91235-0.6071 0.60711-1.2142 1.20408-1.82128 1.79093-0.3238 0.30356-0.68805 0.66782-1.09278 1.09278-0.40473 0.42497-0.78923 0.84994-1.15348 1.2749-0.36426 0.42497-0.67793 0.83982-0.94099 1.24454-0.26309 0.3845-0.40474 0.70828-0.42497 0.97136l9.34927 0 0 3.09618-13.38646 0c-0.0202-0.16189-0.0303-0.35414-0.0303-0.57674 0-0.24284 0-0.42496 0-0.54638 0-0.97135 0.15177-1.86176 0.45532-2.67122 0.32378-0.8297 0.73863-1.59868 1.24455-2.30697 0.5059-0.70827 1.07253-1.37607 1.69986-2.00341 0.62733-0.62733 1.25466-1.24454 1.882-1.85164 0.48567-0.46543 0.95111-0.92075 1.39632-1.36597 0.44519-0.44519 0.82969-0.88027 1.15348-1.30525 0.34401-0.44519 0.6172-0.8904 0.81958-1.33561 0.20235-0.46543 0.30354-0.94099 0.30355-1.42668-0.00001-1.05228-0.30356-1.80103-0.91065-2.24625-0.6071-0.44519-1.34573-0.66779-2.21589-0.66781-0.56663 0.00002-1.09278 0.081-1.57845 0.24284-0.48568 0.16191-0.92077 0.35416-1.30526 0.57674-0.36426 0.22262-0.68804 0.45534-0.97135 0.69816-0.28332 0.22262-0.4958 0.40475-0.63745 0.54639l-1.82129-2.58016c0.84993-0.80944 1.84152-1.45701 2.97477-1.9427 1.15348-0.50589 2.3879-0.75885 3.70328-0.75887 2.24625 0.00002 3.89552 0.53629 4.94783 1.6088 1.07252 1.05232 1.60879 2.49923 1.6088 4.34073" transform="translate(0,13.470813)"/><path d="m217.34346 712.43284c-0.00002 3.54139-0.64759 6.2632-1.94271 8.16543-1.29515 1.882-3.08608 2.82299-5.37279 2.82299-2.28674 0-4.07767-0.94099-5.3728-2.82299-1.29514-1.90223-1.94271-4.62404-1.9427-8.16543-0.00001-1.76057 0.16189-3.31878 0.48567-4.67464 0.34402-1.37607 0.8297-2.52955 1.45703-3.46044 0.64757-0.93086 1.41655-1.63914 2.30696-2.12484 0.91064-0.48565 1.93258-0.72849 3.06584-0.72851 2.28671 0.00002 4.07764 0.95113 5.37279 2.85335 1.29512 1.88201 1.94269 4.5937 1.94271 8.13508m-3.79435 0c-0.00001-1.09276-0.0607-2.11471-0.18213-3.06584-0.12143-0.9511-0.32379-1.77068-0.60709-2.45873-0.26309-0.70826-0.61723-1.26477-1.06242-1.66952-0.44521-0.40471-1.00172-0.60707-1.66951-0.60709-0.66782 0.00002-1.23444 0.20238-1.69987 0.60709-0.44521 0.40475-0.80947 0.96126-1.09277 1.66952-0.26308 0.68805-0.45533 1.50763-0.57674 2.45873-0.10119 0.95113-0.15178 1.97308-0.15178 3.06584 0 1.09278 0.0506 2.11472 0.15178 3.06583 0.12141 0.95112 0.31366 1.78082 0.57674 2.48909 0.2833 0.68805 0.64756 1.23443 1.09277 1.63916 0.46543 0.40473 1.03205 0.6071 1.69987 0.60709 0.66779 0.00001 1.2243-0.20236 1.66951-0.60709 0.44519-0.40473 0.79933-0.95111 1.06242-1.63916 0.2833-0.70827 0.48566-1.53797 0.60709-2.48909 0.12141-0.95111 0.18212-1.97305 0.18213-3.06583" transform="translate(0,13.470813)"/></g><path fill="#000" d="m244.27946 721.50949c-0.22117-2.63825-2.48512-3.54945-5.35396-3.83614l0.0446-3.65516-2.2249-0.0269-0.0434 3.55884c-0.58488-0.007-1.18291-0.002-1.777 0.002l0.044-3.58239-2.22366-0.0273-0.0455 3.65409c-0.48181 0.004-0.95499 0.006-1.41625 0.002l-0.002-0.0112-3.06862-0.0386-0.0286 2.37627c0 0 1.64342-0.0112 1.6157 0.0186 0.90122 0.0111 1.18812 0.53803 1.26791 0.99056l-0.0507 4.164c0.062 0.002 0.14329 0.006 0.235 0.0186-0.074-0.00047-0.15337-0.002-0.23496-0.002l-0.0719 5.83339c-0.043 0.28308-0.21531 0.73331-0.84492 0.72667 0.028 0.0255-1.61729-0.0203-1.61729-0.0203l-0.47457 2.65165 2.89537 0.0352c0.53882 0.007 1.06882 0.0229 1.58927 0.0325l-0.0443 3.69683 2.22248 0.0275 0.0446-3.65772c0.61006 0.02 1.20056 0.0321 1.77709 0.0386l-0.0455 3.64082 2.22492 0.0269 0.0457-3.69024c3.74309-0.1689 6.37261-1.07925 6.74057-4.58787 0.29708-2.82515-1.01778-4.10352-3.13508-4.63925 1.29798-0.64108 2.11857-1.78858 1.95352-3.7191zm-3.20932 7.86659c-0.0325 2.76263-4.75906 2.39061-6.26692 2.37359l0.0604-4.898c1.50829 0.0186 6.24188-0.35707 6.20649 2.52441zm-0.95034-6.92313c-0.0314 2.51345-3.97289 2.17197-5.22883 2.15669l0.0543-4.4423c1.25599 0.0152 5.2062-0.33596 5.17446 2.28561z"/><rect width="5.758" height="5.672" x="365.41" y="692.58" fill="#000" ry="0"/><path style="fill:none;stroke-dasharray:15.96840858000000019,3.99210215000000002;stroke-width:3.99210215000000002;stroke:#8c8c8c" d="m59.30303 926.31008c77.35411 24.73188 120.47767 40.01057 227.27144 53.70258"/><path style="fill:none;stroke-dasharray:15.96840858000000019,3.99210215000000002;stroke-width:3.99210215000000002;stroke:#8c8c8c" d="m303.3465 980.91425c9.02455-53.49147-49.71497-67.54007-63.18302-131.28663"/><path style="fill:none;stroke-dasharray:15.96799999999999997,3.99199999999999999;stroke-width:3.99199999999999999;stroke:#8c8c8c" d="m69.47971 980.34374c-11.87189-47.21653 129.6255-29.04781 35.81641-99.05261"/><path style="fill:none;stroke-dasharray:15.96840858000000019,3.99210215000000002;stroke-width:3.99210215000000002;stroke:#8c8c8c" d="M31.329849 854.75317C71.39487 813.38579 110.98534 879.96628 156.83425 838.13794"/><path style="fill:none;stroke-dasharray:15.96840858000000019,3.99210215000000002;stroke-width:3.99210215000000002;stroke:#8c8c8c" d="m313.57247 857.84197c-4.40805-18.15142-18.6118-31.53813-53.9734-47.41421"/><g style="fill:#8c8c8c;stroke:#8c8c8c"><path style="fill:#8c8c8c;stroke-linejoin:round;stroke-width:2;stroke:#8c8c8c" d="m101.24494 1000.5953 6.74488 38.0861c0 0 67.62683-3.9104 78.67486-77.28743 3.2079-34.09851-13.7097-55.12972-13.7097-55.12972l-28.2087 33.29393c0 0 4.43771 9.7612 1.1205 25.87342-9.91244 35.1665-44.62184 35.1637-44.62184 35.1637z" transform="matrix(0.43063754,0,0,0.43063754,156.79514,498.12702)"/><path style="fill:#8c8c8c;stroke-linejoin:round;stroke-width:2;stroke:#8c8c8c" d="m117.92819 892.38964 15.97476 64.17673 50.00366-58.26522z" transform="matrix(0.43063754,0,0,0.43063754,156.79514,498.12702)"/><path style="fill:#8c8c8c;stroke-linejoin:round;stroke-width:2;stroke:#8c8c8c" d="m100.33442 907.67273-6.744876-38.08608c0 0-67.626825 3.91024-78.674861 77.28741-3.207897 34.09851 13.709703 55.12974 13.709703 55.12974l28.208698-33.29395c0 0-4.437705-9.76121-1.120501-25.87342 9.912438-35.16645 44.621837-35.1637 44.621837-35.1637z" transform="matrix(0.43063754,0,0,0.43063754,156.79514,498.12702)"/><path style="fill:#8c8c8c;stroke-linejoin:round;stroke-width:2;stroke:#8c8c8c" d="m83.651171 1015.8784-15.974756-64.17674-48.8546 62.86144z" transform="matrix(0.43063754,0,0,0.43063754,156.79514,498.12702)"/></g><g transform="translate(12.823604,-53.90625)"><rect style="fill:none;stroke-linejoin:round;stroke-width:5.99373388;stroke:#000" width="58.432" height="39.704" x="294.888" y="922.902"/><path style="fill:#000;stroke-linecap:round;stroke-linejoin:round;stroke-width:1.74795401;stroke:#000" d="m317.96054 965.56562 12.98153 0.0621-0.40577 8.88897-12.01393 0.0942c0 0-0.55842-9.0457-0.56183-9.0451z"/><path style="fill:#000;stroke-linecap:round;stroke-linejoin:round;stroke-width:1.52036619;stroke:#000" d="m314.46866 975.9733c-0.93756 0.98081-0.24356 0.99143-0.24356 0.99143l20.79786-0.02c0 0 0.83014 0-0.18919-1.03652-4.75871-4.24668-15.96721-4.20881-20.36505 0.0541z"/><rect style="fill:#000;stroke-linecap:round;stroke-linejoin:round;stroke-width:4.3072319;stroke:#000" width="18.901" height="51.753" x="362.836" y="922.605"/><path fill="#fff" d="m62.023365 23.150248c0 1.33894-0.994974 2.424366-2.222336 2.424366-1.227362 0-2.222335-1.085426-2.222335-2.424366 0-1.338941 0.994973-2.424366 2.222335-2.424366 1.227362 0 2.222336 1.085425 2.222336 2.424366z" transform="matrix(1.1484934,0,0,1.0369021,303.50648,923.76754)"/><rect width="55.903" height="4.3" x="296.365" y="956.654" fill="#000"/><rect width="16.341" height="4.266" x="364.239" y="924.151" fill="#fff" ry=".709"/><rect width="16.341" height="4.266" x="364.287" y="931.371" fill="#fff" ry=".709"/></g><g transform="translate(-33.203129,68.390674)"><rect style="fill:none;stroke-linejoin:round;stroke-width:5.99373388;stroke:#000" width="58.432" height="39.704" x="294.888" y="922.902"/><path style="fill:#000;stroke-linecap:round;stroke-linejoin:round;stroke-width:1.74795401;stroke:#000" d="m317.96054 965.56562 12.98153 0.0621-0.40577 8.88897-12.01393 0.0942c0 0-0.55842-9.0457-0.56183-9.0451z"/><path style="fill:#000;stroke-linecap:round;stroke-linejoin:round;stroke-width:1.52036619;stroke:#000" d="m314.46866 975.9733c-0.93756 0.98081-0.24356 0.99143-0.24356 0.99143l20.79786-0.02c0 0 0.83014 0-0.18919-1.03652-4.75871-4.24668-15.96721-4.20881-20.36505 0.0541z"/><rect style="fill:#000;stroke-linecap:round;stroke-linejoin:round;stroke-width:4.3072319;stroke:#000" width="18.901" height="51.753" x="362.836" y="922.605"/><path fill="#fff" d="m62.023365 23.150248c0 1.33894-0.994974 2.424366-2.222336 2.424366-1.227362 0-2.222335-1.085426-2.222335-2.424366 0-1.338941 0.994973-2.424366 2.222335-2.424366 1.227362 0 2.222336 1.085425 2.222336 2.424366z" transform="matrix(1.1484934,0,0,1.0369021,303.50648,923.76754)"/><rect width="55.903" height="4.3" x="296.365" y="956.654" fill="#000"/><rect width="16.341" height="4.266" x="364.239" y="924.151" fill="#fff" ry=".709"/><rect width="16.341" height="4.266" x="364.287" y="931.371" fill="#fff" ry=".709"/></g><g transform="translate(-135.54688,-137.07808)"><rect style="fill:none;stroke-linejoin:round;stroke-width:5.99373388;stroke:#000" width="58.432" height="39.704" x="294.888" y="922.902"/><path style="fill:#000;stroke-linecap:round;stroke-linejoin:round;stroke-width:1.74795401;stroke:#000" d="m317.96054 965.56562 12.98153 0.0621-0.40577 8.88897-12.01393 0.0942c0 0-0.55842-9.0457-0.56183-9.0451z"/><path style="fill:#000;stroke-linecap:round;stroke-linejoin:round;stroke-width:1.52036619;stroke:#000" d="m314.46866 975.9733c-0.93756 0.98081-0.24356 0.99143-0.24356 0.99143l20.79786-0.02c0 0 0.83014 0-0.18919-1.03652-4.75871-4.24668-15.96721-4.20881-20.36505 0.0541z"/><rect style="fill:#000;stroke-linecap:round;stroke-linejoin:round;stroke-width:4.3072319;stroke:#000" width="18.901" height="51.753" x="362.836" y="922.605"/><path fill="#fff" d="m62.023365 23.150248c0 1.33894-0.994974 2.424366-2.222336 2.424366-1.227362 0-2.222335-1.085426-2.222335-2.424366 0-1.338941 0.994973-2.424366 2.222335-2.424366 1.227362 0 2.222336 1.085425 2.222336 2.424366z" transform="matrix(1.1484934,0,0,1.0369021,303.50648,923.76754)"/><rect width="55.903" height="4.3" x="296.365" y="956.654" fill="#000"/><rect width="16.341" height="4.266" x="364.239" y="924.151" fill="#fff" ry=".709"/><rect width="16.341" height="4.266" x="364.287" y="931.371" fill="#fff" ry=".709"/></g><g transform="translate(-287.89063,-55.82808)"><rect style="fill:none;stroke-linejoin:round;stroke-width:5.99373388;stroke:#000" width="58.432" height="39.704" x="294.888" y="922.902"/><path style="fill:#000;stroke-linecap:round;stroke-linejoin:round;stroke-width:1.74795401;stroke:#000" d="m317.96054 965.56562 12.98153 0.0621-0.40577 8.88897-12.01393 0.0942c0 0-0.55842-9.0457-0.56183-9.0451z"/><path style="fill:#000;stroke-linecap:round;stroke-linejoin:round;stroke-width:1.52036619;stroke:#000" d="m314.46866 975.9733c-0.93756 0.98081-0.24356 0.99143-0.24356 0.99143l20.79786-0.02c0 0 0.83014 0-0.18919-1.03652-4.75871-4.24668-15.96721-4.20881-20.36505 0.0541z"/><rect style="fill:#000;stroke-linecap:round;stroke-linejoin:round;stroke-width:4.3072319;stroke:#000" width="18.901" height="51.753" x="362.836" y="922.605"/><path fill="#fff" d="m62.023365 23.150248c0 1.33894-0.994974 2.424366-2.222336 2.424366-1.227362 0-2.222335-1.085426-2.222335-2.424366 0-1.338941 0.994973-2.424366 2.222335-2.424366 1.227362 0 2.222336 1.085425 2.222336 2.424366z" transform="matrix(1.1484934,0,0,1.0369021,303.50648,923.76754)"/><rect width="55.903" height="4.3" x="296.365" y="956.654" fill="#000"/><rect width="16.341" height="4.266" x="364.239" y="924.151" fill="#fff" ry=".709"/><rect width="16.341" height="4.266" x="364.287" y="931.371" fill="#fff" ry=".709"/></g><g transform="translate(-241.01563,68.390674)"><rect style="fill:none;stroke-linejoin:round;stroke-width:5.99373388;stroke:#000" width="58.432" height="39.704" x="294.888" y="922.902"/><path style="fill:#000;stroke-linecap:round;stroke-linejoin:round;stroke-width:1.74795401;stroke:#000" d="m317.96054 965.56562 12.98153 0.0621-0.40577 8.88897-12.01393 0.0942c0 0-0.55842-9.0457-0.56183-9.0451z"/><path style="fill:#000;stroke-linecap:round;stroke-linejoin:round;stroke-width:1.52036619;stroke:#000" d="m314.46866 975.9733c-0.93756 0.98081-0.24356 0.99143-0.24356 0.99143l20.79786-0.02c0 0 0.83014 0-0.18919-1.03652-4.75871-4.24668-15.96721-4.20881-20.36505 0.0541z"/><rect style="fill:#000;stroke-linecap:round;stroke-linejoin:round;stroke-width:4.3072319;stroke:#000" width="18.901" height="51.753" x="362.836" y="922.605"/><path fill="#fff" d="m62.023365 23.150248c0 1.33894-0.994974 2.424366-2.222336 2.424366-1.227362 0-2.222335-1.085426-2.222335-2.424366 0-1.338941 0.994973-2.424366 2.222335-2.424366 1.227362 0 2.222336 1.085425 2.222336 2.424366z" transform="matrix(1.1484934,0,0,1.0369021,303.50648,923.76754)"/><rect width="55.903" height="4.3" x="296.365" y="956.654" fill="#000"/><rect width="16.341" height="4.266" x="364.239" y="924.151" fill="#fff" ry=".709"/><rect width="16.341" height="4.266" x="364.287" y="931.371" fill="#fff" ry=".709"/></g><path style="fill:none;stroke-dasharray:15.96840858000000019,3.99210215000000002;stroke-width:3.99210215000000002;stroke:#8c8c8c" d="M153.01023 1017.0457C224.97868 951.44473 257.5152 972.93374 306.12376 926.50394"/><rect width="12.936" height="5.672" x="343.703" y="692.544" fill="#000" ry="0"/></g></svg>