<svg xmlns="http://www.w3.org/2000/svg" xmlns:xlink="http://www.w3.org/1999/xlink" width="405" height="262" version="1.1" viewBox="0 0 405 262"><title>secend illustration</title><desc>Created with Sketch.</desc><g id="Things-you-need-to-know" fill="none" fill-rule="evenodd" stroke="none" stroke-width="1"><g id="22.01.18-Bitcoin.org_things-you-need-to-know-Desktop-1200px--" transform="translate(-958.000000, -1301.000000)"><g id="//body" transform="translate(215.000000, 717.000000)"><g id="2" transform="translate(0.000000, 520.000000)"><g id="secend-illustration" transform="translate(700.000000, 39.000000)"><g id="bitcoin-price-is-volatile"><polyline id="Path-100" stroke="#979797" stroke-width="1" points="49 194.034 65.472 146.734 86.911 219.031 101.349 170.756 107.173 191.848 117.777 127 132.103 217.487 150.771 158.686 171.041 236.51 201.743 184.293 221.477 217.487 230.366 195.108 240.533 217.487 269.541 153.594 302.212 209.055 327.638 170.756 375.266 253.653 386.05 228.274 398.092 253.653 415.841 199.348" opacity=".2"/><circle id="Oval-2" cx="200.653" cy="231.984" r="2.5" fill="#7B7B7B" fill-rule="evenodd"/><circle id="Oval-2" cx="171.653" cy="124.984" r="2.5" fill="#7B7B7B" fill-rule="evenodd"/><g id="dots" fill-rule="evenodd" stroke-width="1" transform="translate(193.000000, 175.000000)"><circle id="Oval-2" cx="8.5" cy="8.5" r="2.38" fill="#C4C4C4"/><circle id="Oval-2" cx="8.5" cy="8.5" r="8.5" stroke="#CACACA"/></g><g id="dots-copy-2" fill-rule="evenodd" stroke-width="1" transform="translate(337.000000, 39.000000)"><circle id="Oval-2" cx="8.5" cy="8.5" r="2.38" fill="#C4C4C4"/><circle id="Oval-2" cx="8.5" cy="8.5" r="8.5" stroke="#CACACA"/></g><path id="btc---FontAwesome-Copy" fill="#F7931A" fill-rule="evenodd" d="M276.006266,149.847907 C276.205259,151.886523 275.348058,153.112759 274.001027,153.802516 C276.235874,154.338994 277.644133,155.672525 277.368604,158.661474 C277.016539,162.386165 274.261249,163.382481 270.311999,163.597072 L270.311999,167.505698 L267.954695,167.505698 L267.954695,163.658384 C267.357715,163.658384 266.730121,163.658384 266.08722,163.643056 L266.08722,167.505698 L263.729916,167.505698 L263.729916,163.597072 C263.178857,163.597072 262.627799,163.581744 262.061434,163.581744 L259,163.581744 L259.474522,160.77673 C261.204233,160.807386 261.173618,160.77673 261.173618,160.77673 C261.831826,160.77673 262.015513,160.301564 262.061434,159.995005 L262.061434,153.833172 L262.306349,153.833172 C262.214506,153.817844 262.122663,153.817844 262.061434,153.817844 L262.061434,149.418725 C261.969591,148.92823 261.663448,148.376424 260.699096,148.376424 C260.699096,148.376424 260.72971,148.345769 259,148.376424 L259,145.862642 L262.24512,145.87797 C262.719642,145.87797 263.224779,145.87797 263.729916,145.862642 L263.729916,142 L266.08722,142 L266.08722,145.786002 C266.714814,145.770674 267.342408,145.755346 267.954695,145.755346 L267.954695,142 L270.311999,142 L270.311999,145.862642 C273.342818,146.123217 275.746044,147.058221 276.006266,149.847907 Z M272.715224,158.201636 C272.715224,155.166703 267.725087,155.611214 266.133141,155.611214 L266.133141,160.792058 C267.725087,160.792058 272.715224,161.129273 272.715224,158.201636 Z M271.628415,150.905535 C271.628415,148.131177 267.464865,148.545032 266.133141,148.545032 L266.133141,153.25071 C267.464865,153.25071 271.628415,153.557269 271.628415,150.905535 Z"/><g id="dots" fill-rule="evenodd" stroke-width="1" transform="translate(127.631237, 211.422064)"><circle id="Oval-2" cx="4.922" cy="4.922" r="1.378" fill="#C4C4C4"/><circle id="Oval-2" cx="4.922" cy="4.922" r="4.922" stroke="#CACACA"/></g><g id="dots" fill-rule="evenodd" stroke-width="1" transform="translate(381.000000, 221.000000)"><circle id="Oval-2" cx="4.922" cy="4.922" r="1.378" fill="#C4C4C4"/><circle id="Oval-2" cx="4.922" cy="4.922" r="4.922" stroke="#CACACA"/></g><g id="dots-copy" fill-rule="evenodd" stroke-width="1" transform="translate(403.000000, 138.000000)"><circle id="Oval-2" cx="4.922" cy="4.922" r="1.378" fill="#C4C4C4"/><circle id="Oval-2" cx="4.922" cy="4.922" r="4.922" stroke="#CACACA"/></g><g id="Group-7" fill-rule="evenodd" stroke-width="1" transform="translate(294.000000, 199.000000)"><circle id="Oval-2" cx="8.218" cy="8.218" r="2.583" fill="#FF7E00"/><circle id="Oval-2" cx="8.218" cy="8.218" r="8.218" stroke="#FF7E00"/></g><g id="Group-7-Copy-2" fill-rule="evenodd" stroke-width="1" transform="translate(431.000000, 76.000000)"><circle id="Oval-2" cx="8.218" cy="8.218" r="2.583" fill="#FF7E00"/><circle id="Oval-2" cx="8.218" cy="8.218" r="8.218" stroke="#FF7E00"/></g><g id="Group-7-Copy" fill-rule="evenodd" stroke-width="1" transform="translate(109.000000, 119.000000)"><circle id="Oval-2" cx="8.218" cy="8.218" r="2.583" fill="#FF7E00"/><circle id="Oval-2" cx="8.218" cy="8.218" r="8.218" stroke="#FF7E00"/></g><path id="Path-101" stroke="#FF9500" stroke-width="1" d="M50.4744458,25.7593184 L50.4744458,268.5"/><path id="Path-102" stroke="#FF9500" stroke-width="1" d="M43.5720548,261.573183 L433.535855,261.573183"/><polyline id="Path-99" stroke="#1C3C55" stroke-width="1" points="49.999 154.006 67.74 71.004 105.702 286.709 132.642 175 145.736 225.402 172.433 126.593 200.047 231.368 235 169.255 269.781 228.171 346.877 47.212 361.659 78.371 370.107 60.445 407.522 143.159 439.363 85.395"/></g></g></g></g></g></g></svg>