<svg xmlns="http://www.w3.org/2000/svg" xmlns:xlink="http://www.w3.org/1999/xlink" width="37" height="52" version="1.1" viewBox="0 0 37 52"><title>Resilience and decentralization icon</title><desc>Created with Sketch.</desc><g id="Innovation" fill="none" fill-rule="evenodd" stroke="none" stroke-width="1"><g id="22.01.18-Bitcoin.org_Innovation_Desktop-1200px--" transform="translate(-382.000000, -2486.000000)"><g id="//contenct" transform="translate(215.000000, 697.000000)"><g id="box10" transform="translate(0.000000, 1755.000000)"><g id="Resilience-and-decentralization-icon"><g transform="translate(155.000000, 30.000000)"><rect id="Rectangle-2" width="60" height="60" x="0" y="0"/><g id="Group-4" transform="translate(12.000000, 4.000000)"><polyline id="Path-2" stroke="#1C3C55" points="13.376 30.912 26.745 8.122 26.745 2.035"/><path id="Path-3" stroke="#1C3C55" d="M26.5154519,8.42818496 L31.7627979,6.0362917"/><path id="Path-5" stroke="#1C3C55" d="M13.3321824,30.3302611 L1.3145823,16.4463995"/><path id="Path-6" stroke="#1C3C55" d="M13.5222439,30.4636611 L3.3601977,28.5643842"/><path id="Path-7" stroke="#1C3C55" d="M13.7466593,30.2526303 L8.81108959,38.9917402"/><path id="Path-10" stroke="#1C3C55" d="M13.4611208,30.6934303 L25.3582594,23.2529226"/><path id="Path-11" stroke="#1C3C55" d="M13.6980285,30.6296303 L31.1225671,26.3233534"/><path id="Path-12" stroke="#1C3C55" d="M14.0897516,30.808538 L29.3464287,43.1545074"/><path id="Path-13" stroke="#1C3C55" d="M29.1575657,43.0267391 L29.6712287,49.4301074"/><path id="Path-14" stroke="#1C3C55" d="M29.1001355,42.9189381 L34.9023825,42.9189381"/><path id="Path-15" stroke="#1C3C55" d="M13.8250669,30.1926208 L11.5458499,12.5312017"/><circle id="Oval-4" cx="1.5" cy="16.5" r="1.5" fill="#FF9500"/><circle id="Oval-4-Copy" cx="11.5" cy="12.5" r="1.5" fill="#FF9500"/><circle id="Oval-4-Copy-2" cx="2.5" cy="28.5" r="1.5" fill="#FF9500"/><circle id="Oval-4-Copy-3" cx="25.5" cy="23.5" r="1.5" fill="#FF9500"/><circle id="Oval-4-Copy-4" cx="13.5" cy="30.5" r="1.5" fill="#FF9500"/><circle id="Oval-4-Copy-5" cx="31.5" cy="26.5" r="1.5" fill="#FF9500"/><circle id="Oval-4-Copy-6" cx="26.5" cy="1.5" r="1.5" fill="#FF9500"/><circle id="Oval-4-Copy-7" cx="32.5" cy="5.5" r="1.5" fill="#FF9500"/><circle id="Oval-4-Copy-8" cx="8.5" cy="39.5" r="1.5" fill="#FF9500"/><circle id="Oval-4-Copy-10" cx="29.5" cy="50.5" r="1.5" fill="#FF9500"/><circle id="Oval-4-Copy-11" cx="35.5" cy="42.5" r="1.5" fill="#FF9500"/></g></g></g></g></g></g></g></svg>