<svg xmlns="http://www.w3.org/2000/svg" xmlns:xlink="http://www.w3.org/1999/xlink" width="31" height="30" version="1.1" viewBox="0 0 31 30"><title>bars</title><desc>Created with Sketch.</desc><g id="Symbols" fill="none" fill-rule="evenodd" stroke="none" stroke-width="1"><g id="GetBalance.icon" fill-rule="nonzero" transform="translate(-15.000000, -15.000000)"><g id="bars" transform="translate(15.000000, 15.000000)"><polygon id="Shape" fill="#F7931A" points="23.4 0 23.4 .974 25.244 .974 14.664 10.998 9.528 6.126 3 12.311 3.721 13 9.528 7.504 14.664 12.37 25.972 1.664 25.972 3.404 27 3.404 27 0"/><path id="Shape" fill="#1C3C55" d="M29.9992126,28.999204 L29.9992126,7 L25.001378,7 L25.001378,28.999204 L24.0005906,28.999204 L24.0005906,10.0023879 L19.0027559,10.0023879 L19.0027559,29.0053064 L18.0019685,29.0053064 L18.0019685,17.0018573 L12.9980315,17.0018573 L12.9980315,28.999204 L11.9972441,28.999204 L11.9972441,13.9994694 L6.99940945,13.9994694 L6.99940945,28.999204 L5.99862205,28.999204 L5.99862205,21.9997347 L1.0007874,21.9997347 L1.0007874,28.999204 L0,28.999204 L0,30 L31,30 L31,28.999204 L29.9992126,28.999204 Z M5.00393701,28.999204 L2.0015748,28.999204 L2.0015748,23.0005306 L5.00393701,23.0005306 L5.00393701,28.999204 Z M11.0025591,28.999204 L8.00019685,28.999204 L8.00019685,15.0002653 L11.0025591,15.0002653 L11.0025591,28.999204 Z M17.0011811,29.0053064 L13.9988189,29.0053064 L13.9988189,18.0026532 L17.0011811,18.0026532 L17.0011811,29.0053064 Z M22.9998031,29.0053064 L19.9974409,29.0053064 L19.9974409,11.0031839 L22.9998031,11.0031839 L22.9998031,29.0053064 Z M29.0045276,28.999204 L26.0021654,28.999204 L26.0021654,8.00079597 L29.0045276,8.00079597 L29.0045276,28.999204 Z"/></g></g></g></svg>