<svg xmlns="http://www.w3.org/2000/svg" width="32" height="32"><g stroke="#000"><rect width="22.378" height=".785" x="4.812" y="4.348" fill="none" stroke-linecap="round" stroke-width="1.619" ry="0"/><path fill="none" stroke-width="1.728" d="M26.585 4.174l-4.838 11.335"/><path stroke-width="1.328" d="M21.673 15.836l9.57.005s-.354 4.502-4.827 4.472c-4.473-.029-4.743-4.477-4.743-4.477z"/><path fill="none" stroke-width="1.728" d="M26.381 4.709l4.808 10.821"/><path stroke-width="2.5" d="M18.003 26.5l-1.986-24.466-2.017 24.417z"/><path stroke-linecap="round" stroke-linejoin="round" stroke-width=".291" d="M7.918 30.754h16.197s-.958-4.223-8.189-4.23c-7.231-.007-8.008 4.23-8.008 4.23z"/><path fill="none" stroke-width="1.728" d="M5.795 4.165l-4.838 11.335"/><path stroke-width="1.328" d="M.883 15.827l9.57.005s-.354 4.502-4.827 4.472c-4.473-.029-4.743-4.477-4.743-4.477z"/><path fill="none" stroke-width="1.728" d="M5.591 4.701l4.808 10.821"/></g></svg>