<svg xmlns="http://www.w3.org/2000/svg" xmlns:xlink="http://www.w3.org/1999/xlink" width="37" height="30" version="1.1" viewBox="0 0 37 30"><title>Group 16</title><desc>Created with Sketch.</desc><g id="new-TEMPLATE" fill="none" fill-rule="evenodd" stroke="none" stroke-width="1"><g id="Bitcoin.org---Bitcoin-core-Template" transform="translate(-481.000000, -9684.000000)"><g id="Group-28" transform="translate(469.000000, 9669.000000)"><g id="Group-16" transform="translate(12.000000, 15.000000)"><circle id="Oval-13" cx="21.818" cy="23.182" r="1.364" stroke="#1C3C55"/><circle id="Oval-13-Copy" cx="28.636" cy="23.182" r="1.364" stroke="#1C3C55"/><path id="Path-53" stroke="#FF9500" d="M6.97394534,2.82960074 L1.29896685,16.6395774 L35.2606325,16.6395774 L29.4403842,2.80642557 C28.972167,1.69360024 27.8824895,0.969877152 26.6751753,0.969877152 L9.74879123,0.969877152 C8.53234273,0.969877152 7.43630786,1.70444836 6.97394534,2.82960074 Z"/><path id="Path-54" stroke="#1C3C55" d="M0.975311105,17.460983 L0.975311105,27.4365117 C0.975311105,28.5410812 1.87074161,29.4365117 2.97531111,29.4365117 L33.5692426,29.4365117 C34.6738121,29.4365117 35.5692426,28.5410812 35.5692426,27.4365117 L35.5692426,17.460983 L35.0266772,16.6385719 L1.37895607,16.6385719 L0.975311105,17.460983 Z"/></g></g></g></g></svg>