<svg xmlns="http://www.w3.org/2000/svg" xmlns:xlink="http://www.w3.org/1999/xlink" width="32" height="30" version="1.1" viewBox="0 0 32 30"><title>Group 3</title><desc>Created with Sketch.</desc><defs><rect id="path-1" width="28" height="10" x="0" y="3" rx="5"/><rect id="path-2" width="28" height="10" x="3" y="2" rx="5"/></defs><g id="new-TEMPLATE" fill="none" fill-rule="evenodd" stroke="none" stroke-width="1"><g id="Bitcoin.org---Bitcoin-core-Template" transform="translate(-784.000000, -7503.000000)"><g id="Group-12" transform="translate(215.000000, 7371.000000)"><g id="Group-11"><g id="box2" transform="translate(400.000000, 87.000000)"><g id="Group-4" transform="translate(155.000000, 30.000000)"><g id="Group-3" transform="translate(14.000000, 15.000000)"><g id="Group-2" transform="translate(3.000000, 0.000000)"><g id="Rectangle-2"><use fill="#FFF" fill-rule="evenodd" xlink:href="#path-1"/><rect width="27" height="9" x=".5" y="3.5" stroke="#1C3C55" stroke-width="1" rx="4.5"/></g><path id="Rectangle-2" fill="#1C3C55" fill-rule="nonzero" d="M5,4 C2.790861,4 1,5.790861 1,8 C1,10.209139 2.790861,12 5,12 L23,12 C25.209139,12 27,10.209139 27,8 C27,5.790861 25.209139,4 23,4 L5,4 Z M5,3 L23,3 C25.7614237,3 28,5.23857625 28,8 C28,10.7614237 25.7614237,13 23,13 L5,13 C2.23857625,13 3.38176876e-16,10.7614237 0,8 C-3.38176876e-16,5.23857625 2.23857625,3 5,3 Z"/><circle id="Oval" cx="21.5" cy="7.5" r="6.5" fill="#FFF" stroke="#FF9500"/><path id="Oval" fill="#FF9500" fill-rule="nonzero" d="M21.5,14.5 C17.6340068,14.5 14.5,11.3659932 14.5,7.5 C14.5,3.63400675 17.6340068,0.5 21.5,0.5 C25.3659932,0.5 28.5,3.63400675 28.5,7.5 C28.5,11.3659932 25.3659932,14.5 21.5,14.5 Z M21.5,13.5 C24.8137085,13.5 27.5,10.8137085 27.5,7.5 C27.5,4.1862915 24.8137085,1.5 21.5,1.5 C18.1862915,1.5 15.5,4.1862915 15.5,7.5 C15.5,10.8137085 18.1862915,13.5 21.5,13.5 Z"/></g><g id="Group" transform="translate(0.000000, 15.000000)"><g id="Rectangle-2-Copy"><use fill="#FFF" fill-rule="evenodd" xlink:href="#path-2"/><rect width="27" height="9" x="3.5" y="2.5" stroke="#1C3C55" stroke-width="1" rx="4.5"/></g><path id="Rectangle-2-Copy" fill="#1C3C55" fill-rule="nonzero" d="M8,3 C5.790861,3 4,4.790861 4,7 C4,9.209139 5.790861,11 8,11 L26,11 C28.209139,11 30,9.209139 30,7 C30,4.790861 28.209139,3 26,3 L8,3 Z M8,2 L26,2 C28.7614237,2 31,4.23857625 31,7 C31,9.76142375 28.7614237,12 26,12 L8,12 C5.23857625,12 3,9.76142375 3,7 C3,4.23857625 5.23857625,2 8,2 Z"/><circle id="Oval-Copy" cx="7.5" cy="7.5" r="6.5" fill="#FFF" stroke="#FF9500"/><path id="Oval-Copy" fill="#FF9500" fill-rule="nonzero" d="M7.5,14.5 C3.63400675,14.5 0.5,11.3659932 0.5,7.5 C0.5,3.63400675 3.63400675,0.5 7.5,0.5 C11.3659932,0.5 14.5,3.63400675 14.5,7.5 C14.5,11.3659932 11.3659932,14.5 7.5,14.5 Z M7.5,13.5 C10.8137085,13.5 13.5,10.8137085 13.5,7.5 C13.5,4.1862915 10.8137085,1.5 7.5,1.5 C4.1862915,1.5 1.5,4.1862915 1.5,7.5 C1.5,10.8137085 4.1862915,13.5 7.5,13.5 Z"/></g></g></g></g></g></g></g></g></svg>