<svg xmlns="http://www.w3.org/2000/svg" xmlns:xlink="http://www.w3.org/1999/xlink" width="28" height="28" version="1.1" viewBox="0 0 28 28"><title>Group</title><desc>Created with Sketch.</desc><g id="Symbols" fill="none" fill-rule="evenodd" stroke="none" stroke-width="1"><g id="QR-codes.icon" transform="translate(-16.000000, -15.000000)"><g id="Group" transform="translate(16.000000, 15.000000)"><rect id="Rectangle-13" width="13" height="13" x="0" y="0" fill="#F7931A"/><rect id="Rectangle-13" width="5" height="5" x="4" y="4" fill="#FFF"/><rect id="Rectangle-13-Copy" width="13" height="13" x="15" y="0" fill="#F7931A"/><rect id="Rectangle-13" width="5" height="5" x="19" y="4" fill="#FFF"/><rect id="Rectangle-13-Copy-2" width="13" height="13" x="0" y="15" fill="#F7931A"/><rect id="Rectangle-13" width="5" height="5" x="4" y="19" fill="#FFF"/><polygon id="Rectangle-13-Copy-3" fill="#F7931A" points="15 15 22.817 15 22.817 17.599 25.385 17.599 25.385 15 28 15 28 22.89 20.138 22.89 20.138 20.487 18.075 20.487 18.075 28 15 28"/><rect id="Rectangle-2" width="3" height="3" x="20" y="25" fill="#F7931A"/><rect id="Rectangle-2-Copy" width="3" height="3" x="25" y="25" fill="#F7931A"/></g></g></g></svg>