<svg xmlns="http://www.w3.org/2000/svg" xmlns:xlink="http://www.w3.org/1999/xlink" width="45" height="38" version="1.1" viewBox="0 0 45 38"><title>suitcase</title><desc>Created with Sketch.</desc><g id="Home" fill="none" fill-rule="evenodd" stroke="none" stroke-width="1"><g id="19/01/18-Bitcoin.org-ver3-Desktop-1200px--" stroke="#FF7E00" transform="translate(-778.000000, -1076.000000)"><g id="//Content" transform="translate(215.000000, 961.000000)"><g id="Get-a-quick-overview" transform="translate(175.000000, 0.000000)"><g id="Containers" transform="translate(0.000000, 73.000000)"><g id="Container" transform="translate(280.000000, 0.000000)"><g id="Icon" transform="translate(90.000000, 21.000000)"><g id="suitcase" transform="translate(18.000000, 21.000000)"><path id="Rectangle-2" d="M44.5,6.26440499 L0.5,6.394271 L0.5,36.8947368 C0.5,37.1708792 0.723857625,37.3947368 1,37.3947368 L44,37.3947368 C44.2761424,37.3947368 44.5,37.1708792 44.5,36.8947368 L44.5,6.26440499 Z"/><path id="Combined-Shape" d="M25.5397949,23.1842105 L41,23.1842105 C42.9329966,23.1842105 44.5,21.6172072 44.5,19.6842105 L44.5,5.73684211 C44.5,5.46069973 44.2761424,5.23684211 44,5.23684211 L1,5.23684211 C0.723857625,5.23684211 0.5,5.46069973 0.5,5.73684211 L0.5,19.6842105 C0.5,21.6172072 2.06700338,23.1842105 4,23.1842105 L20.626709,23.1842105 L20.626709,19.9473684 C20.626709,19.1189413 21.2982819,18.4473684 22.126709,18.4473684 L24.0397949,18.4473684 C24.868222,18.4473684 25.5397949,19.1189413 25.5397949,19.9473684 L25.5397949,23.1842105 Z"/><rect id="Rectangle-3" width="4.921" height="9.658" x="20.632" y="18.263" rx="2"/><path id="Rectangle-3" d="M8.5,23.5 L8.5,26.9210526 C8.5,27.7494798 9.17157288,28.4210526 10,28.4210526 L11.9210526,28.4210526 C12.7494798,28.4210526 13.4210526,27.7494798 13.4210526,26.9210526 L13.4210526,23.5 L8.5,23.5 Z"/><path id="Rectangle-3" d="M31.5,23.5 L31.5,26.9210526 C31.5,27.7494798 32.1715729,28.4210526 33,28.4210526 L34.9210526,28.4210526 C35.7494798,28.4210526 36.4210526,27.7494798 36.4210526,26.9210526 L36.4210526,23.5 L31.5,23.5 Z"/><path id="Rectangle-3" d="M14.7105263,0.5 L14.7105263,3.73449707 C14.7105263,4.5629242 15.3820992,5.23449707 16.2105263,5.23449707 L29.9736842,5.23449707 C30.8021113,5.23449707 31.4736842,4.5629242 31.4736842,3.73449707 L31.4736842,0.5 L14.7105263,0.5 Z" transform="translate(23.092105, 2.867249) scale(1, -1) translate(-23.092105, -2.867249)"/></g></g></g></g></g></g></g></g></svg>