<svg xmlns="http://www.w3.org/2000/svg" xmlns:xlink="http://www.w3.org/1999/xlink" width="35" height="30" version="1.1" viewBox="0 0 35 30"><title>Group</title><desc>Created with Sketch.</desc><g id="Symbols" fill="none" fill-rule="evenodd" stroke="none" stroke-width="1"><g id="The-simplest-of-all-payment-systems.icon" transform="translate(-13.000000, -15.000000)"><g id="Group" transform="translate(13.000000, 15.000000)"><g id="Group-3"><polygon id="ion-android-arrow-forward---Ionicons" fill="#95AABF" points="14 11.491 14 10.509 33.072 10.509 30.275 7.702 30.98 7 35 11 30.98 15 30.252 14.298 33.072 11.491"/><polygon id="ion-android-arrow-forward---Ionicons" fill="#F7931A" points="13 4.491 13 3.509 26.128 3.509 23.411 .702 24.096 0 28 4 24.096 8 23.389 7.298 26.128 4.491"/><polygon id="ion-android-arrow-forward---Ionicons" fill="#1C3C55" points="21 18.491 1.928 18.491 4.748 21.298 4.02 22 0 18 4.02 14 4.725 14.702 1.928 17.509 21 17.509"/></g><g id="Group-2" transform="translate(6.000000, 6.000000)"><circle id="Oval" cx="12" cy="12" r="11" fill="#FFF"/><path id="Oval" fill="#1C1F30" fill-rule="nonzero" d="M12,23.5 C5.64872538,23.5 0.5,18.3512746 0.5,12 C0.5,5.64872538 5.64872538,0.5 12,0.5 C18.3512746,0.5 23.5,5.64872538 23.5,12 C23.5,18.3512746 18.3512746,23.5 12,23.5 Z M12,22.5 C17.7989899,22.5 22.5,17.7989899 22.5,12 C22.5,6.20101013 17.7989899,1.5 12,1.5 C6.20101013,1.5 1.5,6.20101013 1.5,12 C1.5,17.7989899 6.20101013,22.5 12,22.5 Z"/><path id="Oval" fill="#1C1F30" fill-rule="nonzero" d="M12,23.5 C5.64872538,23.5 0.5,18.3512746 0.5,12 C0.5,5.64872538 5.64872538,0.5 12,0.5 C18.3512746,0.5 23.5,5.64872538 23.5,12 C23.5,18.3512746 18.3512746,23.5 12,23.5 Z M12,22.5 C17.7989899,22.5 22.5,17.7989899 22.5,12 C22.5,6.20101013 17.7989899,1.5 12,1.5 C6.20101013,1.5 1.5,6.20101013 1.5,12 C1.5,17.7989899 6.20101013,22.5 12,22.5 Z"/><path id="Path-4" fill="#FF9500" fill-rule="nonzero" d="M17.6243872,7.66997718 C17.8066538,7.46253199 18.1225776,7.44212068 18.3300228,7.62438725 C18.537468,7.80665382 18.5578793,8.12257763 18.3756128,8.33002282 L11.3466113,16.3300228 C11.1687774,16.5324231 10.8625504,16.5575211 10.654134,16.3867775 L6.68313544,13.133567 C6.46952412,12.9585676 6.43822301,12.6435363 6.61322248,12.4299249 C6.78822194,12.2163136 7.10325323,12.1850125 7.31686456,12.360012 L10.91421,15.30711 L17.6243872,7.66997718 Z"/></g></g></g></g></svg>