<svg xmlns="http://www.w3.org/2000/svg" xmlns:xlink="http://www.w3.org/1999/xlink" width="31" height="25" version="1.1" viewBox="0 0 31 25"><title>icon/transaction</title><desc>Created with Sketch.</desc><g id="Developer-Documentation" fill="none" fill-rule="evenodd" stroke="none" stroke-width="1"><g id="22.01.18-Bitcoin.org_Developer-Documentation-Desktop-1200px--" transform="translate(-785.000000, -686.000000)"><g id="//contenct" transform="translate(215.000000, 513.000000)"><g id="developer-documentation" transform="translate(0.000000, 115.000000)"><g id="box2" transform="translate(400.000000, 0.000000)"><g id="icon/transaction"><g transform="translate(155.000000, 40.000000)"><rect id="Rectangle-2" width="60" height="60" x="0" y="0"/><g id="Group-3" transform="translate(15.000000, 18.000000)"><polygon id="ion-android-arrow-forward---Ionicons" fill="#95AABF" points="8 13.658 8 12.592 28.602 12.592 25.58 9.545 26.342 8.783 30.684 13.125 26.342 17.467 25.555 16.705 28.602 13.658"/><polygon id="ion-android-arrow-forward---Ionicons" fill="#F7931A" points="4 5.658 4 4.592 18.602 4.592 15.58 1.545 16.342 .783 20.684 5.125 16.342 9.467 15.555 8.705 18.602 5.658"/><polygon id="ion-android-arrow-forward---Ionicons" fill="#1C3C55" points="22.684 20.658 2.082 20.658 5.129 23.705 4.342 24.467 0 20.125 4.342 15.783 5.104 16.545 2.082 19.592 22.684 19.592"/></g></g></g></g></g></g></g></g></svg>