<svg xmlns="http://www.w3.org/2000/svg" xmlns:xlink="http://www.w3.org/1999/xlink" width="32" height="32" version="1"><defs><linearGradient id="d"><stop offset="0" stop-opacity=".314"/><stop offset=".93" stop-opacity=".196"/><stop offset="1" stop-opacity="0"/></linearGradient><linearGradient id="c"><stop offset="0" stop-color="#fff"/><stop offset="1" stop-color="#fff" stop-opacity=".48"/></linearGradient><linearGradient id="b"><stop offset="0" stop-color="#fff" stop-opacity=".949"/><stop offset="1" stop-color="#fff" stop-opacity=".745"/></linearGradient><linearGradient id="a"><stop offset="0" stop-color="#2a4fe4"/><stop offset=".2" stop-color="#447bfa"/><stop offset=".625" stop-color="#69a3ff"/><stop offset=".75" stop-color="#89beff"/><stop offset="1" stop-color="#80beff"/></linearGradient><linearGradient><stop offset="0"/><stop offset="1" stop-opacity="0"/></linearGradient><linearGradient><stop offset="0" stop-color="#385ae5"/><stop offset="0" stop-color="#66a1ff"/><stop offset="1" stop-color="#66a1f0" stop-opacity=".941"/></linearGradient><linearGradient><stop offset="0" stop-color="#2b51e4" stop-opacity="0"/><stop offset="1" stop-opacity="0"/></linearGradient><linearGradient><stop offset="0" stop-color="#1864ed"/><stop offset="1" stop-color="#3a7bef" stop-opacity=".255"/></linearGradient><linearGradient id="e"><stop offset="0" stop-color="#fff"/><stop offset="1" stop-color="#fff" stop-opacity=".591"/></linearGradient><filter color-interpolation-filters="sRGB"><feGaussianBlur stdDeviation="1.739"/></filter><filter color-interpolation-filters="sRGB"><feGaussianBlur stdDeviation=".334"/></filter><linearGradient x1="168.973" x2="94.361" y1="226.798" y2="42.125" gradientUnits="userSpaceOnUse" xlink:href="#a"/><linearGradient x1="162.122" x2="101.212" y1="228.193" y2="40.729" gradientUnits="userSpaceOnUse" xlink:href="#b"/><linearGradient x1="127.813" x2="127.813" y1="31.594" y2="118.625" gradientUnits="userSpaceOnUse" xlink:href="#c"/><linearGradient x1="150.769" x2="162.293" y1="72.58" y2="131.318" gradientUnits="userSpaceOnUse" xlink:href="#d"/><radialGradient cx="130.619" cy="132.016" r="115.951" fx="130.619" fy="132.016" gradientUnits="userSpaceOnUse" xlink:href="#d"/><linearGradient x1="127.813" x2="127.813" y1="31.594" y2="118.625" gradientUnits="userSpaceOnUse" xlink:href="#e"/></defs><path fill="#fff" stroke="#fff" stroke-linecap="round" stroke-linejoin="round" stroke-width=".816" d="M18.243 7.185c.001 1.095-.887 1.982-1.981 1.982-1.095 0-1.982-.888-1.981-1.982-.001-1.095.887-1.982 1.981-1.982 1.095 0 1.982.888 1.981 1.982z"/><path stroke="#000" stroke-linecap="round" stroke-linejoin="round" stroke-width="1.858" d="M16.371 28.094c10.304-8.385 9.403-10.902 9.942-20.529-6.618 1.665-9.12-3.276-9.12-3.276l-1.908.004s-2.968 5.027-9.372 3.267c.416 9.257-.395 12.413 10.458 20.533z"/></svg>