<svg xmlns="http://www.w3.org/2000/svg" width="32" height="32"><g><path stroke="#000" stroke-linecap="round" stroke-linejoin="round" stroke-width=".1" d="M13.078 10.053a.211.209 0 1 1-.422 0 .211.209 0 1 1 .422 0z" opacity=".99" transform="matrix(35.039 0 0 35.039 -430.731 -341.367)"/><path d="M13.58 12.336l-11.336 13.751v3.697l2.239.012 2.802-2.011.973-2.123 3.277-.102.633-3.102 2.858-.784 6.71-6.442z"/><path fill="#fff" stroke="#fff" stroke-linecap="round" stroke-linejoin="round" stroke-width="3" d="M23.234 8.577a1.2 1.2 0 1 1-2.399 0 1.2 1.2 0 1 1 2.399 0z" opacity=".99" transform="matrix(.92 0 0 .92 2.111 .829)"/></g></svg>