<svg xmlns="http://www.w3.org/2000/svg" width="22" height="22"><g><path fill="#ee9209" stroke="#ee9209" stroke-linecap="round" stroke-linejoin="round" stroke-width="5.102" d="M11.007 5.696l-8.293 13.604h16.618z"/><path style="line-height:125%;-inkscape-font-specification:Ubuntu Medium" fill="#fff" d="M12.192 11.112c0 .901-.033 1.726-.098 2.475-.065.749-.147 1.503-.244 2.263h-1.4c-.109-.76-.195-1.514-.261-2.263-.065-.76-.098-1.585-.098-2.475v-3.028h2.1v3.028m.244 7.18c0 .38-.125.689-.374.928-.25.239-.559.358-.928.358-.358 0-.668-.119-.928-.358-.25-.239-.374-.548-.374-.928s.125-.689.374-.928c.261-.25.57-.374.928-.374.369 0 .678.125.928.374.25.239.374.548.374.928" font-family="Ubuntu" font-size="28.564" font-weight="500" letter-spacing="0" word-spacing="0"/></g></svg>