<svg xmlns="http://www.w3.org/2000/svg" xmlns:svg="http://www.w3.org/2000/svg" width="48" height="48" fill-rule="evenodd" version="1.1" viewBox="0 0 13.547 13.547" xml:space="preserve"><metadata/><defs><style type="text/css">.str0,.str1{stroke-width:.0762}.str1{stroke:#999}.str0{stroke:#b2b2b2}.fil0{fill:none}.fil1{fill:#99f}.fil2{fill:#e5e5e5}</style></defs><circle cx="45" cy="45" r="31.5" d="M 76.5,45 C 76.5,62.39697 62.39697,76.5 45,76.5 27.60303,76.5 13.5,62.39697 13.5,45 13.5,27.60303 27.60303,13.5 45,13.5 62.39697,13.5 76.5,27.60303 76.5,45 z" class="fil0 str0" transform="matrix(0.18698133,0,0,-0.18698133,-1.7495191,15.188054)" style="fill:none;stroke-width:.28222221;stroke:#000"/><polygon points="45.581 45.003 53.596 37.003 45.581 10.003" class="fil1 str1" transform="matrix(0.18698133,0,0,-0.18698133,-1.7495191,15.188054)" style="fill:#000;stroke-width:.56444442;stroke:#000"/><polygon points="45.581 45.003 37.567 37.003 45.581 10.003" class="fil2 str1" transform="matrix(0.18698133,0,0,-0.18698133,-1.7495191,15.188054)" style="fill:#fff;stroke-width:.56444442;stroke:#000"/><polygon points="45.581 45.003 53.581 53.018 80.581 45.003" class="fil1 str1" transform="matrix(0.18698133,0,0,-0.18698133,-1.7495191,15.188054)" style="fill:#000;stroke-width:.56444442;stroke:#000"/><polygon points="45.581 45.003 53.581 36.988 80.581 45.003" class="fil2 str1" transform="matrix(0.18698133,0,0,-0.18698133,-1.7495191,15.188054)" style="fill:#fff;stroke-width:.56444442;stroke:#000"/><polygon points="45.581 45.003 37.567 53.003 45.581 80.003" class="fil1 str1" transform="matrix(0.18698133,0,0,-0.18698133,-1.7495191,15.188054)" style="fill:#000;stroke-width:.56444442;stroke:#000"/><polygon points="45.581 45.003 53.596 53.003 45.581 80.003" class="fil2 str1" transform="matrix(0.18698133,0,0,-0.18698133,-1.7495191,15.188054)" style="fill:#fff;stroke-width:.56444442;stroke:#000"/><polygon points="45.581 45.003 37.581 36.988 10.581 45.003" class="fil1 str1" transform="matrix(0.18698133,0,0,-0.18698133,-1.7495191,15.188054)" style="fill:#000;stroke-width:.56444442;stroke:#000"/><polygon points="45.581 45.003 37.581 53.018 10.581 45.003" class="fil2 str1" transform="matrix(0.18698133,0,0,-0.18698133,-1.7495191,15.188054)" style="fill:#fff;stroke-width:.56444442;stroke:#000"/><path d="M8.9329554 4.7290382 11.932577 1.7294216" style="fill:none;stroke-width:.15696824;stroke:#000"/><path d="M8.8605813 8.8551168 12.004951 11.993504" style="fill:none;stroke-width:.16438642;stroke:#000"/><path d="M1.659623 1.6832236 4.757519 4.7752362" style="fill:none;stroke-width:.16195713;stroke:#000"/><path d="M1.7087612 11.924122 4.7083808 8.9244992" style="fill:none;stroke-width:.15696824;stroke:#000"/></svg>