<svg xmlns="http://www.w3.org/2000/svg" xmlns:xlink="http://www.w3.org/1999/xlink" width="36" height="38" version="1.1" viewBox="0 0 36 38"><title>Flexible transparency/icon</title><desc>Created with Sketch.</desc><g id="Innovation" fill="none" fill-rule="evenodd" stroke="none" stroke-width="1"><g id="22.01.18-Bitcoin.org_Innovation_Desktop-1200px--" transform="translate(-782.000000, -2493.000000)"><g id="//contenct" transform="translate(215.000000, 697.000000)"><g id="box11" transform="translate(400.000000, 1755.000000)"><g id="Flexible-transparency/icon" transform="translate(155.000000, 30.000000)"><g fill-rule="evenodd"><rect id="Rectangle-2" width="60" height="60" x="0" y="0"/><path id="Shape" fill="#1C3C55" fill-rule="nonzero" d="M47.8032748,47.7853717 L37.3145057,36.6987501 C39.9898159,33.9717555 41.6472377,30.2123626 41.6472377,26.0662689 C41.6472377,17.7582978 34.9977858,11 26.8236189,11 C18.6494519,11 12,17.7582978 12,26.0662689 C12,34.3742401 18.6494519,41.1325379 26.8236189,41.1325379 C30.4116405,41.1325379 33.7046015,39.8289469 36.2712053,37.6658611 L46.7853863,48.7797455 C46.9237401,48.926821 47.1086824,49 47.2943306,49 C47.4708022,49 47.646568,48.933278 47.78351,48.7998339 C48.0644529,48.5250538 48.0729235,48.0709134 47.8032748,47.7853717 Z M26.8393798,40.1214382 C19.2085,40.1214382 13.000808,33.8121316 13.000808,26.0563407 C13.000808,18.3005498 19.2085,11.9912432 26.8393798,11.9912432 C34.4702597,11.9912432 40.6779516,18.3005498 40.6779516,26.0563407 C40.6779516,33.8121316 34.4695313,40.1214382 26.8393798,40.1214382 Z"/></g><path id="Oval-8" stroke="#FF9500" stroke-linecap="round" stroke-linejoin="round" d="M27,38 C33.627417,38 39,32.627417 39,26 C39,19.372583 33.627417,14 27,14 C20.372583,14 15,19.372583 15,26"/></g></g></g></g></g></svg>