<svg xmlns="http://www.w3.org/2000/svg" xmlns:xlink="http://www.w3.org/1999/xlink" width="1600" height="412" version="1.1" viewBox="0 0 1600 412"><title>hero bg@1x</title><desc>Created with Sketch.</desc><defs><polygon id="path-1" points=".25 16.284 32 8.08 90 3.098 114 1.058 155 16.037 209 11.037 225 19.08 296 19.08 322 24.098 357 23.074 417 12.026 460 22.05 491 22.05 528 9.024 556 11.026 617 11.037 648 11.037 702 23.063 733 11.037 779 8.014 828 8.026 860 13.074 906 8.08 928 15.11 970 17.091 1051 2.05 1076 8.08 1105 13.086 1157 9.058 1211 13.086 1271 6.05 1371 11.037 1417 18.045 1463 7.008 1507 0 1546 12.026 1571 16.555 1600.025 15.035 1600.025 183 .25 183"/></defs><g id="Community" fill="none" fill-rule="evenodd" stroke="none" stroke-width="1"><g id="22.01.18-Bitcoin.org_Bitcoin-communities_Desktop-1200px--" transform="translate(0.000000, -55.000000)"><g id="//HERO" transform="translate(-1.000000, 0.000000)"><g id="bottom-hero" transform="translate(0.000000, 55.000000)"><g id="hero-bg"><g id="ver-3-bg-element-subpages" transform="translate(800.500000, 320.500000) scale(1, -1) translate(-800.500000, -320.500000) translate(0.000000, 229.000000)"><g id="Group-5"><g><mask id="mask-2" fill="#fff"><use xlink:href="#path-1"/></mask><use id="Mask" fill="#13161F" xlink:href="#path-1"/><g stroke="#3D3D3D" mask="url(#mask-2)" opacity=".6"><g transform="translate(43.000000, -25.000000)"><polyline id="Path-4" points="0 149 215.598 30 519.387 78.854 813 128 1164 29 1514 5"/><polyline id="Path-3" points="0 149 47.328 5.098 215.598 29 291.48 138 519.387 78.854 674.891 29 813 128 848 0 1165 29 1467 149 1511.746 23.082 1415.699 23.082 1467 149"/></g></g></g></g></g><rect id="Rectangle" width="1600" height="280" x="0" y="0" fill="#13161F"/></g></g></g></g></g></svg>