<svg xmlns="http://www.w3.org/2000/svg" xmlns:xlink="http://www.w3.org/1999/xlink" width="1600" height="302" version="1.1" viewBox="0 0 1600 302"><title>ver 3 bg element</title><desc>Created with Sketch.</desc><defs><polygon id="path-1" points=".25 76.284 32 68.08 90 83.098 114 49.058 155 31.037 209 31.037 220 68.08 291 68.08 317 83.098 357 63.074 430 22.026 460 42.05 491 42.05 528 20.024 556 22.026 617 31.037 648 31.037 704 53.063 733 31.037 779 12.014 828 22.026 860 63.074 906 68.08 928 93.11 970 77.091 1051 42.05 1076 68.08 1105 73.086 1157 49.058 1211 73.086 1271 42.05 1371 31.037 1437 38.045 1463 7.008 1507 0 1546 22.026 1571 46.555 1600.025 45.035 1600.025 203 .25 203"/></defs><g id="Home" fill="none" fill-rule="evenodd" stroke="none" stroke-width="1"><g id="19/01/18-Bitcoin.org-ver3-Desktop-1200px--" transform="translate(0.000000, -584.000000)"><g id="//Content" transform="translate(0.000000, 585.000000)"><g id="ver-3-bg-element"><g><g id="Group-5" stroke="#D1D1D1" transform="translate(0.000000, 12.000000)"><polyline id="Path-4" points=".411 188.717 248 81 427 188 737 215 1157 109 1372 32"/><path id="Path-18" d="M379,1 L246,82"/><polyline id="Path-3" points=".25 71.877 40 35 249 83 109 276 427 186 378 0 736 216 841 78 1158 107 1460 227 1371 30 1567 0 1600.025 38.309"/><polyline id="Path-7" points="1566 2 1458 228 1336 273 1159 108 1022 269"/></g><g id="Group-5" transform="translate(0.000000, 97.000000)"><mask id="mask-2" fill="#fff"><use xlink:href="#path-1"/></mask><use id="Mask" fill="#13161F" xlink:href="#path-1"/><g stroke="#3D3D3D" mask="url(#mask-2)"><g transform="translate(-43.000000, -85.000000)"><polyline id="Path-4" points="43.413 188.716 291 81 470 188 780 215 1200 109 1415 32"/><path id="Path-18" d="M422,1 L289,82"/><polyline id="Path-3" points="0 112 83 35 292 83 152 276 470 186 421 0 779 216 884 78 1201 107 1503 227 1414 30 1610 0 1710 116"/><polyline id="Path-7" points="1609 2 1501 228 1379 273 1202 108 1065 269"/></g></g></g><g id="Group-4" transform="translate(26.000000, 0.000000)"><g id="dots" transform="translate(339.000000, 0.000000)"><circle id="Oval-2" cx="12.5" cy="12.5" r="3.5" fill="#FF7E00"/><circle id="Oval-2" cx="12.5" cy="12.5" r="12.5" stroke="#FF7E00"/></g><g id="dots" transform="translate(203.000000, 26.000000)"><circle id="Oval-2" cx="17.5" cy="67.5" r="5.5" fill="#FF7E00"/><circle id="Oval-2" cx="17.5" cy="67.5" r="17.5" stroke="#FF7E00"/><circle id="Oval-2" cx="507.5" cy="202.5" r="5.5" fill="#FF7E00"/><circle id="Oval-2" cx="507.5" cy="202.5" r="17.5" stroke="#FF7E00"/><circle id="Oval-2" cx="1141.5" cy="17.5" r="5.5" fill="#FF7E00"/><circle id="Oval-2" cx="1141.5" cy="17.5" r="17.5" stroke="#FF7E00"/></g><g id="dots" transform="translate(1119.000000, 107.000000)"><circle id="Oval-2" cx="12.5" cy="12.5" r="3.5" fill="#C4C4C4"/><circle id="Oval-2" cx="12.5" cy="12.5" r="12.5" stroke="#CACACA"/></g><g id="dots" opacity=".7" transform="translate(985.000000, 269.000000)"><circle id="Oval-2" cx="12.5" cy="12.5" r="3.5" fill="#C4C4C4"/><circle id="Oval-2" cx="12.5" cy="12.5" r="12.5" stroke="#CACACA"/></g><g id="dots" opacity=".7" transform="translate(1419.000000, 227.000000)"><circle id="Oval-2" cx="12.5" cy="12.5" r="3.5" fill="#C4C4C4"/><circle id="Oval-2" cx="12.5" cy="12.5" r="12.5" stroke="#CACACA"/></g><g id="dots" opacity=".6" transform="translate(70.000000, 275.000000)"><circle id="Oval-2" cx="12.5" cy="12.5" r="3.5" fill="#C4C4C4"/><circle id="Oval-2" cx="12.5" cy="12.5" r="12.5" stroke="#CACACA"/></g><g id="dots" transform="translate(0.000000, 35.000000)"><circle id="Oval-2" cx="12.5" cy="12.5" r="3.5" fill="#C4C4C4"/><circle id="Oval-2" cx="12.5" cy="12.5" r="12.5" stroke="#CACACA"/></g><g id="dots" transform="translate(1296.000000, 273.000000)"><circle id="Oval-2" cx="12.5" cy="12.5" r="3.5" fill="#FF7E00"/><circle id="Oval-2" cx="12.5" cy="12.5" r="12.5" stroke="#FF7E00"/></g><g id="dots" transform="translate(387.000000, 186.000000)"><circle id="Oval-2" cx="12.5" cy="12.5" r="3.5" fill="#FF7E00"/><circle id="Oval-2" cx="12.5" cy="12.5" r="12.5" stroke="#FF7E00"/></g><g id="dots" transform="translate(1527.000000, 1.000000)"><circle id="Oval-2" cx="12.5" cy="12.5" r="3.5" fill="#FF7E00"/><circle id="Oval-2" cx="12.5" cy="12.5" r="12.5" stroke="#FF7E00"/></g><g id="dots" transform="translate(801.000000, 78.000000)"><circle id="Oval-2" cx="12.5" cy="12.5" r="3.5" fill="#FF7E00"/><circle id="Oval-2" cx="12.5" cy="12.5" r="12.5" stroke="#FF7E00"/></g></g></g></g></g></g></g></svg>