<svg xmlns="http://www.w3.org/2000/svg" xmlns:xlink="http://www.w3.org/1999/xlink" width="320" height="547" version="1.1" viewBox="0 0 320 547"><title>bottom hero</title><desc>Created with Sketch.</desc><defs><polygon id="path-1" points=".05 15.257 6.4 13.616 18 16.62 22.8 9.812 31 6.207 41.8 6.207 44 13.616 58.2 13.616 63.4 16.62 71.4 12.615 86 4.405 92 8.41 98.2 8.41 105.6 4.005 111.2 4.405 123.4 6.207 129.6 6.207 140.8 10.613 146.6 6.207 155.8 2.403 165.6 4.405 172 12.615 181.2 13.616 185.6 18.622 194 15.418 210.2 8.41 215.2 13.616 221 14.617 231.4 9.812 242.2 14.617 254.2 8.41 274.2 6.207 287.4 7.609 292.6 1.402 301.4 0 309.2 4.405 314.2 9.311 320.005 9.007 320.005 40.6 .05 40.6"/></defs><g id="Home" fill="none" fill-rule="evenodd" stroke="none" stroke-width="1"><g id="22/01/18-Bitcoin.org-ver3--Mobile-320px" transform="translate(0.000000, -512.000000)"><g id="//HERO"><g id="bottom-hero" transform="translate(0.000000, 513.000000)"><rect id="Rectangle" width="320" height="487" x="0" y="59" fill="#13161F"/><g id="ver-3-bg-element"><g><g id="Group-5" stroke="#D1D1D1" transform="translate(0.000000, 2.400000)"><polyline id="Path-4" points=".082 37.743 49.6 16.2 85.4 37.6 147.4 43 231.4 21.8 274.4 6.4"/><path id="Path-18" d="M75.8,0.2 L49.2,16.4"/><polyline id="Path-3" points=".05 14.375 8 7 49.8 16.6 21.8 55.2 85.4 37.2 75.6 0 147.2 43.2 168.2 15.6 231.6 21.4 292 45.4 274.2 6 313.4 0 320.005 7.662"/><polyline id="Path-7" points="313.2 .4 291.6 45.6 267.2 54.6 231.8 21.6 204.4 53.8"/></g><g id="Group-5" transform="translate(0.000000, 19.400000)"><mask id="mask-2" fill="#fff"><use xlink:href="#path-1"/></mask><use id="Mask" fill="#13161F" xlink:href="#path-1"/><g stroke="#3D3D3D" mask="url(#mask-2)"><g transform="translate(-8.600000, -17.000000)"><polyline id="Path-4" points="8.683 37.743 58.2 16.2 94 37.6 156 43 240 21.8 283 6.4"/><path id="Path-18" d="M84.4,0.2 L57.8,16.4"/><polyline id="Path-3" points="0 22.4 16.6 7 58.4 16.6 30.4 55.2 94 37.2 84.2 0 155.8 43.2 176.8 15.6 240.2 21.4 300.6 45.4 282.8 6 322 0 342 23.2"/><polyline id="Path-7" points="321.8 .4 300.2 45.6 275.8 54.6 240.4 21.6 213 53.8"/></g></g></g><g id="Group-4" transform="translate(5.200000, 0.000000)"><g id="dots" transform="translate(67.800000, 0.000000)"><circle id="Oval-2" cx="2.5" cy="2.5" r="1" fill="#FF7E00"/><circle id="Oval-2" cx="2.5" cy="2.5" r="2.5" stroke="#FF7E00"/></g><g id="dots" transform="translate(40.600000, 5.200000)"><circle id="Oval-2" cx="3.5" cy="13.5" r="1.1" fill="#FF7E00"/><circle id="Oval-2" cx="3.5" cy="13.5" r="3.5" stroke="#FF7E00"/><circle id="Oval-2" cx="101.5" cy="40.5" r="1.1" fill="#FF7E00"/><circle id="Oval-2" cx="101.5" cy="40.5" r="3.5" stroke="#FF7E00"/><circle id="Oval-2" cx="228.3" cy="3.5" r="1.1" fill="#FF7E00"/><circle id="Oval-2" cx="228.3" cy="3.5" r="3.5" stroke="#FF7E00"/></g><g id="dots" transform="translate(223.800000, 21.400000)"><circle id="Oval-2" cx="2.5" cy="2.5" r="1" fill="#C4C4C4"/><circle id="Oval-2" cx="2.5" cy="2.5" r="2.5" stroke="#CACACA"/></g><g id="dots" opacity=".7" transform="translate(197.000000, 53.800000)"><circle id="Oval-2" cx="2.5" cy="2.5" r="1" fill="#C4C4C4"/><circle id="Oval-2" cx="2.5" cy="2.5" r="2.5" stroke="#CACACA"/></g><g id="dots" opacity=".7" transform="translate(283.800000, 45.400000)"><circle id="Oval-2" cx="2.5" cy="2.5" r="1" fill="#C4C4C4"/><circle id="Oval-2" cx="2.5" cy="2.5" r="2.5" stroke="#CACACA"/></g><g id="dots" opacity=".6" transform="translate(14.000000, 55.000000)"><circle id="Oval-2" cx="2.5" cy="2.5" r="1" fill="#C4C4C4"/><circle id="Oval-2" cx="2.5" cy="2.5" r="2.5" stroke="#CACACA"/></g><g id="dots" transform="translate(0.000000, 7.000000)"><circle id="Oval-2" cx="2.5" cy="2.5" r="1" fill="#C4C4C4"/><circle id="Oval-2" cx="2.5" cy="2.5" r="2.5" stroke="#CACACA"/></g><g id="dots" transform="translate(259.200000, 54.600000)"><circle id="Oval-2" cx="2.5" cy="2.5" r="1" fill="#FF7E00"/><circle id="Oval-2" cx="2.5" cy="2.5" r="2.5" stroke="#FF7E00"/></g><g id="dots" transform="translate(77.400000, 37.200000)"><circle id="Oval-2" cx="2.5" cy="2.5" r="1" fill="#FF7E00"/><circle id="Oval-2" cx="2.5" cy="2.5" r="2.5" stroke="#FF7E00"/></g><g id="dots" transform="translate(305.400000, 0.200000)"><circle id="Oval-2" cx="2.5" cy="2.5" r="1" fill="#FF7E00"/><circle id="Oval-2" cx="2.5" cy="2.5" r="2.5" stroke="#FF7E00"/></g><g id="dots" transform="translate(160.200000, 15.600000)"><circle id="Oval-2" cx="2.5" cy="2.5" r="1" fill="#FF7E00"/><circle id="Oval-2" cx="2.5" cy="2.5" r="2.5" stroke="#FF7E00"/></g></g></g></g></g></g></g></g></svg>