<svg xmlns="http://www.w3.org/2000/svg" xmlns:xlink="http://www.w3.org/1999/xlink" width="29" height="30" version="1.1" viewBox="0 0 29 30"><title>icon/decentralized</title><desc>Created with Sketch.</desc><g id="Bitcoin-Core" fill="none" fill-rule="evenodd" stroke="none" stroke-width="1"><g id="Bitcoin.org---Bitcoin-core--Desktop" transform="translate(-615.000000, -695.000000)"><g id="//Content" transform="translate(215.000000, 543.000000)"><g id="Decentralized" transform="translate(400.000000, 152.000000)"><g id="icon/decentralized"><polyline id="Path-4" stroke="#95AABF" points="9.082 20.042 20.196 8.959 17.161 .671"/><polyline id="Path-5" stroke="#95AABF" points="23.303 25.01 9.197 19.83 1.198 15.913"/><path id="Path-6" stroke="#95AABF" d="M9.59960938,19.909668 L5.01708984,29.1967773"/><polyline id="Path-7" stroke="#95AABF" points="28.422 5.834 20.335 9.086 12.067 5.834"/><path id="Path-8" stroke="#95AABF" d="M19.9682617,8.74072266 L23.1445312,15.3442383"/><circle id="Oval-5" cx="23" cy="25" r="1" fill="#F7931A"/><circle id="Oval-5" cx="17" cy="1" r="1" fill="#F7931A"/><circle id="Oval-5" cx="28" cy="6" r="1" fill="#F7931A"/><circle id="Oval-5" cx="23" cy="15" r="1" fill="#F7931A"/><circle id="Oval-5" cx="12" cy="6" r="1" fill="#F7931A"/><circle id="Oval-5" cx="1" cy="16" r="1" fill="#F7931A"/><circle id="Oval-5" cx="5" cy="29" r="1" fill="#F7931A"/><circle id="Oval-5" cx="20" cy="9" r="2" fill="#F7931A"/><circle id="Oval-5" cx="9" cy="20" r="2" fill="#F7931A"/></g></g></g></g></g></svg>