<svg xmlns="http://www.w3.org/2000/svg" xmlns:osb="http://www.openswatchbook.org/uri/2009/osb" xmlns:svg="http://www.w3.org/2000/svg" id="svg2" width="600" height="200" version="1.1"><defs id="defs4"><marker id="Arrow1Mend" orient="auto" refX="0" refY="0" style="overflow:visible"><path id="path5630" d="M 0,0 5,-5 -12.5,0 5,5 0,0 z" transform="matrix(-0.4,0,0,-0.4,-4,0)" style="fill-rule:evenodd;stroke:#000;stroke-width:1pt"/></marker><marker id="Arrow2Mend" orient="auto" refX="0" refY="0" style="overflow:visible"><path id="path5648" d="M 8.7185878,4.0337352 -2.2072895,0.01601326 8.7185884,-4.0017078 c -1.7454984,2.3720609 -1.7354408,5.6174519 -6e-7,8.035443 z" transform="scale(-0.6,-0.6)" style="fill-rule:evenodd;stroke-width:.625;stroke-linejoin:round"/></marker><linearGradient id="linearGradient5582" osb:paint="solid"><stop style="stop-color:#fff;stop-opacity:1" id="stop5584" offset="0"/></linearGradient><filter id="filter6607" width="1" height="1" x="0" y="0" color-interpolation-filters="sRGB"><feColorMatrix id="feColorMatrix6609" result="fbSourceGraphic" type="saturate" values="1"/><feColorMatrix id="feColorMatrix6611" in="fbSourceGraphic" values="-1 0 0 0 1 0 -1 0 0 1 0 0 -1 0 1 0 0 0 1 0"/></filter></defs><metadata id="metadata7"/><g id="layer1" transform="translate(0,-852.36218)"><g id="graph0" class="graph" transform="matrix(0.89211777,0,0,0.89211777,317.44932,909.10228)"><title id="title9216">%3</title><polygon style="fill:#fff;stroke:none" id="polygon9218" points="-317.179 300.279 -317.179 300.279 -317.179 -277.07 293.61 -277.07 293.61 300.279"/><g id="node1" class="node"><title id="title9221">e</title><ellipse style="fill:green;stroke:green" id="ellipse9223" cx="71.031" cy="127.674" d="m 98.030701,127.674 c 0,9.94113 -12.088312,18 -27,18 -14.911689,0 -27,-8.05887 -27,-18 0,-9.94112 12.088311,-18 27,-18 14.911688,0 27,8.05888 27,18 z" rx="27" ry="18"/></g><g id="node5" class="node"><title id="title9226">m</title><ellipse style="fill:green;stroke:green" id="ellipse9228" cx="18.286" cy="143.363" d="m 45.285801,143.36301 c 0,9.94112 -12.088312,18 -27,18 -14.9116883,0 -27.0000001,-8.05888 -27.0000001,-18 0,-9.94113 12.0883118,-18 27.0000001,-18 14.911688,0 27,8.05887 27,18 z" rx="27" ry="18"/></g><g id="edge26" class="edge"><title id="title9231">e--m</title><path style="fill:none;stroke:#000;stroke-width:4" id="path9233" d="m 46.2027,135.059 c -1.0688,0.318 -2.141,0.637 -3.2095,0.955"/></g><g id="node10" class="node"><title id="title9236">f</title><ellipse style="fill:red;stroke:red" id="ellipse9238" cx="85.71" cy="44.049" d="m 112.7103,44.048698 c 0,9.941126 -12.08832,18 -27.000003,18 -14.911689,0 -27,-8.058874 -27,-18 0,-9.941125 12.088311,-18 27,-18 14.911683,0 27.000003,8.058875 27.000003,18 z" rx="27" ry="18"/></g><g id="edge5" class="edge"><title id="title9241">e--f</title><path style="fill:none;stroke:#000;stroke-width:4" id="path9243" d="M 74.2159,109.528 C 76.6782,95.5017 80.0706,76.1765 82.5313,62.1587"/></g><g id="node2" class="node"><title id="title9246">g</title><ellipse style="fill:green;stroke:green" id="ellipse9248" cx="87.792" cy="-37.566" d="m 114.7917,-37.5658 c 0,9.941126 -12.08831,18 -26.999998,18 -14.911688,0 -27,-8.058874 -27,-18 0,-9.941125 12.088312,-18 27,-18 14.911688,0 26.999998,8.058875 26.999998,18 z" rx="27" ry="18"/></g><g id="node6" class="node"><title id="title9251">x</title><ellipse style="fill:green;stroke:green" id="ellipse9253" cx="14.042" cy="-82.111" d="m 41.0416,-82.111 c 0,9.941125 -12.088312,18 -27,18 -14.91168802,0 -27,-8.058875 -27,-18 0,-9.941126 12.08831198,-18 27,-18 14.911688,0 27,8.058874 27,18 z" rx="27" ry="18"/></g><g id="edge27" class="edge"><title id="title9256">g--x</title><path style="fill:none;stroke:#000;stroke-width:4" id="path9258" d="M 67.6391,-49.738 C 57.2329,-56.0234 44.5724,-63.6703 34.1697,-69.9535"/></g><g id="node11" class="node"><title id="title9261">h</title><ellipse style="fill:red;stroke:red" id="ellipse9263" cx="174.431" cy="-46.606" d="m 201.431,-46.605701 c 0,9.941125 -12.08831,18 -27,18 -14.91169,0 -27,-8.058875 -27,-18 0,-9.941126 12.08831,-18 27,-18 14.91169,0 27,8.058874 27,18 z" rx="27" ry="18"/></g><g id="edge7" class="edge"><title id="title9266">g--h</title><path style="fill:none;stroke:#000;stroke-width:4" id="path9268" d="m 114.73,-40.3765 c 10.431,-1.0884 22.349,-2.3319 32.779,-3.4202"/></g><g id="node3" class="node"><title id="title9271">o</title><ellipse style="fill:green;stroke:green" id="ellipse9273" cx="-48.556" cy="-14.527" d="m -21.556198,-14.5268 c 0,9.9411253 -12.088312,17.9999998 -27,17.9999998 -14.911688,0 -27,-8.0588745 -27,-17.9999998 0,-9.941126 12.088312,-18 27,-18 14.911688,0 27,8.058874 27,18 z" rx="27" ry="18"/></g><g id="edge28" class="edge"><title id="title9276">o--x</title><path style="fill:none;stroke:#000;stroke-width:4" id="path9278" d="m -34.3518,-29.8627 c 10.1002,-10.9048 23.6264,-25.5085 33.81075,-36.5041"/></g><g id="node17" class="node"><title id="title9281">p</title><ellipse style="fill:red;stroke:red" id="ellipse9283" cx="-134.391" cy="-18.394" d="m -107.39101,-18.3939 c 0,9.9411256 -12.08831,18.00000008 -27,18.00000008 -14.91168,0 -27,-8.05887448 -27,-18.00000008 0,-9.941125 12.08832,-18 27,-18 14.91169,0 27,8.058875 27,18 z" rx="27" ry="18"/></g><g id="edge15" class="edge"><title id="title9286">o--p</title><path style="fill:none;stroke:#000;stroke-width:4" id="path9288" d="m -75.7148,-15.7504 c -10.1176,-0.4558 -21.5922,-0.9728 -31.6942,-1.4279"/></g><g id="node4" class="node"><title id="title9291">b</title><ellipse style="fill:green;stroke:green" id="ellipse9293" cx="-19.851" cy="219.259" d="m 7.1494999,219.259 c 0,9.94113 -12.0883118,18 -26.9999999,18 -14.911688,0 -27,-8.05887 -27,-18 0,-9.94112 12.088312,-18 27,-18 14.9116881,0 26.9999999,8.05888 26.9999999,18 z" rx="27" ry="18"/></g><g id="edge29" class="edge"><title id="title9296">b--m</title><path style="fill:none;stroke:#000;stroke-width:4" id="path9298" d="M -11.1968,202.037 C -4.95554,189.616 3.43295,172.922 9.6663,160.517"/></g><g id="node8" class="node"><title id="title9301">c</title><ellipse style="fill:red;stroke:red" id="ellipse9303" cx="31.993" cy="278.279" d="m 58.9928,278.27899 c 0,9.94113 -12.088312,18 -27,18 -14.911688,0 -27.0000002,-8.05887 -27.0000002,-18 0,-9.94112 12.0883122,-18 27.0000002,-18 14.911688,0 27,8.05888 27,18 z" rx="27" ry="18"/></g><g id="edge2" class="edge"><title id="title9306">b--c</title><path style="fill:none;stroke:#000;stroke-width:4" id="path9308" d="m -5.95742,235.075 c 7.43834,8.468 16.57462,18.869 24.01882,27.344"/></g><g id="node16" class="node"><title id="title9311">n</title><ellipse style="fill:red;stroke:red" id="ellipse9313" cx="-34.12" cy="72.117" d="m -7.1202011,72.116501 c 0,9.941125 -12.0883119,18 -26.9999999,18 -14.911688,0 -27,-8.058875 -27,-18 0,-9.941126 12.088312,-18 27,-18 14.911688,0 26.9999999,8.058874 26.9999999,18 z" rx="27" ry="18"/></g><g id="edge13" class="edge"><title id="title9316">m--n</title><path style="fill:none;stroke:#000;stroke-width:4" id="path9318" d="M 6.39403,127.196 C -2.06172,115.7 -13.3857,100.305 -21.9119,88.7139"/></g><g id="node25" class="node"><title id="title9321">y</title><ellipse style="fill:red;stroke:red" id="ellipse9323" cx="64.19" cy="-152.677" d="m 91.190498,-152.677 c 0,9.94112 -12.088311,18 -27,18 -14.911688,0 -27,-8.05888 -27,-18 0,-9.94113 12.088312,-18 27,-18 14.911689,0 27,8.05887 27,18 z" rx="27" ry="18"/></g><g id="edge24" class="edge"><title id="title9326">x--y</title><path style="fill:none;stroke:#000;stroke-width:4" id="path9328" d="m 25.6728,-98.4776 c 8.1016,-11.4004 18.8617,-26.5414 26.9495,-37.9214"/></g><g id="node7" class="node"><title id="title9331">a</title><ellipse style="fill:red;stroke:red" id="ellipse9333" cx="-75.23" cy="276.585" d="m -48.229698,276.58499 c 0,9.94113 -12.088312,18 -27,18 -14.911688,0 -27.000002,-8.05887 -27.000002,-18 0,-9.94112 12.088314,-18 27.000002,-18 14.911688,0 27,8.05888 27,18 z" rx="27" ry="18"/></g><g id="edge1" class="edge"><title id="title9336">a--b</title><path style="fill:none;stroke:#000;stroke-width:4" id="path9338" d="m -60.3891,261.223 c 7.9457,-8.225 17.7052,-18.328 25.6571,-26.559"/></g><g id="node9" class="node"><title id="title9341">d</title><ellipse style="fill:red;stroke:red" id="ellipse9343" cx="81.148" cy="220.67" d="m 108.1483,220.67 c 0,9.94112 -12.088312,18 -27,18 -14.911688,0 -27,-8.05888 -27,-18 0,-9.94113 12.088312,-18 27,-18 14.911688,0 27,8.05887 27,18 z" rx="27" ry="18"/></g><g id="edge3" class="edge"><title id="title9346">c--d</title><path style="fill:none;stroke:#000;stroke-width:4" id="path9348" d="m 45.4247,262.537 c 6.936,-8.128 15.3743,-18.018 22.3079,-26.144"/></g><g id="edge4" class="edge"><title id="title9351">d--e</title><path style="fill:none;stroke:#000;stroke-width:4" id="path9353" d="M 79.1494,202.297 C 77.3641,185.888 74.7644,161.993 72.991,145.692"/></g><g id="edge6" class="edge"><title id="title9356">f--g</title><path style="fill:none;stroke:#000;stroke-width:4" id="path9358" d="m 86.1722,25.9358 c 0.345,-13.5249 0.8142,-31.9266 1.1588,-45.4393"/></g><g id="node12" class="node"><title id="title9361">i</title><ellipse style="fill:red;stroke:red" id="ellipse9363" cx="246.235" cy="-5.445" d="m 273.235,-5.44454 c 0,9.9411255 -12.08831,18 -27,18 -14.91169,0 -27,-8.0588745 -27,-18 0,-9.941126 12.08831,-18 27,-18 14.91169,0 27,8.058874 27,18 z" rx="27" ry="18"/></g><g id="edge8" class="edge"><title id="title9366">h--i</title><path style="fill:none;stroke:#000;stroke-width:4" id="path9368" d="m 195.199,-34.7002 c 9.61,5.5084 20.989,12.0317 30.562,17.5191"/></g><g id="node13" class="node"><title id="title9371">j</title><ellipse style="fill:red;stroke:red" id="ellipse9373" cx="262.61" cy="77.733" d="m 289.60999,77.733101 c 0,9.941125 -12.08832,18 -27,18 -14.91169,0 -27,-8.058875 -27,-18 0,-9.941126 12.08831,-18 27,-18 14.91168,0 27,8.058874 27,18 z" rx="27" ry="18"/></g><g id="edge9" class="edge"><title id="title9376">i--j</title><path style="fill:none;stroke:#000;stroke-width:4" id="path9378" d="m 249.788,12.6038 c 2.747,13.9517 6.531,33.1734 9.276,47.1162"/></g><g id="node14" class="node"><title id="title9381">k</title><ellipse style="fill:red;stroke:red" id="ellipse9383" cx="212.735" cy="147.054" d="m 239.735,147.054 c 0,9.94113 -12.08831,18 -27,18 -14.91169,0 -27,-8.05887 -27,-18 0,-9.94112 12.08831,-18 27,-18 14.91169,0 27,8.05888 27,18 z" rx="27" ry="18"/></g><g id="edge10" class="edge"><title id="title9386">j--k</title><path style="fill:none;stroke:#000;stroke-width:4" id="path9388" d="m 250.79,94.1613 c -7.95,11.0507 -18.387,25.5567 -26.32,36.5827"/></g><g id="node15" class="node"><title id="title9391">l</title><ellipse style="fill:red;stroke:red" id="ellipse9393" cx="125.297" cy="159.962" d="m 152.297,159.96201 c 0,9.94112 -12.08831,18 -27,18 -14.91169,0 -27.000003,-8.05888 -27.000003,-18 0,-9.94113 12.088313,-18 27.000003,-18 14.91169,0 27,8.05887 27,18 z" rx="27" ry="18"/></g><g id="edge11" class="edge"><title id="title9396">k--l</title><path style="fill:none;stroke:#000;stroke-width:4" id="path9398" d="m 186.026,150.997 c -10.848,1.601 -23.352,3.447 -34.183,5.046"/></g><g id="edge12" class="edge"><title id="title9401">l--m</title><path style="fill:none;stroke:#000;stroke-width:4" id="path9403" d="M 98.8451,155.859 C 82.3815,153.305 61.2807,150.032 44.8047,147.476"/></g><g id="edge14" class="edge"><title id="title9406">n--o</title><path style="fill:none;stroke:#000;stroke-width:4" id="path9408" d="M -37.1114,54.164 C -39.5889,39.2939 -43.0924,18.2666 -45.5689,3.40277"/></g><g id="node18" class="node"><title id="title9411">q</title><ellipse style="fill:red;stroke:red" id="ellipse9413" cx="-213.725" cy="-40.455" d="m -186.72501,-40.454899 c 0,9.941126 -12.08831,18 -27,18 -14.91168,0 -27,-8.058874 -27,-18 0,-9.941125 12.08832,-18 27,-18 14.91169,0 27,8.058875 27,18 z" rx="27" ry="18"/></g><g id="edge16" class="edge"><title id="title9416">p--q</title><path style="fill:none;stroke:#000;stroke-width:4" id="path9418" d="m -159.492,-25.3742 c -9.352,-2.6004 -19.958,-5.5496 -29.294,-8.1459"/></g><g id="node19" class="node"><title id="title9421">r</title><ellipse style="fill:red;stroke:red" id="ellipse9423" cx="-271.691" cy="-98.255" d="m -244.69101,-98.254799 c 0,9.941126 -12.08831,18 -27,18 -14.91169,0 -27,-8.058874 -27,-18 0,-9.941121 12.08831,-18.000001 27,-18.000001 14.91169,0 27,8.05888 27,18.000001 z" rx="27" ry="18"/></g><g id="edge17" class="edge"><title id="title9426">q--r</title><path style="fill:none;stroke:#000;stroke-width:4" id="path9428" d="m -228.955,-55.6412 c -8.453,-8.4287 -18.938,-18.8835 -27.407,-27.3281"/></g><g id="node20" class="node"><title id="title9431">s</title><ellipse style="fill:red;stroke:red" id="ellipse9433" cx="-286.179" cy="-179.88" d="m -259.17899,-179.88 c 0,9.94112 -12.08831,18 -27,18 -14.91168,0 -27,-8.05888 -27,-18 0,-9.94113 12.08832,-18 27,-18 14.91169,0 27,8.05887 27,18 z" rx="27" ry="18"/></g><g id="edge18" class="edge"><title id="title9436">r--s</title><path style="fill:none;stroke:#000;stroke-width:4" id="path9438" d="m -274.906,-116.37 c -2.401,-13.527 -5.668,-31.931 -8.066,-45.445"/></g><g id="node21" class="node"><title id="title9441">t</title><ellipse style="fill:red;stroke:red" id="ellipse9443" cx="-235.222" cy="-245.757" d="m -208.222,-245.757 c 0,9.94112 -12.08831,18 -27,18 -14.91169,0 -27,-8.05888 -27,-18 0,-9.94113 12.08831,-18 27,-18 14.91169,0 27,8.05887 27,18 z" rx="27" ry="18"/></g><g id="edge19" class="edge"><title id="title9446">s--t</title><path style="fill:none;stroke:#000;stroke-width:4" id="path9448" d="m -273.583,-196.164 c 7.899,-10.212 18.039,-23.321 25.91,-33.496"/></g><g id="node22" class="node"><title id="title9451">u</title><ellipse style="fill:red;stroke:red" id="ellipse9453" cx="-152.943" cy="-255.07" d="m -125.94299,-255.07001 c 0,9.94113 -12.08831,18 -27,18 -14.91169,0 -27,-8.05887 -27,-18 0,-9.94112 12.08831,-18 27,-18 14.91169,0 27,8.05888 27,18 z" rx="27" ry="18"/></g><g id="edge20" class="edge"><title id="title9456">t--u</title><path style="fill:none;stroke:#000;stroke-width:4" id="path9458" d="m -208.281,-248.807 c 9.186,-1.04 19.449,-2.201 28.617,-3.239"/></g><g id="node23" class="node"><title id="title9461">v</title><ellipse style="fill:red;stroke:red" id="ellipse9463" cx="-80.385" cy="-217.749" d="m -53.384697,-217.74899 c 0,9.94112 -12.088312,18 -27,18 -14.911688,0 -27.000003,-8.05888 -27.000003,-18 0,-9.94113 12.088315,-18 27.000003,-18 14.911688,0 27,8.05887 27,18 z" rx="27" ry="18"/></g><g id="edge21" class="edge"><title id="title9466">u--v</title><path style="fill:none;stroke:#000;stroke-width:4" id="path9468" d="m -131.566,-244.075 c 9.364,4.817 20.331,10.457 29.706,15.28"/></g><g id="node24" class="node"><title id="title9471">w</title><ellipse style="fill:red;stroke:red" id="ellipse9473" cx="-32.275" cy="-150.7" d="m -5.2752991,-150.7 c 0,9.94113 -12.0883119,18 -26.9999999,18 -14.911688,0 -27,-8.05887 -27,-18 0,-9.94112 12.088312,-18 27,-18 14.911688,0 26.9999999,8.05888 26.9999999,18 z" rx="27" ry="18"/></g><g id="edge22" class="edge"><title id="title9476">v--w</title><path style="fill:none;stroke:#000;stroke-width:4" id="path9478" d="m -68.4925,-201.175 c 7.4572,10.393 17.0306,23.735 24.4618,34.092"/></g><g id="edge23" class="edge"><title id="title9481">w--x</title><path style="fill:none;stroke:#000;stroke-width:4" id="path9483" d="m -21.0633,-134.097 c 7.2822,10.784 16.73455,24.782 23.99608,35.5354"/></g><g id="node26" class="node"><title id="title9486">z</title><ellipse style="fill:red;stroke:red" id="ellipse9488" cx="109.067" cy="-221.553" d="m 136.067,-221.55299 c 0,9.94112 -12.08831,18 -27,18 -14.911687,0 -26.999999,-8.05888 -26.999999,-18 0,-9.94113 12.088312,-18 26.999999,-18 14.91169,0 27,8.05887 27,18 z" rx="27" ry="18"/></g><g id="edge25" class="edge"><title id="title9491">y--z</title><path style="fill:none;stroke:#000;stroke-width:4" id="path9493" d="m 75.0538,-169.35 c 7.0557,-10.829 16.2141,-24.885 23.2498,-35.683"/></g></g><rect style="fill:#fff;fill-opacity:.77056274;fill-rule:nonzero;stroke:none" id="rect10186" width="612" height="211" x="-4" y="847.362"/><g style="font-size:65.47994995px;font-style:normal;font-weight:400;text-align:start;line-height:125%;letter-spacing:0;word-spacing:0;text-anchor:start;fill:#000;fill-opacity:1;stroke:none;font-family:Sans" id="text5588"><path id="path8043" d="m 33.28351,889.10435 0,6.29861 c -2.451268,-1.17229 -4.763953,-2.04621 -6.938061,-2.62176 -2.174165,-0.57546 -4.273699,-0.86322 -6.298609,-0.86326 -3.517008,4e-5 -6.234679,0.68212 -8.153021,2.04625 -1.8970545,1.3642 -2.845575,3.30387 -2.8455642,5.81902 -1.08e-5,2.11022 0.6287837,3.70885 1.8863852,4.79589 1.278891,1.06578 3.687494,1.92904 7.225815,2.58978 l 3.900661,0.79932 c 4.817181,0.91657 8.36614,2.53652 10.646886,4.85984 2.301993,2.30205 3.453007,5.39273 3.453045,9.27206 -3.8e-5,4.62539 -1.556038,8.13171 -4.668005,10.519 -3.090718,2.38729 -7.630827,3.58093 -13.620341,3.58093 -2.259416,0 -4.668019,-0.25578 -7.225815,-0.76734 -2.5365049,-0.51156 -5.1689156,-1.26825 -7.8972396,-2.27006 l 0,-6.6503 c 2.6217486,1.47074 5.1902141,2.57913 7.7054046,3.32515 2.515165,0.74603 4.987713,1.11905 7.41765,1.11904 3.687487,1e-5 6.533048,-0.72471 8.536693,-2.17414 2.003588,-1.44942 3.005396,-3.51698 3.005427,-6.20269 -3.1e-5,-2.34464 -0.724743,-4.17774 -2.174139,-5.49929 -1.428138,-1.32152 -3.783453,-2.31267 -7.065951,-2.97346 l -3.932634,-0.76734 c -4.817223,-0.95915 -8.3022365,-2.46187 -10.4550506,-4.50814 -2.1528293,-2.04622 -3.2292402,-4.89178 -3.2292358,-8.53669 -4.4e-6,-4.22035 1.4813928,-7.5455 4.4441958,-9.97546 2.9841005,-2.42988 7.0872506,-3.64483 12.3094636,-3.64488 2.238061,5e-5 4.518773,0.20254 6.842143,0.60748 2.323314,0.40503 4.699944,1.01251 7.129897,1.82244"/><path id="path8045" d="m 45.497054,921.14092 0,-21.67744 5.882964,0 0,21.45364 c -1.2e-5,3.38911 0.660755,5.93626 1.982303,7.64145 1.321521,1.6839 3.303822,2.52585 5.946909,2.52584 3.175926,10e-6 5.680446,-1.01246 7.513569,-3.0374 1.854384,-2.02492 2.781589,-4.78522 2.781619,-8.28091 l 0,-20.30262 5.882964,0 0,35.80935 -5.882964,0 0,-5.4993 c -1.428139,2.17415 -3.090714,3.79409 -4.987731,4.85984 -1.87575,1.04444 -4.060545,1.56666 -6.554389,1.56666 -4.113826,0 -7.236483,-1.2789 -9.367981,-3.83671 -2.131516,-2.55781 -3.197269,-6.2986 -3.197263,-11.2224 m 14.803328,-22.5407 0,0"/><path id="path8047" d="m 93.360081,929.90143 0,18.99174 -5.914937,0 0,-49.42969 5.914937,0 0,5.43535 c 1.236262,-2.13148 2.792262,-3.70879 4.668004,-4.73195 1.897024,-1.04441 4.156425,-1.56662 6.778195,-1.56666 4.34825,4e-5 7.8759,1.72656 10.58294,5.17956 2.7283,3.45308 4.09246,7.99319 4.0925,13.62035 -4e-5,5.62719 -1.3642,10.1673 -4.0925,13.62034 -2.70704,3.45304 -6.23469,5.17956 -10.58294,5.17956 -2.62177,0 -4.881171,-0.51156 -6.778195,-1.53468 -1.875742,-1.04444 -3.431742,-2.63241 -4.668004,-4.76392 m 20.014869,-12.5013 c -3e-5,-4.32694 -0.89527,-7.71604 -2.6857,-10.1673 -1.76918,-2.47252 -4.20976,-3.70879 -7.32174,-3.70883 -3.11202,4e-5 -5.56325,1.23631 -7.353701,3.70883 -1.769165,2.45126 -2.65374,5.84036 -2.653728,10.1673 -1.2e-5,4.32697 0.884563,7.72673 2.653728,10.19927 1.790451,2.45124 4.241681,3.67685 7.353701,3.67685 3.11198,0 5.55256,-1.22561 7.32174,-3.67685 1.79043,-2.47254 2.68567,-5.8723 2.6857,-10.19927"/><path id="path8049" d="m 134.9245,929.90143 0,18.99174 -5.91493,0 0,-49.42969 5.91493,0 0,5.43535 c 1.23627,-2.13148 2.79227,-3.70879 4.66801,-4.73195 1.89702,-1.04441 4.15642,-1.56662 6.7782,-1.56666 4.34825,4e-5 7.87589,1.72656 10.58294,5.17956 2.72829,3.45308 4.09246,7.99319 4.09249,13.62035 -3e-5,5.62719 -1.3642,10.1673 -4.09249,13.62034 -2.70705,3.45304 -6.23469,5.17956 -10.58294,5.17956 -2.62178,0 -4.88118,-0.51156 -6.7782,-1.53468 -1.87574,-1.04444 -3.43174,-2.63241 -4.66801,-4.76392 m 20.01487,-12.5013 c -3e-5,-4.32694 -0.89526,-7.71604 -2.6857,-10.1673 -1.76918,-2.47252 -4.20975,-3.70879 -7.32173,-3.70883 -3.11202,4e-5 -5.56326,1.23631 -7.35371,3.70883 -1.76916,2.45126 -2.65374,5.84036 -2.65373,10.1673 -1e-5,4.32697 0.88457,7.72673 2.65373,10.19927 1.79045,2.45124 4.24169,3.67685 7.35371,3.67685 3.11198,0 5.55255,-1.22561 7.32173,-3.67685 1.79044,-2.47254 2.68567,-5.8723 2.6857,-10.19927"/><path id="path8051" d="m 184.67392,903.58795 c -3.15465,3e-5 -5.64851,1.2363 -7.4816,3.70882 -1.8331,2.45126 -2.74965,5.81905 -2.74964,10.10336 -1e-5,4.28434 0.90588,7.66278 2.71767,10.13532 1.83308,2.45124 4.3376,3.67686 7.51357,3.67685 3.13329,10e-6 5.6165,-1.23627 7.44962,-3.70882 1.83307,-2.47254 2.74962,-5.84032 2.74965,-10.10335 -3e-5,-4.24168 -0.91658,-7.59881 -2.74965,-10.07138 -1.83312,-2.49384 -4.31633,-3.74077 -7.44962,-3.7408 m 0,-4.98773 c 5.1156,4e-5 9.13349,1.66261 12.05368,4.98773 2.92013,3.32518 4.38022,7.92924 4.38025,13.81218 -3e-5,5.86166 -1.46012,10.46571 -4.38025,13.81217 -2.92019,3.32516 -6.93808,4.98773 -12.05368,4.98773 -5.13695,0 -9.1655,-1.66257 -12.08566,-4.98773 -2.89885,-3.34646 -4.34828,-7.95051 -4.34827,-13.81217 -1e-5,-5.88294 1.44942,-10.487 4.34827,-13.81218 2.92016,-3.32512 6.94871,-4.98769 12.08566,-4.98773"/><path id="path8053" d="m 231.57777,904.96277 c -0.66079,-0.38364 -1.3855,-0.66073 -2.17413,-0.83129 -0.76737,-0.1918 -1.61997,-0.28772 -2.55781,-0.28775 -3.32518,3e-5 -5.88299,1.0871 -7.67344,3.26121 -1.76916,2.15285 -2.65374,5.25419 -2.65372,9.30403 l 0,18.86386 -5.91494,0 0,-35.80935 5.91494,0 0,5.56324 c 1.23626,-2.17411 2.84554,-3.7834 4.82786,-4.82787 1.98229,-1.06572 4.39089,-1.59859 7.22582,-1.59863 0.40496,4e-5 0.85258,0.032 1.34285,0.0959 0.49022,0.0427 1.03375,0.11727 1.6306,0.2238 l 0.032,6.04283"/><path id="path8055" d="m 243.63145,889.29618 0,10.1673 12.11763,0 0,4.57209 -12.11763,0 0,19.43936 c -1e-5,2.92017 0.39432,4.7959 1.18299,5.62718 0.80996,0.83129 2.44056,1.24694 4.89181,1.24693 l 6.04283,0 0,4.92379 -6.04283,0 c -4.54013,0 -7.67344,-0.84195 -9.39995,-2.52584 -1.72653,-1.7052 -2.58979,-4.79589 -2.58979,-9.27206 l 0,-19.43936 -4.3163,0 0,-4.57209 4.3163,0 0,-10.1673 5.91494,0"/><path id="path8057" d="m 10.231242,971.14612 0,10.1673 12.117628,0 0,4.57208 -12.117628,0 0,19.4394 c -1.2e-5,2.9201 0.394317,4.7959 1.182988,5.6271 0.809959,0.8313 2.440562,1.247 4.891812,1.247 l 6.042828,0 0,4.9238 -6.042828,0 c -4.540127,0 -7.6734418,-0.842 -9.3999535,-2.5259 -1.7265291,-1.7052 -2.5897893,-4.7959 -2.5897832,-9.272 l 0,-19.4394 -4.316305285098839,0 0,-4.57208 4.316305285098839,0 0,-10.1673 5.9149367,0"/><path id="path8059" d="m 59.884739,995.50927 0,21.61353 -5.882964,0 0,-21.4217 c -3e-5,-3.38907 -0.660797,-5.92557 -1.982303,-7.60949 -1.321563,-1.68386 -3.303864,-2.5258 -5.94691,-2.52583 -3.175967,3e-5 -5.680487,1.01249 -7.513568,3.0374 -1.833111,2.02496 -2.749659,4.78526 -2.749647,8.28091 l 0,20.23871 -5.914937,0 0,-49.74945 5.914937,0 0,19.5033 c 1.406783,-2.15279 3.0587,-3.76207 4.955758,-4.82786 1.918339,-1.06572 4.124449,-1.5986 6.618335,-1.59863 4.113784,3e-5 7.225784,1.27894 9.336008,3.83671 2.110159,2.53653 3.165255,6.27732 3.165291,11.2224"/><path id="path8061" d="m 102.31242,997.74735 0,2.87755 -27.048846,0 c 0.255771,4.0499 1.47073,7.1406 3.64488,9.272 2.195439,2.1102 5.243493,3.1653 9.144173,3.1653 2.259374,0 4.444169,-0.2771 6.554389,-0.8312 2.131478,-0.5542 4.24167,-1.3855 6.330584,-2.4939 l 0,5.5632 c -2.110229,0.8953 -4.273709,1.5773 -6.490447,2.0463 -2.216796,0.4689 -4.465535,0.7034 -6.746225,0.7034 -5.71246,0 -10.241912,-1.6626 -13.588369,-4.9878 -3.325159,-3.3251 -4.987734,-7.8226 -4.98773,-13.49241 -4e-6,-5.86163 1.577311,-10.50831 4.731949,-13.94007 3.175937,-3.45301 7.449608,-5.17953 12.821026,-5.17956 4.817184,3e-5 8.621923,1.55603 11.414229,4.668 2.813557,3.09072 4.220347,7.30044 4.220387,12.62919 m -5.882964,-1.72652 c -0.04266,-3.21856 -0.948551,-5.78702 -2.717673,-7.70541 -1.747864,-1.91832 -4.071206,-2.8775 -6.970034,-2.87753 -3.282541,3e-5 -5.914952,0.92723 -7.89724,2.78162 -1.960999,1.85444 -3.090698,4.46553 -3.389099,7.83329 l 20.974046,-0.032"/><path id="path8063" d="m 162.45294,995.50927 0,21.61353 -5.88296,0 0,-21.4217 c -3e-5,-3.38907 -0.6608,-5.92557 -1.9823,-7.60949 -1.32157,-1.68386 -3.30387,-2.5258 -5.94691,-2.52583 -3.17597,3e-5 -5.68049,1.01249 -7.51357,3.0374 -1.83311,2.02496 -2.74966,4.78526 -2.74965,8.28091 l 0,20.23871 -5.91493,0 0,-35.80938 5.91493,0 0,5.56323 c 1.40678,-2.15279 3.0587,-3.76207 4.95576,-4.82786 1.91834,-1.06572 4.12445,-1.5986 6.61833,-1.59863 4.11379,3e-5 7.22579,1.27894 9.33601,3.83671 2.11016,2.53653 3.16526,6.27732 3.16529,11.2224"/><path id="path8065" d="m 204.88063,997.74735 0,2.87755 -27.04885,0 c 0.25577,4.0499 1.47073,7.1406 3.64488,9.272 2.19544,2.1102 5.24349,3.1653 9.14417,3.1653 2.25938,0 4.44417,-0.2771 6.55439,-0.8312 2.13148,-0.5542 4.24167,-1.3855 6.33058,-2.4939 l 0,5.5632 c -2.11022,0.8953 -4.2737,1.5773 -6.49044,2.0463 -2.2168,0.4689 -4.46554,0.7034 -6.74623,0.7034 -5.71246,0 -10.24191,-1.6626 -13.58836,-4.9878 -3.32516,-3.3251 -4.98774,-7.8226 -4.98773,-13.49241 -1e-5,-5.86163 1.57731,-10.50831 4.73195,-13.94007 3.17593,-3.45301 7.4496,-5.17953 12.82102,-5.17956 4.81718,3e-5 8.62192,1.55603 11.41423,4.668 2.81356,3.09072 4.22035,7.30044 4.22039,12.62919 m -5.88297,-1.72652 c -0.0427,-3.21856 -0.94855,-5.78702 -2.71767,-7.70541 -1.74786,-1.91832 -4.07121,-2.8775 -6.97003,-2.87753 -3.28255,3e-5 -5.91496,0.92723 -7.89724,2.78162 -1.961,1.85444 -3.0907,4.46553 -3.3891,7.83329 l 20.97404,-0.032"/><path id="path8067" d="m 220.22749,971.14612 0,10.1673 12.11763,0 0,4.57208 -12.11763,0 0,19.4394 c -10e-6,2.9201 0.39432,4.7959 1.18299,5.6271 0.80996,0.8313 2.44056,1.247 4.89181,1.247 l 6.04283,0 0,4.9238 -6.04283,0 c -4.54013,0 -7.67344,-0.842 -9.39996,-2.5259 -1.72652,-1.7052 -2.58978,-4.7959 -2.58978,-9.272 l 0,-19.4394 -4.3163,0 0,-4.57208 4.3163,0 0,-10.1673 5.91494,0"/><path id="path8069" d="m 236.69339,981.31342 5.88297,0 7.3537,27.94408 7.32173,-27.94408 6.93806,0 7.35371,27.94408 7.32173,-27.94408 5.88297,0 -9.36798,35.80938 -6.93807,0 -7.7054,-29.35091 -7.73738,29.35091 -6.93806,0 -9.36798,-35.80938"/><path id="path8071" d="m 307.57674,985.43789 c -3.15465,3e-5 -5.64852,1.2363 -7.4816,3.70882 -1.83311,2.45126 -2.74966,5.81904 -2.74965,10.10335 -10e-6,4.28434 0.90588,7.66274 2.71768,10.13534 1.83308,2.4512 4.3376,3.6768 7.51357,3.6768 3.13329,0 5.6165,-1.2362 7.44962,-3.7088 1.83307,-2.4725 2.74962,-5.8403 2.74965,-10.10334 -3e-5,-4.24168 -0.91658,-7.5988 -2.74965,-10.07138 -1.83312,-2.49383 -4.31633,-3.74076 -7.44962,-3.74079 m 0,-4.98773 c 5.11559,3e-5 9.13348,1.66261 12.05368,4.98773 2.92013,3.32518 4.38021,7.92923 4.38025,13.81217 -4e-5,5.86164 -1.46012,10.46574 -4.38025,13.81214 -2.9202,3.3252 -6.93809,4.9878 -12.05368,4.9878 -5.13695,0 -9.1655,-1.6626 -12.08566,-4.9878 -2.89886,-3.3464 -4.34828,-7.9505 -4.34828,-13.81214 0,-5.88294 1.44942,-10.48699 4.34828,-13.81217 2.92016,-3.32512 6.94871,-4.9877 12.08566,-4.98773"/><path id="path8073" d="m 354.48058,986.81271 c -0.6608,-0.38364 -1.38551,-0.66074 -2.17414,-0.83129 -0.76737,-0.1918 -1.61997,-0.28772 -2.55781,-0.28775 -3.32518,3e-5 -5.88298,1.0871 -7.67343,3.26121 -1.76917,2.15285 -2.65374,5.25419 -2.65373,9.30403 l 0,18.86389 -5.91494,0 0,-35.80938 5.91494,0 0,5.56323 c 1.23626,-2.1741 2.84555,-3.78339 4.82786,-4.82786 1.98229,-1.06572 4.39089,-1.5986 7.22582,-1.59863 0.40496,3e-5 0.85258,0.032 1.34285,0.0959 0.49022,0.0427 1.03376,0.11727 1.6306,0.22381 l 0.032,6.04283"/><path id="path8075" d="m 360.49142,967.37335 5.91494,0 0,29.38285 17.55298,-15.44278 7.51356,0 -18.99174,16.75366 19.79106,19.05572 -7.67343,0 -18.19243,-17.48907 0,17.48907 -5.91494,0 0,-49.74945"/></g></g></svg>