<svg xmlns="http://www.w3.org/2000/svg" xmlns:xlink="http://www.w3.org/1999/xlink" version="1.1"><metadata>Created by FontForge 20170731 at Mon Oct 1 20:28:13 2012 By Aleksey,,, Copyright (c) 2009-2011 by Accademia di Belle Arti di Urbino and students of MA course of Visual design. Some rights reserved.</metadata><defs><font id="TitilliumWeb-SemiBold" horiz-adv-x="560"><font-face x-height="500" ascent="800" bbox="-224 -300 1062 1101" cap-height="685" descent="-200" font-family="Titillium Web SemiBold" font-stretch="normal" font-weight="600" panose-1="0 0 7 0 0 0 0 0 0 0" underline-position="-140" underline-thickness="30" unicode-range="U+0020-F6C3" units-per-em="1000"/><glyph glyph-name=".notdef" horiz-adv-x="235"/><glyph glyph-name=".null" horiz-adv-x="0"/><glyph glyph-name="nonmarkingreturn" horiz-adv-x="333"/><glyph glyph-name="space" horiz-adv-x="220"/><glyph d="M74 0v140h117v-140h-117zM85 241l-10 444h116l-10 -444h-96z" glyph-name="exclam" horiz-adv-x="266" unicode="!"/><glyph d="M329 453h-95l-4 232h105zM160 453h-96l-4 232h106z" glyph-name="quotedbl" horiz-adv-x="395" unicode="&quot;"/><glyph d="M540 160h-102v-160h-95v160h-126v-160h-95v160h-102v91h102v152h-102v91h102v169h95v-169h126v169h95v-169h102v-91h-102v-152h102v-91zM343 251v152h-126v-152h126z" glyph-name="numbersign" unicode="#"/><glyph d="M503 196q0 -104 -59.5 -155.5t-161.5 -51.5h-8l-14 -116q-64 3 -64 7l14 113q-64 6 -124 18l-20 4l11 86q79 -11 145 -15l27 207q-104 28 -147 69t-43 129t58.5 134t161.5 46h18l17 134h64l-18 -139l128 -18l-9 -86q-71 8 -130 12l-25 -193q101 -29 140 -67t39 -118z M166 491q0 -37 20.5 -56t75.5 -37l23 179q-119 -2 -119 -86zM395 190q0 34 -18.5 53t-65.5 33l-25 -192q109 4 109 106z" glyph-name="dollar" unicode="$"/><glyph d="M138 -6l222 697l62 -21l-222 -696zM20 529q0 142 115.5 142t115.5 -142q0 -72 -30 -108t-85.5 -36t-85.5 36t-30 108zM102 529q0 -40 7.5 -58t26.5 -18t26.5 18t7.5 58t-7.5 57.5t-26.5 17.5t-26.5 -17.5t-7.5 -57.5zM309 133q0 142 115.5 142t115.5 -142q0 -72 -30 -108 t-85.5 -36t-85.5 36t-30 108zM397.5 189.5q-7.5 -17.5 -7.5 -57t7.5 -58t26.5 -18.5t26.5 18t7.5 58.5t-7 57.5t-26.5 17t-27 -17.5z" glyph-name="percent" unicode="%"/><glyph d="M174.5 667q51.5 40 142.5 40t140 -40.5t49 -112t-32 -112.5t-113 -88l122 -121q7 19 14 65.5t9 77.5l105 -2q-14 -122 -49 -205l119 -109l-62 -71l-113 98q-33 -46 -88 -72t-121 -26q-141 0 -200 53t-59 157q0 83 35 128.5t113 74.5q-39 45 -51 76t-12 80q0 69 51.5 109z M285 86q48 0 88 16.5t59 45.5l-189 189q-50 -19 -72.5 -49t-22.5 -80q0 -122 137 -122zM233 536q0 -49 45 -97l22 -23q53 30 74.5 56t21.5 67q0 76 -81.5 76t-81.5 -79z" glyph-name="ampersand" horiz-adv-x="696" unicode="&amp;"/><glyph d="M64 453l-3 232h106l-7 -232h-96z" glyph-name="quotesingle" horiz-adv-x="225" unicode="'"/><glyph d="M163 301q0 -87 23.5 -193.5t47.5 -169.5l24 -63h-103q-14 23 -36 76.5t-37 101t-27 116t-12 151.5t28 195t56 173l28 62h103q-34 -86 -64.5 -224t-30.5 -225z" glyph-name="parenleft" horiz-adv-x="289" unicode="("/><glyph d="M246 301q0 -64 -11.5 -131.5t-28.5 -117.5q-34 -106 -60 -156l-12 -21h-103q11 26 26.5 69.5t42 156.5t26.5 200t-23.5 199.5t-47.5 181.5l-24 68h103q14 -26 36 -84t37 -108.5t27 -121.5t12 -135z" glyph-name="parenright" horiz-adv-x="289" unicode=")"/><glyph d="M382 504h-127l39 -122l-62 -19l-41 123l-105 -79l-40 51l107 79l-104 74l39 54l103 -75l40 123l64 -21l-39 -124h126v-64z" glyph-name="asterisk" horiz-adv-x="423" unicode="*"/><glyph d="M52 202v98h178v179h98v-179h180v-98h-180v-181h-98v181h-178z" glyph-name="plus" unicode="+"/><glyph d="M26 -123l48 247h120l-80 -247h-88z" glyph-name="comma" horiz-adv-x="246" unicode=","/><glyph d="M61 220v99h299v-99h-299z" glyph-name="hyphen" horiz-adv-x="421" unicode="-"/><glyph d="M61 0v144h117v-144h-117z" glyph-name="period" horiz-adv-x="239" unicode="."/><glyph d="M32 9l285 705l96 -35l-286 -704z" glyph-name="slash" horiz-adv-x="443" unicode="/"/><glyph d="M280 671q125 0 187 -80t62 -264.5t-62.5 -261t-187 -76.5t-187 76t-62.5 260.5t62.5 265t187.5 80.5zM280 574q-72 0 -103.5 -54.5t-31.5 -191.5t32.5 -189.5t103 -52.5t102 52.5t31.5 189.5t-31 191.5t-103 54.5z" glyph-name="zero" unicode="0"/><glyph d="M405 660v-660h-111v534l-155 -100l-51 83l215 143h102z" glyph-name="one" unicode="1"/><glyph d="M492 0h-425v95l163 168q74 76 104 119t30 94.5t-29 73.5t-95 22q-62 0 -137 -14l-25 -4l-7 88q97 29 201 29q207 0 207 -184q0 -72 -31.5 -125t-112.5 -128l-141 -137h298v-97z" glyph-name="two" unicode="2"/><glyph d="M66 639q93 32 204 32t161.5 -42.5t50.5 -134.5q0 -40 -15.5 -72t-31.5 -46.5t-40 -30.5q53 -25 76.5 -54.5t23.5 -95.5q0 -105 -52.5 -155.5t-167.5 -50.5q-45 0 -99 7.5t-86 15.5l-31 8l7 86q110 -20 194 -20q120 1 120 106q0 48 -31 73t-82 26h-133v93h133 q37 0 68.5 30.5t31.5 74t-27.5 64.5t-75.5 21q-79 0 -163 -14l-26 -5z" glyph-name="three" unicode="3"/><glyph d="M337 0v118h-297v85l174 457h123l-184 -445h184v194h112v-194h72v-97h-72v-118h-112z" glyph-name="four" unicode="4"/><glyph d="M484 660v-98h-306l-17 -174q68 31 134 31q212 0 212 -198q0 -112 -58.5 -172t-165.5 -60q-45 0 -102 8.5t-91 16.5l-34 9l12 84q118 -20 202 -20q58 0 90 32t32 91t-28 85t-73 26q-81 0 -132 -20l-18 -7l-70 15l18 351h395z" glyph-name="five" unicode="5"/><glyph d="M490 560q-97 14 -176 14t-118 -49t-40 -137l23 8q72 23 121 23q224 0 224 -210q0 -108 -62 -164t-181 -56t-179.5 88.5t-60.5 252.5q0 341 268 341q75 0 162 -18l29 -6zM174 299l-19 -7q2 -206 132 -206q59 0 90.5 32t31.5 89t-31 85.5t-86.5 28.5t-117.5 -22z" glyph-name="six" unicode="6"/><glyph d="M73 560v100h416v-132l-243 -539l-104 30l235 511v30h-304z" glyph-name="seven" unicode="7"/><glyph d="M278 671q110 0 175.5 -45.5t65.5 -130.5q0 -60 -18.5 -90.5t-69.5 -62.5q51 -33 74.5 -67.5t23.5 -95.5q0 -100 -69 -145t-182 -45q-248 0 -248 179q0 67 23 103t73 71q-47 31 -66 64.5t-19 89.5q0 84 63.5 129.5t173.5 45.5zM149 192q0 -103 130.5 -103t130.5 105 q0 69 -84 95h-96q-81 -26 -81 -97zM400 479q0 92 -120 92t-120 -92q0 -60 70 -95h96q74 35 74 95z" glyph-name="eight" unicode="8"/><glyph d="M248 86q152 0 154 192l-24 -8q-76 -26 -122 -26q-108 0 -165 51.5t-57 154.5t63.5 162t172.5 59q125 0 186 -89t61 -263t-68.5 -252t-200.5 -78q-75 0 -162 18l-29 6l10 87q97 -14 181 -14zM265 342q57 0 117 22l21 7q-2 203 -133 203q-57 0 -89 -33t-32 -90 q0 -109 116 -109z" glyph-name="nine" unicode="9"/><glyph d="M61 303v144h117v-144h-117zM61 0v144h117v-144h-117z" glyph-name="colon" horiz-adv-x="239" unicode=":"/><glyph d="M84 124h120l-80 -247h-88zM77 303v144h117v-144h-117z" glyph-name="semicolon" horiz-adv-x="266" unicode=";"/><glyph d="M474 377l-294 -124l294 -130v-112l-410 195v90l410 192v-111z" glyph-name="less" unicode="&lt;"/><glyph d="M61 301v98h438v-98h-438zM61 103v98h438v-98h-438z" glyph-name="equal" unicode="="/><glyph d="M380 253l-294 124v111l410 -192v-90l-410 -195v112z" glyph-name="greater" unicode="&gt;"/><glyph d="M406 534q0 -67 -16.5 -102t-67.5 -75t-67.5 -63.5t-16.5 -50.5v-33h-88q-24 31 -24 78q0 25 19 50t68 65.5t65 63t16 59.5q0 73 -106 73q-60 0 -126 -14l-23 -5l-6 83q93 33 169 33q105 0 154.5 -38.5t49.5 -123.5zM133 0v140h116v-140h-116z" glyph-name="question" horiz-adv-x="441" unicode="?"/><glyph d="M939 305v-10q0 -165 -46 -231.5t-139 -66.5q-45 0 -76.5 14.5t-40.5 28.5l-9 15q-88 -57 -167.5 -57t-127 55.5t-47.5 190t44 196.5t152 62q40 0 86 -18l16 -7v14h108v-184q0 -152 10 -185q3 -12 11 -21t16.5 -11t29.5 -2t37 14q34 31 34 193v11q0 171 -77.5 248 t-250.5 77t-261.5 -93t-88.5 -284.5t81.5 -278t269.5 -86.5l143 9l5 -95q-92 -9 -148 -9q-115 0 -197 22.5t-142 75.5q-120 105 -120 369q0 235 120.5 350t339.5 115q435 0 435 -421zM477 93q42 0 114 34q-7 40 -7 135v130q-50 15 -80 15q-64 0 -86 -36.5t-22 -122.5 q0 -155 81 -155z" glyph-name="at" horiz-adv-x="975" unicode="@"/><glyph d="M20 0l169 685h221l170 -685h-112l-37 147h-263l-37 -147h-111zM275 592l-85 -347h219l-84 347h-50z" glyph-name="A" horiz-adv-x="599" unicode="A"/><glyph d="M79 685h260q105 0 157 -42.5t52 -135.5q0 -61 -19.5 -96t-61.5 -58q98 -38 98 -159q0 -194 -218 -194h-268v685zM339 299h-149v-203h151q55 0 82.5 23t27.5 79t-32 78.5t-80 22.5zM333 589h-143v-196h147q98 0 98 101q0 95 -102 95z" glyph-name="B" horiz-adv-x="612" unicode="B"/><glyph d="M309 -11q-150 0 -203.5 83t-53.5 273t54 270.5t203 80.5q89 0 196 -25l-4 -90q-90 16 -180 16t-122 -53.5t-32 -201t31 -201t121 -53.5t182 15l3 -92q-103 -22 -195 -22z" glyph-name="C" horiz-adv-x="544" unicode="C"/><glyph d="M316 0h-237v685h237q158 0 216 -80t58 -251q0 -87 -11.5 -147.5t-40.5 -109.5q-57 -97 -222 -97zM475 354q0 124 -31 179t-128 55h-126v-490h126q99 0 132 73q16 37 21.5 79t5.5 104z" glyph-name="D" horiz-adv-x="641" unicode="D"/><glyph d="M79 0v685h432v-97h-321v-194h261v-96h-261v-200h321v-98h-432z" glyph-name="E" horiz-adv-x="553" unicode="E"/><glyph d="M79 0v685h425v-97h-314v-231h261v-97h-261v-260h-111z" glyph-name="F" horiz-adv-x="529" unicode="F"/><glyph d="M358 262v98h195v-348q-27 -7 -109.5 -15t-119.5 -8q-156 0 -215 86t-59 269.5t60.5 267.5t209.5 84q88 0 198 -20l35 -7l-4 -88q-121 16 -217 16t-131.5 -54t-35.5 -200t33.5 -201.5t135.5 -55.5q73 0 109 9v167h-85z" glyph-name="G" horiz-adv-x="613" unicode="G"/><glyph d="M486 0v296h-296v-296h-111v685h111v-292h296v292h112v-685h-112z" glyph-name="H" horiz-adv-x="676" unicode="H"/><glyph d="M79 0v685h111v-685h-111z" glyph-name="I" horiz-adv-x="269" unicode="I"/><glyph d="M19 -71v98q53 0 72.5 16t19.5 71v571h110l1 -579q0 -107 -45 -142t-158 -35z" glyph-name="J" horiz-adv-x="296" unicode="J"/><glyph d="M190 0h-111v685h111v-309l102 8l140 301h127l-169 -344l176 -341h-129l-145 286l-102 -7v-279z" glyph-name="K" horiz-adv-x="583" unicode="K"/><glyph d="M463 0h-384v685h111v-586h273v-99z" glyph-name="L" horiz-adv-x="475" unicode="L"/><glyph d="M79 0v685h193l153 -535l153 535h194v-685h-112v562h-15l-162 -534h-116l-162 534h-15v-562h-111z" glyph-name="M" horiz-adv-x="850" unicode="M"/><glyph d="M79 0v685h194l208 -587h15v587h111v-685h-190l-213 588h-14v-588h-111z" glyph-name="N" horiz-adv-x="686" unicode="N"/><glyph d="M328 86q96 0 129.5 58t33.5 194.5t-34.5 198.5t-128.5 62t-129 -62t-35 -197.5t34 -194.5t130 -59zM328 -11q-155 0 -217 84.5t-62 265.5t62.5 269t216.5 88t216 -87.5t62 -269.5t-61.5 -266t-216.5 -84z" glyph-name="O" horiz-adv-x="656" unicode="O"/><glyph d="M330 213h-140v-213h-111v685h251q233 0 233 -230q0 -118 -58.5 -180t-174.5 -62zM190 309h139q120 0 120 146q0 70 -29 102t-91 32h-139v-280z" glyph-name="P" horiz-adv-x="591" unicode="P"/><glyph d="M328 -11q-156 0 -217.5 84t-61.5 265.5t62.5 269.5t216.5 88t216 -87.5t62 -269.5q0 -120 -25.5 -194t-83.5 -113l84 -135l-103 -48l-89 146q-19 -6 -61 -6zM328 86q96 0 129.5 57.5t33.5 194.5t-34.5 199t-128.5 62t-129 -62t-35 -198t34 -194.5t130 -58.5z" glyph-name="Q" horiz-adv-x="656" unicode="Q"/><glyph d="M190 244v-244h-111v685h260q232 0 232 -218q0 -146 -112 -198l113 -269h-122l-99 244h-161zM457 466q0 123 -118 123h-149v-249h151q60 0 88 34.5t28 91.5z" glyph-name="R" horiz-adv-x="618" unicode="R"/><glyph d="M280 599q-127 0 -127 -89q0 -46 30 -65.5t132.5 -48t144.5 -68t42 -124.5q0 -108 -61.5 -161.5t-167.5 -53.5q-85 0 -188 20l-36 7l11 89q135 -18 206 -18q124 0 124 110q0 43 -28 63.5t-126 45t-146 67.5t-48 136t60.5 140.5t167.5 47.5q77 0 182 -18l35 -6l-9 -90 q-140 16 -198 16z" glyph-name="S" horiz-adv-x="543" unicode="S"/><glyph d="M13 586v99h500v-99h-193v-586h-112v586h-195z" glyph-name="T" horiz-adv-x="526" unicode="T"/><glyph d="M185 219q0 -133 140 -133t140 133v466h112v-464q0 -121 -63.5 -176.5t-189 -55.5t-188.5 55.5t-63 176.5v464h112v-466z" glyph-name="U" horiz-adv-x="650" unicode="U"/><glyph d="M458 685h116l-168 -685h-218l-168 685h116l136 -587h50z" glyph-name="V" horiz-adv-x="594" unicode="V"/><glyph d="M24 685h117l98 -589h21l130 587h130l130 -587h22l98 589h117l-135 -685h-179l-118 549l-117 -549h-180z" glyph-name="W" horiz-adv-x="911" unicode="W"/><glyph d="M138 685l147 -270l149 270h117l-203 -348l203 -337h-124l-147 258l-150 -258h-117l204 331l-204 354h125z" glyph-name="X" horiz-adv-x="564" unicode="X"/><glyph d="M331 0h-112v282l-215 403h125l145 -294l146 294h124l-213 -403v-282z" glyph-name="Y" horiz-adv-x="549" unicode="Y"/><glyph d="M42 588v97h450v-107l-318 -462v-19h318v-97h-450v106l317 462v20h-317z" glyph-name="Z" horiz-adv-x="534" unicode="Z"/><glyph d="M306 749v-97h-123v-678h123v-97h-233v872h233z" glyph-name="bracketleft" horiz-adv-x="344" unicode="["/><glyph d="M440 13l-95 -40l-314 697l94 42z" glyph-name="backslash" horiz-adv-x="471" unicode="\"/><glyph d="M38 652v97h233v-872h-233v97h123v678h-123z" glyph-name="bracketright" horiz-adv-x="344" unicode="]"/><glyph d="M400 316l-124 238l-125 -238h-114l190 344h94l193 -344h-114z" glyph-name="asciicircum" unicode="^"/><glyph d="M99 -81h428v-93h-428v93z" glyph-name="underscore" horiz-adv-x="625" unicode="_"/><glyph d="M24 748l236 -101l-26 -71l-244 78z" glyph-name="grave" horiz-adv-x="254" unicode="`"/><glyph d="M436 346v-228q1 -22 11.5 -32.5t32.5 -13.5l-3 -83q-86 0 -133 37q-80 -37 -161 -37q-149 0 -149 159q0 76 40.5 110t124.5 41l129 11v36q0 40 -17.5 56t-51.5 16q-64 0 -160 -8l-32 -2l-4 77q109 26 200.5 26t132 -39.5t40.5 -125.5zM212 222q-69 -6 -69 -75t61 -69 q50 0 106 16l18 6v133z" glyph-name="a" horiz-adv-x="507" unicode="a"/><glyph d="M299 511q103 0 148.5 -57.5t45.5 -203.5t-54 -203.5t-190 -57.5q-47 0 -149 9l-34 3v707h108v-227q69 30 125 30zM249 86q80 0 106.5 37.5t26.5 127.5t-22.5 126.5t-73.5 36.5q-48 0 -96 -15l-16 -5v-304q55 -4 75 -4z" glyph-name="b" horiz-adv-x="536" unicode="b"/><glyph d="M253 511q53 0 125 -14l25 -5l-4 -86q-79 8 -117 8q-76 0 -102 -34t-26 -128t25 -130t104 -36l117 8l3 -87q-101 -18 -152 -18q-114 0 -160.5 61.5t-46.5 201.5t49 199.5t160 59.5z" glyph-name="c" horiz-adv-x="442" unicode="c"/><glyph d="M474 708v-708h-108v26q-73 -37 -134 -37q-98 0 -143.5 59t-45.5 198t50.5 202t157.5 63q36 0 114 -13v210h109zM348 104l17 7v296q-60 10 -111 10q-101 0 -101 -168q0 -92 23.5 -127.5t74.5 -35.5t97 18z" glyph-name="d" horiz-adv-x="540" unicode="d"/><glyph d="M422 90l28 3l2 -81q-114 -23 -202 -23q-111 0 -159.5 61t-48.5 195q0 266 217 266q210 0 210 -229l-7 -78h-310q1 -62 27 -91t97 -29t146 6zM362 288q0 74 -23.5 103.5t-79.5 29.5t-81.5 -31t-26.5 -102h211z" glyph-name="e" horiz-adv-x="508" unicode="e"/><glyph d="M197 407v-407h-108v407h-58v93h58v32q0 107 31 147t110 40l108 -10l-1 -89q-49 2 -81.5 2t-45.5 -19.5t-13 -71.5v-31h132v-93h-132z" glyph-name="f" horiz-adv-x="346" unicode="f"/><glyph d="M503 -68q0 -164 -237 -164q-114 0 -169 31t-55 113q0 37 18 63.5t58 57.5q-33 22 -33 73q0 20 27 65l9 15q-72 43 -72 150q0 90 54 132t146 42q44 0 87 -10l15 -3l155 4v-88l-83 5q27 -35 27 -82q0 -98 -49.5 -135.5t-154.5 -37.5q-26 0 -44 4q-14 -34 -14 -52.5 t18.5 -25.5t89.5 -8q119 -1 163 -32t44 -117zM149 -78q0 -35 28 -50t96 -15q121 0 121 69q0 39 -21.5 49.5t-85.5 11.5l-98 6q-22 -18 -31 -33.5t-9 -37.5zM179 268.5q22 -21.5 71 -21.5t70.5 21.5t21.5 67.5t-22 67.5t-71 21.5q-92 0 -92 -89q0 -46 22 -67.5z" glyph-name="g" horiz-adv-x="525" unicode="g"/><glyph d="M175 0h-109v708h109v-234q74 37 137 37q100 0 136.5 -56.5t36.5 -186.5v-268h-109v265q0 81 -17 115t-72 34q-48 0 -96 -16l-16 -6v-392z" glyph-name="h" horiz-adv-x="546" unicode="h"/><glyph d="M66 0v500h109v-500h-109zM66 585v115h109v-115h-109z" glyph-name="i" horiz-adv-x="241" unicode="i"/><glyph d="M67 19v481h108v-482q0 -98 -34.5 -145t-138.5 -100l-43 81q70 44 89 71.5t19 93.5zM67 585v115h108v-115h-108z" glyph-name="j" horiz-adv-x="242" unicode="j"/><glyph d="M175 0h-109v708h109v-409l62 6l118 195h122l-144 -234l152 -266h-123l-122 211l-65 -7v-204z" glyph-name="k" horiz-adv-x="499" unicode="k"/><glyph d="M72 0v708h109v-708h-109z" glyph-name="l" horiz-adv-x="253" unicode="l"/><glyph d="M175 0h-109v500h108v-31q71 42 130 42q87 0 127 -49q91 49 181 49t127 -55.5t37 -187.5v-268h-108v265q0 81 -16.5 115t-68.5 34q-45 0 -97 -20l-17 -7q8 -20 8 -128v-259h-108v257q0 89 -16 123t-70 34q-50 0 -93 -20l-15 -6v-388z" glyph-name="m" horiz-adv-x="838" unicode="m"/><glyph d="M175 0h-109v500h108v-31q73 42 138 42q100 0 136.5 -56.5t36.5 -186.5v-268h-108v265q0 81 -17.5 115t-71.5 34q-51 0 -98 -20l-15 -6v-388z" glyph-name="n" horiz-adv-x="546" unicode="n"/><glyph d="M265 511q120 0 171.5 -65t51.5 -195t-50 -196t-173 -66t-173 66t-50 196t51.5 195t171.5 65zM265 81q67 0 90 40t23 131t-24.5 129t-88.5 38t-88.5 -38t-24.5 -129t23 -131t90 -40z" glyph-name="o" horiz-adv-x="530" unicode="o"/><glyph d="M66 -215v715h108v-31q69 42 129 42q99 0 145 -60.5t46 -203t-52.5 -200.5t-171.5 -58q-41 0 -95 9v-213h-109zM284 414q-47 0 -94 -21l-15 -7v-295q40 -8 88 -8q68 0 94 39t26 133q0 159 -99 159z" glyph-name="p" horiz-adv-x="537" unicode="p"/><glyph d="M239 -11q-103 0 -149.5 58t-46.5 203.5t54.5 203t188.5 57.5q49 0 150 -9l33 -3v-714h-108v234q-67 -30 -122 -30zM286 417q-79 0 -106.5 -39.5t-27.5 -128.5t24.5 -126t75.5 -37q47 0 94 15l15 5v307q-48 4 -75 4z" glyph-name="q" horiz-adv-x="535" unicode="q"/><glyph d="M66 0v500h108v-60q85 55 170 71v-109q-86 -17 -147 -44l-22 -9v-349h-109z" glyph-name="r" horiz-adv-x="361" unicode="r"/><glyph d="M413 397q-118 16 -171 16t-73.5 -12.5t-20.5 -39.5t22.5 -38t106 -25.5t118.5 -45.5t35 -110t-50.5 -116t-147.5 -37q-61 0 -154 17l-31 5l4 91q120 -16 173 -16t75.5 13t22.5 43t-21.5 41.5t-103 25t-119.5 42.5t-38 106t52.5 115t134.5 38q64 0 157 -16l31 -6z" glyph-name="s" horiz-adv-x="469" unicode="s"/><glyph d="M335 407h-138v-220q0 -61 9 -81t46 -20l82 3l5 -87q-67 -13 -102 -13q-85 0 -116.5 39t-31.5 147v232h-64v93h64v145h108v-145h138v-93z" glyph-name="t" horiz-adv-x="358" unicode="t"/><glyph d="M369 500h108v-500h-108v31q-73 -42 -135 -42q-103 0 -138 55.5t-35 194.5v261h109v-262q0 -90 15 -121t70 -31q54 0 99 20l15 6v388z" glyph-name="u" horiz-adv-x="543" unicode="u"/><glyph d="M19 500h114l96 -407h32l100 407h111l-130 -500h-194z" glyph-name="v" horiz-adv-x="491" unicode="v"/><glyph d="M27 500h107l79 -407h20l95 397h112l95 -397h20l78 407h108l-106 -500h-173l-78 343l-78 -343h-173z" glyph-name="w" horiz-adv-x="768" unicode="w"/><glyph d="M18 500h116l98 -173l99 173h116l-149 -246l149 -254h-116l-99 171l-98 -171h-116l145 251z" glyph-name="x" horiz-adv-x="464" unicode="x"/><glyph d="M20 500h107l106 -407h27l106 407h108l-190 -715h-107l60 215h-86z" glyph-name="y" horiz-adv-x="492" unicode="y"/><glyph d="M41 403v97h371v-97l-240 -306h240v-97h-371v97l241 306h-241z" glyph-name="z" horiz-adv-x="454" unicode="z"/><glyph d="M228 575l7 -125q0 -63 -21 -91t-88 -46q66 -17 87.5 -47.5t21.5 -94.5l-7 -117q0 -43 19 -66.5t71 -26.5v-92q-107 4 -151.5 43.5t-44.5 129.5l7 121q0 77 -110 107v85q57 13 83.5 37.5t26.5 63.5l-7 127q0 94 44.5 132.5t152.5 42.5l1 -92q-53 -4 -72.5 -26t-19.5 -65z" glyph-name="braceleft" horiz-adv-x="357" unicode="{"/><glyph d="M72 -215v923h108v-923h-108z" glyph-name="bar" horiz-adv-x="252" unicode="|"/><glyph d="M129 54l-7 117q0 64 21.5 94.5t87.5 47.5q-67 18 -88 46t-21 91l7 125q0 43 -19.5 65t-72.5 26l1 92q108 -4 152.5 -42.5t44.5 -132.5l-7 -127q0 -39 26.5 -63.5t83.5 -37.5v-85q-110 -30 -110 -107l7 -121q0 -90 -44.5 -129.5t-151.5 -43.5v92q52 3 71 26.5t19 66.5z" glyph-name="braceright" horiz-adv-x="357" unicode="}"/><glyph d="M381.5 181q-27.5 0 -105 25.5t-96.5 25.5t-45.5 -10.5t-43.5 -21.5l-17 -10l-10 88q62 52 120 52q28 0 103 -25.5t95 -25.5q35 0 88 31l17 10l9 -87q-18 -18 -52.5 -35t-62 -17z" glyph-name="asciitilde" unicode="~"/><glyph glyph-name="uni00A0" horiz-adv-x="220"/><glyph d="M183 500v-140h-117v140h117zM172 259l10 -444h-116l10 444h96z" glyph-name="exclamdown" horiz-adv-x="248" unicode="¡"/><glyph d="M274 -78v110q-91 5 -136 56t-45 161q0 206 180 219v108h91v-112l88 -12l-3 -83q-79 5 -122 5q-68 0 -95.5 -29t-27.5 -96.5t27.5 -95t98.5 -27.5l120 5l3 -83q-48 -10 -89 -12v-114h-90z" glyph-name="cent" unicode="¢"/><glyph d="M456 564q-73 9 -118.5 9t-60 -20.5t-14.5 -74.5v-52h160v-93h-160v-240h137l72 16l17 -91l-81 -18h-331v93h79v240h-66v93h66v57q0 109 37 148t121 39q59 0 124 -15l21 -5z" glyph-name="sterling" unicode="£"/><glyph d="M371 86q-43 -24 -91.5 -24t-91.5 24l-71 -72l-75 75l72 71q-24 40 -24 90t24 93l-72 72l75 75l71 -72q43 24 91.5 24t91.5 -24l72 72l75 -75l-72 -72q24 -43 24 -91.5t-24 -91.5l72 -71l-75 -75zM280 154q40 0 69 29t29 69t-29 69t-69 29t-69 -29t-29 -69t29 -69t69 -29z" glyph-name="currency" unicode="¤"/><glyph d="M58 301v92h112l-157 267h124l144 -236l143 236h124l-156 -267h110v-92h-161l-4 -18v-45h165v-92h-165v-146h-111v146h-168v92h168v45l-3 18h-165z" glyph-name="yen" unicode="¥"/><glyph d="M74 708h108v-373h-108v373zM74 164h108v-379h-108v379z" glyph-name="brokenbar" horiz-adv-x="256" unicode="¦"/><glyph d="M433 534q-111 16 -165.5 16t-78 -17.5t-23.5 -55t29 -52.5t114 -33.5t118.5 -47.5t33.5 -99.5t-47 -135.5q37 -32 37 -115q0 -167 -205 -167q-54 0 -152 16l-30 5l11 88q108 -15 163 -15q109 0 109 75q0 35 -25 48t-70 23t-47 11q-89 20 -125.5 51.5t-36.5 101.5 q0 36 20.5 75t41.5 56q-44 32 -44 109q0 173 206 173q66 0 143 -16l28 -5zM177 325q-25 -37 -25 -73.5t17.5 -51t71.5 -27t89 -25.5q6 8 13.5 33.5t7.5 53.5t-20 42.5t-85 30.5t-69 17z" glyph-name="section" horiz-adv-x="509" unicode="§"/><glyph d="M-22 607v114h104v-114h-104zM187 607v114h104v-114h-104z" glyph-name="dieresis" horiz-adv-x="254" unicode="¨"/><glyph d="M128.5 235.5q-76.5 80.5 -76.5 199.5t76.5 198.5t195 79.5t193.5 -81t75 -199.5t-75 -198t-193.5 -79.5t-195 80.5zM106 434q0 -94 61.5 -160t154 -66t154.5 65.5t62 160t-62.5 161t-154 66.5t-153.5 -66.5t-62 -160.5zM331 595q38 0 79 -13l-6 -72q-36 7 -65.5 7 t-39 -17.5t-9.5 -63t10 -65.5t36 -20l68 6l6 -69q-32 -16 -90.5 -16t-86.5 36.5t-28 125.5t29 125t97 36z" glyph-name="copyright" horiz-adv-x="644" unicode="©"/><glyph d="M330 551v-139q8 -10 23 -12l-2 -68q-55 0 -75.5 7t-32.5 23q-48 -29 -96 -29t-74 27.5t-26 74.5q0 88 114 94l76 4v23q0 26 -46 26l-124 -7l-3 63q70 21 135 21t98 -23.5t33 -84.5zM177 470q-36 -3 -36 -33.5t33 -30.5q25 0 54 12l9 4v52z" glyph-name="ordfeminine" horiz-adv-x="403" unicode="ª"/><glyph d="M251 330l-116 -83l116 -94v-111l-209 162v81l209 155v-110zM514 330l-116 -83l116 -94v-111l-209 162v81l209 155v-110z" glyph-name="guillemotleft" horiz-adv-x="574" unicode="«"/><glyph d="M61 351h432v-241h-98v144h-334v97z" glyph-name="logicalnot" unicode="¬"/><glyph d="M129 235.5q-77 80.5 -77 199.5t76.5 198.5t195 79.5t193.5 -81t75 -199.5t-75 -198t-193 -79.5t-195 80.5zM106 434q0 -94 62.5 -160t154.5 -66t153.5 65.5t61.5 160t-62.5 161t-154 66.5t-153.5 -66.5t-62 -160.5zM286 378v-99h-80v309h125q114 0 114 -100 q0 -38 -9.5 -59.5t-34.5 -37.5l48 -112h-84l-37 99h-42zM285 527v-89h41q42 0 42 44.5t-47 44.5h-36z" glyph-name="registered" horiz-adv-x="644" unicode="®"/><glyph d="M-9 609v82h282v-82h-282z" glyph-name="macron" horiz-adv-x="254" unicode="¯"/><glyph d="M134 550q0 65 40.5 105.5t105.5 40.5t105.5 -40.5t40.5 -105.5t-40.5 -105t-105.5 -40t-105.5 40t-40.5 105zM198 550q0 -37 22.5 -60t59.5 -23t60.5 23t23.5 60t-23.5 60.5t-60.5 23.5t-59.5 -23.5t-22.5 -60.5z" glyph-name="degree" unicode="°"/><glyph d="M52 280v98h178v115h98v-115h180v-98h-180v-112h-98v112h-178zM52 125h456v-98h-456v98z" glyph-name="plusminus" unicode="±"/><glyph d="M246 478h-221v75l79 71q48 41 48 68q0 25 -42 25l-79 -7l-4 80q67 10 118 10t75 -22.5t24 -64.5t-13 -65.5t-45 -48.5l-49 -42h109v-79z" glyph-name="twosuperior" horiz-adv-x="280" unicode="²"/><glyph d="M134 800q114 0 114 -86q0 -53 -34 -72q41 -16 41 -75q0 -99 -113 -99l-118 8l6 77q59 -7 96.5 -7t37.5 28q0 26 -35 26h-66v72h65q12 0 20 7t8 19q0 24 -35 24l-87 -6l-6 75q65 9 106 9z" glyph-name="threesuperior" horiz-adv-x="280" unicode="³"/><glyph d="M14 647l236 101l34 -94l-244 -78z" glyph-name="acute" horiz-adv-x="268" unicode="´"/><glyph d="M380 500h108v-500h-108v31q-73 -42 -135 -42q-39 0 -64 7v-211h-109v715h109v-286q1 -74 17 -101t68 -27q54 0 99 20l15 6v388z" glyph-name="mu" unicode="µ"/><glyph d="M403 0v592h-85v-592h-94v303h-7q-82 0 -134 53t-52 137t52.5 138t135.5 54h330v-93h-52v-592h-94z" glyph-name="paragraph" horiz-adv-x="596" unicode="¶"/><glyph d="M61 194v144h117v-144h-117z" glyph-name="periodcentered" horiz-adv-x="239" unicode="·"/><glyph d="M201 -60q28 -17 28 -68t-27.5 -77t-76.5 -26q-38 0 -77 7l-13 3l4 65q34 -2 55 -2q41 0 41 31q0 15 -9.5 21t-31.5 6h-31v101h47v-43q63 -1 91 -18z" glyph-name="cedilla" horiz-adv-x="264" unicode="¸"/><glyph d="M204 790v-312h-88v215l-56 -38l-41 62l105 73h80z" glyph-name="onesuperior" horiz-adv-x="280" unicode="¹"/><glyph d="M201.5 659q155.5 0 155.5 -163t-155.5 -163t-155.5 163t155.5 163zM202 419q32 0 44 18t12 60t-11.5 59.5t-44 17.5t-46 -18t-13.5 -59t13.5 -59.5t45.5 -18.5z" glyph-name="ordmasculine" horiz-adv-x="403" unicode="º"/><glyph d="M439 247l-116 83v110l209 -155v-81l-209 -162v111zM176 247l-116 83v110l209 -155v-81l-209 -162v111z" glyph-name="guillemotright" horiz-adv-x="575" unicode="»"/><glyph d="M211 790v-312h-88v215l-56 -38l-41 62l105 73h80zM32 29l393 631l47 -30l-393 -633zM410 -100v41h-136v73l52 198h98l-61 -192h47l10 89h77v-89h18v-79h-18v-41h-87z" glyph-name="onequarter" horiz-adv-x="542" unicode="¼"/><glyph d="M213 790v-312h-88v215l-56 -38l-41 62l105 73h80zM31 29l393 631l47 -30l-393 -633zM501 -100h-221v75l79 71q48 41 48 68q0 25 -42 25l-79 -7l-4 80q67 10 118 10t75 -22.5t24 -64.5t-13 -65.5t-45 -48.5l-49 -42h109v-79z" glyph-name="onehalf" horiz-adv-x="536" unicode="½"/><glyph d="M151 800q114 0 114 -86q0 -53 -34 -72q41 -16 41 -75q0 -99 -113 -99l-118 8l6 77q59 -7 96.5 -7t37.5 28q0 26 -35 26h-66v72h65q12 0 20 7t8 19q0 24 -35 24l-87 -6l-6 75q65 9 106 9zM47 29l393 631l47 -30l-393 -633zM426 -100v41h-136v73l52 198h98l-61 -192h47 l10 89h77v-89h18v-79h-18v-41h-87z" glyph-name="threequarters" horiz-adv-x="556" unicode="¾"/><glyph d="M32 -34q0 67 16.5 102t67.5 75t67.5 63.5t16.5 50.5v33h88q24 -31 24 -78q0 -25 -19 -50t-68 -65.5t-65 -63t-16 -59.5q0 -73 106 -73q60 0 126 14l23 5l6 -83q-93 -33 -169 -33q-105 0 -154.5 38.5t-49.5 123.5zM305 500v-140h-116v140h116z" glyph-name="questiondown" horiz-adv-x="437" unicode="¿"/><glyph d="M20 0l169 685h221l170 -685h-112l-37 147h-263l-37 -147h-111zM275 592l-85 -347h219l-84 347h-50zM186 939l236 -103l-28 -76l-243 82z" glyph-name="Agrave" horiz-adv-x="599" unicode="À"/><glyph d="M20 0l169 685h221l170 -685h-112l-37 147h-263l-37 -147h-111zM275 592l-85 -347h219l-84 347h-50zM172 836l236 103l35 -97l-243 -82z" glyph-name="Aacute" horiz-adv-x="599" unicode="Á"/><glyph d="M20 0l169 685h221l170 -685h-112l-37 147h-263l-37 -147h-111zM275 592l-85 -347h219l-84 347h-50zM117 776l134 143h94l134 -143h-116l-64 67l-65 -67h-117z" glyph-name="Acircumflex" horiz-adv-x="599" unicode="Â"/><glyph d="M20 0l169 685h221l170 -685h-112l-37 147h-263l-37 -147h-111zM275 592l-85 -347h219l-84 347h-50zM376 777q-24 0 -87 25t-76 25q-25 0 -64 -33l-13 -11l-24 78q6 7 15.5 17.5t36 27.5t52.5 17t87.5 -25t72.5 -25q22 0 62 33l14 11l24 -79q-15 -21 -45.5 -41t-54.5 -20z" glyph-name="Atilde" horiz-adv-x="599" unicode="Ã"/><glyph d="M20 0l169 685h221l170 -685h-112l-37 147h-263l-37 -147h-111zM275 592l-85 -347h219l-84 347h-50zM142 783v114h104v-114h-104zM351 783v114h104v-114h-104z" glyph-name="Adieresis" horiz-adv-x="599" unicode="Ä"/><glyph d="M436 731q0 -38 -21 -67l165 -664h-112l-37 147h-263l-37 -147h-111l164 664q-21 29 -21 67q0 54 39 85.5t97.5 31.5t97.5 -31.5t39 -85.5zM275 592l-85 -347h219l-84 347h-50zM239 731q0 -22 16 -34t44 -12t44.5 12t16.5 34t-16.5 34.5t-44.5 12.5t-44 -12.5t-16 -34.5z" glyph-name="Aring" horiz-adv-x="599" unicode="Å"/><glyph d="M399 0v142h-229l-42 -142h-113l202 693h612v-107h-320v-181h260v-105h-260v-193h320v-107h-430zM296 586l-98 -337h201l1 337h-104z" glyph-name="AE" horiz-adv-x="873" unicode="Æ"/><glyph d="M409 -60q28 -17 28 -68t-27.5 -77t-76.5 -26q-38 0 -77 7l-13 3l4 65q34 -2 55 -2q41 0 41 31q0 15 -9.5 21t-31.5 6h-31v91q-126 9 -172.5 92.5t-46.5 267.5t54 264.5t203 80.5q89 0 196 -25l-4 -90q-90 16 -180 16t-122 -53.5t-32 -201t31 -201t121 -53.5t182 15l3 -92 q-92 -20 -186 -22v-31q63 -1 91 -18z" glyph-name="Ccedilla" horiz-adv-x="544" unicode="Ç"/><glyph d="M79 0v685h432v-97h-321v-194h261v-96h-261v-200h321v-98h-432zM187 939l236 -103l-28 -76l-243 82z" glyph-name="Egrave" horiz-adv-x="553" unicode="È"/><glyph d="M79 0v685h432v-97h-321v-194h261v-96h-261v-200h321v-98h-432zM164 836l236 103l35 -97l-243 -82z" glyph-name="Eacute" horiz-adv-x="553" unicode="É"/><glyph d="M79 0v685h432v-97h-321v-194h261v-96h-261v-200h321v-98h-432zM115 776l134 143h94l134 -143h-116l-64 67l-65 -67h-117z" glyph-name="Ecircumflex" horiz-adv-x="553" unicode="Ê"/><glyph d="M79 0v685h432v-97h-321v-194h261v-96h-261v-200h321v-98h-432zM138 783v114h104v-114h-104zM347 783v114h104v-114h-104z" glyph-name="Edieresis" horiz-adv-x="553" unicode="Ë"/><glyph d="M79 0v685h111v-685h-111zM12 939l236 -103l-28 -76l-243 82z" glyph-name="Igrave" horiz-adv-x="269" unicode="Ì"/><glyph d="M79 0v685h111v-685h-111zM10 836l236 103l35 -97l-243 -82z" glyph-name="Iacute" horiz-adv-x="269" unicode="Í"/><glyph d="M79 0v685h111v-685h-111zM-49 776l134 143h94l134 -143h-116l-64 67l-65 -67h-117z" glyph-name="Icircumflex" horiz-adv-x="269" unicode="Î"/><glyph d="M79 0v685h111v-685h-111zM-22 783v114h104v-114h-104zM187 783v114h104v-114h-104z" glyph-name="Idieresis" horiz-adv-x="269" unicode="Ï"/><glyph d="M23 292v106h60v295h235q162 0 221 -87q30 -45 42 -103.5t12 -145t-11.5 -148t-40.5 -111.5q-58 -98 -223 -98h-235v292h-60zM478 359q0 119 -31.5 173.5t-128.5 54.5h-125v-189h142v-106h-142v-186h125q100 0 132 73q17 37 22.5 78t5.5 102z" glyph-name="Eth" horiz-adv-x="644" unicode="Ð"/><glyph d="M79 0v685h194l208 -587h15v587h111v-685h-190l-213 588h-14v-588h-111zM421 777q-24 0 -87 25t-76 25q-25 0 -64 -33l-13 -11l-24 78q6 7 15.5 17.5t36 27.5t52.5 17t87.5 -25t72.5 -25q22 0 63 33l13 11l24 -79q-15 -21 -45.5 -41t-54.5 -20z" glyph-name="Ntilde" horiz-adv-x="686" unicode="Ñ"/><glyph d="M328 86q96 0 129.5 58t33.5 194.5t-34.5 198.5t-128.5 62t-129 -62t-35 -197.5t34 -194.5t130 -59zM328 -11q-155 0 -217 84.5t-62 265.5t62.5 269t216.5 88t216 -87.5t62 -269.5t-61.5 -266t-216.5 -84zM214 939l236 -103l-28 -76l-243 82z" glyph-name="Ograve" horiz-adv-x="656" unicode="Ò"/><glyph d="M328 86q96 0 129.5 58t33.5 194.5t-34.5 198.5t-128.5 62t-129 -62t-35 -197.5t34 -194.5t130 -59zM328 -11q-155 0 -217 84.5t-62 265.5t62.5 269t216.5 88t216 -87.5t62 -269.5t-61.5 -266t-216.5 -84zM181 836l236 103l35 -97l-243 -82z" glyph-name="Oacute" horiz-adv-x="656" unicode="Ó"/><glyph d="M328 86q96 0 129.5 58t33.5 194.5t-34.5 198.5t-128.5 62t-129 -62t-35 -197.5t34 -194.5t130 -59zM328 -11q-155 0 -217 84.5t-62 265.5t62.5 269t216.5 88t216 -87.5t62 -269.5t-61.5 -266t-216.5 -84zM148 776l134 143h94l134 -143h-116l-64 67l-65 -67h-117z" glyph-name="Ocircumflex" horiz-adv-x="656" unicode="Ô"/><glyph d="M328 86q96 0 129.5 58t33.5 194.5t-34.5 198.5t-128.5 62t-129 -62t-35 -197.5t34 -194.5t130 -59zM328 -11q-155 0 -217 84.5t-62 265.5t62.5 269t216.5 88t216 -87.5t62 -269.5t-61.5 -266t-216.5 -84zM408 777q-24 0 -87 25t-76 25q-25 0 -64 -33l-13 -11l-24 78 q6 7 15.5 17.5t36 27.5t52.5 17t87.5 -25t72.5 -25q22 0 62 33l14 11l24 -79q-15 -21 -45.5 -41t-54.5 -20z" glyph-name="Otilde" horiz-adv-x="656" unicode="Õ"/><glyph d="M328 86q96 0 129.5 58t33.5 194.5t-34.5 198.5t-128.5 62t-129 -62t-35 -197.5t34 -194.5t130 -59zM328 -11q-155 0 -217 84.5t-62 265.5t62.5 269t216.5 88t216 -87.5t62 -269.5t-61.5 -266t-216.5 -84zM172 783v114h104v-114h-104zM381 783v114h104v-114h-104z" glyph-name="Odieresis" horiz-adv-x="656" unicode="Ö"/><glyph d="M132 467l148 -150l149 151l68 -69l-151 -149l151 -148l-69 -69l-148 151l-148 -151l-70 69l151 148l-150 148z" glyph-name="multiply" unicode="×"/><glyph d="M328 -11q-60 0 -107 12l-57 -123l-80 39l58 124q-93 75 -93 298q0 181 62.5 269t216.5 88q61 0 112 -16l58 125l82 -35l-62 -133q88 -80 88 -298q0 -182 -61.5 -266t-216.5 -84zM199 537q-35 -62 -35 -196t30 -189l203 436q-30 11 -69 11q-94 0 -129 -62zM328 86 q96 0 129.5 58t33.5 188.5t-27 189.5l-199 -428q29 -8 63 -8z" glyph-name="Oslash" horiz-adv-x="656" unicode="Ø"/><glyph d="M185 219q0 -133 140 -133t140 133v466h112v-464q0 -121 -63.5 -176.5t-189 -55.5t-188.5 55.5t-63 176.5v464h112v-466zM219 939l236 -103l-28 -76l-243 82z" glyph-name="Ugrave" horiz-adv-x="650" unicode="Ù"/><glyph d="M185 219q0 -133 140 -133t140 133v466h112v-464q0 -121 -63.5 -176.5t-189 -55.5t-188.5 55.5t-63 176.5v464h112v-466zM185 836l236 103l35 -97l-243 -82z" glyph-name="Uacute" horiz-adv-x="650" unicode="Ú"/><glyph d="M185 219q0 -133 140 -133t140 133v466h112v-464q0 -121 -63.5 -176.5t-189 -55.5t-188.5 55.5t-63 176.5v464h112v-466zM144 776l134 143h94l134 -143h-116l-64 67l-65 -67h-117z" glyph-name="Ucircumflex" horiz-adv-x="650" unicode="Û"/><glyph d="M185 219q0 -133 140 -133t140 133v466h112v-464q0 -121 -63.5 -176.5t-189 -55.5t-188.5 55.5t-63 176.5v464h112v-466zM169 783v114h104v-114h-104zM378 783v114h104v-114h-104z" glyph-name="Udieresis" horiz-adv-x="650" unicode="Ü"/><glyph d="M331 0h-112v282l-215 403h125l145 -294l146 294h124l-213 -403v-282zM148 836l236 103l35 -97l-243 -82z" glyph-name="Yacute" horiz-adv-x="549" unicode="Ý"/><glyph d="M329 216q61 0 91.5 37t30.5 102.5t-30 96t-92 30.5h-139v-266h139zM330 108h-140v-108h-111v693h111v-105h140q234 0 234 -231q0 -119 -59.5 -184t-174.5 -65z" glyph-name="Thorn" horiz-adv-x="597" unicode="Þ"/><glyph d="M175 0h-109v532q0 102 50 144.5t163 42.5t165 -35.5t52 -116.5q0 -53 -20.5 -79.5t-62.5 -45.5t-53 -28t-11 -23t16.5 -26.5t81.5 -43.5t92.5 -62t27.5 -89q0 -101 -46 -141t-156 -40q-57 0 -121 14l-23 5l4 88q92 -11 139 -11q91 0 91 69q0 30 -17.5 46t-81.5 46 q-67 29 -93 58.5t-26 75t18 70.5t59.5 42.5t55.5 31.5t14 42t-22 42.5t-81.5 14.5t-82.5 -21t-23 -75v-527z" glyph-name="germandbls" horiz-adv-x="595" unicode="ß"/><glyph d="M436 346v-228q1 -22 11.5 -32.5t32.5 -13.5l-3 -83q-86 0 -133 37q-80 -37 -161 -37q-149 0 -149 159q0 76 40.5 110t124.5 41l129 11v36q0 40 -17.5 56t-51.5 16q-64 0 -160 -8l-32 -2l-4 77q109 26 200.5 26t132 -39.5t40.5 -125.5zM212 222q-69 -6 -69 -75t61 -69 q50 0 106 16l18 6v133zM145 748l236 -101l-26 -71l-244 78z" glyph-name="agrave" horiz-adv-x="507" unicode="à"/><glyph d="M436 346v-228q1 -22 11.5 -32.5t32.5 -13.5l-3 -83q-86 0 -133 37q-80 -37 -161 -37q-149 0 -149 159q0 76 40.5 110t124.5 41l129 11v36q0 40 -17.5 56t-51.5 16q-64 0 -160 -8l-32 -2l-4 77q109 26 200.5 26t132 -39.5t40.5 -125.5zM212 222q-69 -6 -69 -75t61 -69 q50 0 106 16l18 6v133zM105 647l236 101l34 -94l-244 -78z" glyph-name="aacute" horiz-adv-x="507" unicode="á"/><glyph d="M436 346v-228q1 -22 11.5 -32.5t32.5 -13.5l-3 -83q-86 0 -133 37q-80 -37 -161 -37q-149 0 -149 159q0 76 40.5 110t124.5 41l129 11v36q0 40 -17.5 56t-51.5 16q-64 0 -160 -8l-32 -2l-4 77q109 26 200.5 26t132 -39.5t40.5 -125.5zM212 222q-69 -6 -69 -75t61 -69 q50 0 106 16l18 6v133zM88 585l125 146h69l127 -146h-102l-58 76l-58 -76h-103z" glyph-name="acircumflex" horiz-adv-x="507" unicode="â"/><glyph d="M436 346v-228q1 -22 11.5 -32.5t32.5 -13.5l-3 -83q-86 0 -133 37q-80 -37 -161 -37q-149 0 -149 159q0 76 40.5 110t124.5 41l129 11v36q0 40 -17.5 56t-51.5 16q-64 0 -160 -8l-32 -2l-4 77q109 26 200.5 26t132 -39.5t40.5 -125.5zM212 222q-69 -6 -69 -75t61 -69 q50 0 106 16l18 6v133zM342.5 613q-25.5 -16 -46.5 -16t-69.5 20t-62.5 20q-24 0 -63 -25l-13 -9l-24 63l16 16q9 9 35 24.5t47.5 15.5t70 -20t60.5 -20q22 0 63 27l13 9l24 -64l-15 -16q-10 -9 -35.5 -25z" glyph-name="atilde" horiz-adv-x="507" unicode="ã"/><glyph d="M436 346v-228q1 -22 11.5 -32.5t32.5 -13.5l-3 -83q-86 0 -133 37q-80 -37 -161 -37q-149 0 -149 159q0 76 40.5 110t124.5 41l129 11v36q0 40 -17.5 56t-51.5 16q-64 0 -160 -8l-32 -2l-4 77q109 26 200.5 26t132 -39.5t40.5 -125.5zM212 222q-69 -6 -69 -75t61 -69 q50 0 106 16l18 6v133zM83 607v114h104v-114h-104zM292 607v114h104v-114h-104z" glyph-name="adieresis" horiz-adv-x="507" unicode="ä"/><glyph d="M436 346v-228q1 -22 11.5 -32.5t32.5 -13.5l-3 -83q-86 0 -133 37q-80 -37 -161 -37q-149 0 -149 159q0 76 40.5 110t124.5 41l129 11v36q0 40 -17.5 56t-51.5 16q-64 0 -160 -8l-32 -2l-4 77q109 26 200.5 26t132 -39.5t40.5 -125.5zM212 222q-69 -6 -69 -75t61 -69 q50 0 106 16l18 6v133zM181 561.5q-32 31.5 -32 79t32 79.5t79 32t79.5 -32.5t32.5 -79.5t-32.5 -78.5t-79.5 -31.5t-79 31.5zM225 676.5q-14 -14.5 -14 -36t14 -36t35.5 -14.5t35.5 14.5t14 36t-14 36t-35.5 14.5t-35.5 -14.5z" glyph-name="aring" horiz-adv-x="507" unicode="å"/><glyph d="M706 94l29 3l2 -85q-115 -23 -209 -23t-144 50l-27 -12q-86 -38 -180 -38q-70 0 -106.5 42t-36.5 119.5t42.5 110.5t134.5 40l117 9v32q0 32 -17.5 48.5t-49.5 16.5q-75 0 -159 -8l-32 -3l-4 96q127 18 211 18t123 -52q49 52 149 52q204 0 204 -228l-7 -79h-310 q1 -60 27 -87.5t97.5 -27.5t145.5 6zM197 82q45 0 90 11.5t48 13.5q-8 47 -8 119l-115 -8q-69 -5 -69 -70.5t54 -65.5zM436 288h210q0 68 -24 97t-79.5 29t-81 -30t-25.5 -96z" glyph-name="ae" horiz-adv-x="793" unicode="æ"/><glyph d="M343 -60q28 -17 28 -68t-27.5 -77t-76.5 -26q-38 0 -77 7l-13 3l4 65q34 -2 55 -2q41 0 41 31q0 15 -9.5 21t-31.5 6h-31v92q-88 11 -124.5 72.5t-36.5 194.5t49 192.5t160 59.5q53 0 125 -14l25 -5l-4 -86q-79 8 -117 8q-76 0 -102 -34t-26 -128t25 -130t104 -36l117 8 l3 -87q-100 -18 -151 -18v-31q63 -1 91 -18z" glyph-name="ccedilla" horiz-adv-x="442" unicode="ç"/><glyph d="M422 90l28 3l2 -81q-114 -23 -202 -23q-111 0 -159.5 61t-48.5 195q0 266 217 266q210 0 210 -229l-7 -78h-310q1 -62 27 -91t97 -29t146 6zM362 288q0 74 -23.5 103.5t-79.5 29.5t-81.5 -31t-26.5 -102h211zM149 748l236 -101l-26 -71l-244 78z" glyph-name="egrave" horiz-adv-x="508" unicode="è"/><glyph d="M422 90l28 3l2 -81q-114 -23 -202 -23q-111 0 -159.5 61t-48.5 195q0 266 217 266q210 0 210 -229l-7 -78h-310q1 -62 27 -91t97 -29t146 6zM362 288q0 74 -23.5 103.5t-79.5 29.5t-81.5 -31t-26.5 -102h211zM122 647l236 101l34 -94l-244 -78z" glyph-name="eacute" horiz-adv-x="508" unicode="é"/><glyph d="M422 90l28 3l2 -81q-114 -23 -202 -23q-111 0 -159.5 61t-48.5 195q0 266 217 266q210 0 210 -229l-7 -78h-310q1 -62 27 -91t97 -29t146 6zM362 288q0 74 -23.5 103.5t-79.5 29.5t-81.5 -31t-26.5 -102h211zM99 585l125 146h69l127 -146h-102l-58 76l-58 -76h-103z" glyph-name="ecircumflex" horiz-adv-x="508" unicode="ê"/><glyph d="M422 90l28 3l2 -81q-114 -23 -202 -23q-111 0 -159.5 61t-48.5 195q0 266 217 266q210 0 210 -229l-7 -78h-310q1 -62 27 -91t97 -29t146 6zM362 288q0 74 -23.5 103.5t-79.5 29.5t-81.5 -31t-26.5 -102h211zM100 607v114h104v-114h-104zM309 607v114h104v-114h-104z" glyph-name="edieresis" horiz-adv-x="508" unicode="ë"/><glyph d="M66 0v500h109v-500h-109zM-25 748l236 -101l-26 -71l-244 78z" glyph-name="igrave" horiz-adv-x="241" unicode="ì"/><glyph d="M34 647l236 101l34 -94l-244 -78zM66 500h109v-500h-109v500z" glyph-name="iacute" horiz-adv-x="241" unicode="í"/><glyph d="M66 500h109v-500h-109v500zM-44 585l125 146h69l127 -146h-102l-58 76l-58 -76h-103z" glyph-name="icircumflex" horiz-adv-x="241" unicode="î"/><glyph d="M66 500h109v-500h-109v500zM-40 607v114h104v-114h-104zM169 607v114h104v-114h-104z" glyph-name="idieresis" horiz-adv-x="241" unicode="ï"/><glyph d="M377 633q137 -91 137 -281.5t-57 -275.5t-187 -85q-112 0 -171 56.5t-59 163t54.5 165.5t159.5 59q64 0 126 -23l20 -7q-5 55 -30.5 95.5t-81.5 72.5l-124 -83l-45 63l85 57q-44 15 -116 31l17 78q112 -15 193 -46l98 66l46 -63zM261 338q-52 0 -79.5 -35t-27.5 -88 q0 -126 116 -126q67 0 98 50.5t32 170.5q-67 28 -139 28z" glyph-name="eth" horiz-adv-x="559" unicode="ð"/><glyph d="M66 0v500h108v-31l20 11q20 10 54.5 20.5t63.5 10.5q100 0 136.5 -56.5t36.5 -186.5v-268h-108v265q0 81 -17.5 115t-73.5 34t-111 -26v-388h-109zM393.5 613q-25.5 -16 -46.5 -16t-69.5 20t-61.5 20q-25 0 -64 -25l-13 -9l-24 63l15 16q10 9 36 24.5t47.5 15.5t70 -20 t60.5 -20q22 0 62 27l14 9l24 -64l-16 -16q-9 -9 -34.5 -25z" glyph-name="ntilde" horiz-adv-x="546" unicode="ñ"/><glyph d="M265 511q120 0 171.5 -65t51.5 -195t-50 -196t-173 -66t-173 66t-50 196t51.5 195t171.5 65zM265 81q67 0 90 40t23 131t-24.5 129t-88.5 38t-88.5 -38t-24.5 -129t23 -131t90 -40zM165 748l236 -101l-26 -71l-244 78z" glyph-name="ograve" horiz-adv-x="530" unicode="ò"/><glyph d="M265 511q120 0 171.5 -65t51.5 -195t-50 -196t-173 -66t-173 66t-50 196t51.5 195t171.5 65zM265 81q67 0 90 40t23 131t-24.5 129t-88.5 38t-88.5 -38t-24.5 -129t23 -131t90 -40zM132 647l236 101l34 -94l-244 -78z" glyph-name="oacute" horiz-adv-x="530" unicode="ó"/><glyph d="M265 511q120 0 171.5 -65t51.5 -195t-50 -196t-173 -66t-173 66t-50 196t51.5 195t171.5 65zM265 81q67 0 90 40t23 131t-24.5 129t-88.5 38t-88.5 -38t-24.5 -129t23 -131t90 -40zM100 585l125 146h69l127 -146h-102l-58 76l-58 -76h-103z" glyph-name="ocircumflex" horiz-adv-x="530" unicode="ô"/><glyph d="M265 511q120 0 171.5 -65t51.5 -195t-50 -196t-173 -66t-173 66t-50 196t51.5 195t171.5 65zM265 81q67 0 90 40t23 131t-24.5 129t-88.5 38t-88.5 -38t-24.5 -129t23 -131t90 -40zM375.5 613q-25.5 -16 -46.5 -16t-69.5 20t-61.5 20q-25 0 -64 -25l-13 -9l-24 63l15 16 q10 9 36 24.5t47.5 15.5t70 -20t60.5 -20q22 0 62 27l14 9l24 -64l-16 -16q-9 -9 -34.5 -25z" glyph-name="otilde" horiz-adv-x="530" unicode="õ"/><glyph d="M265 511q120 0 171.5 -65t51.5 -195t-50 -196t-173 -66t-173 66t-50 196t51.5 195t171.5 65zM265 81q67 0 90 40t23 131t-24.5 129t-88.5 38t-88.5 -38t-24.5 -129t23 -131t90 -40zM107 607v114h104v-114h-104zM316 607v114h104v-114h-104z" glyph-name="odieresis" horiz-adv-x="530" unicode="ö"/><glyph d="M105 241v110h68v77h213v-77h69v-110h-350zM225 23v118h108v-118h-108z" glyph-name="divide" unicode="÷"/><glyph d="M265 511q26 0 64 -6l41 101l68 -25l-42 -101q92 -55 92 -227q0 -132 -50 -198t-173 -66q-38 0 -68 6l-43 -105l-67 25l44 105q-89 57 -89 233q0 128 51.5 193t171.5 65zM265 81q67 0 90 40t23 132t-26 129l-121 -298q15 -3 34 -3zM265 419q-64 0 -88.5 -38t-24.5 -132.5 t24 -129.5l119 297q-13 3 -30 3z" glyph-name="oslash" horiz-adv-x="530" unicode="ø"/><glyph d="M369 500h108v-500h-108v31q-73 -42 -135 -42q-103 0 -138 55.5t-35 194.5v261h109v-262q0 -90 15 -121t70 -31q54 0 99 20l15 6v388zM139 748l236 -101l-26 -71l-244 78z" glyph-name="ugrave" horiz-adv-x="543" unicode="ù"/><glyph d="M477 500v-500h-108v31l-20 -11q-20 -10 -53.5 -20.5t-61.5 -10.5q-103 0 -138 55.5t-35 194.5v261h109v-262q0 -90 15 -121t72.5 -31t111.5 26v388h108zM141 647l236 101l34 -94l-244 -78z" glyph-name="uacute" horiz-adv-x="543" unicode="ú"/><glyph d="M477 500v-500h-108v31l-20 -11q-20 -10 -53.5 -20.5t-61.5 -10.5q-103 0 -138 55.5t-35 194.5v261h109v-262q0 -90 15 -121t72.5 -31t111.5 26v388h108zM92 585l125 146h69l127 -146h-102l-58 76l-58 -76h-103z" glyph-name="ucircumflex" horiz-adv-x="543" unicode="û"/><glyph d="M477 500v-500h-108v31l-20 -11q-20 -10 -53.5 -20.5t-61.5 -10.5q-103 0 -138 55.5t-35 194.5v261h109v-262q0 -90 15 -121t72.5 -31t111.5 26v388h108zM117 607v114h104v-114h-104zM326 607v114h104v-114h-104z" glyph-name="udieresis" horiz-adv-x="543" unicode="ü"/><glyph d="M20 500h107l106 -407h27l106 407h108l-190 -715h-107l60 215h-86zM136 647l236 101l34 -94l-244 -78z" glyph-name="yacute" horiz-adv-x="492" unicode="ý"/><glyph d="M258 83q74 0 99.5 39t25.5 128.5t-23 126.5t-74 37q-47 0 -95 -15l-16 -5v-305q53 -6 83 -6zM299 511q104 0 149 -57.5t45 -203t-51.5 -203.5t-175.5 -58l-91 7v-211h-109v923h109v-227q69 30 124 30z" glyph-name="thorn" horiz-adv-x="536" unicode="þ"/><glyph d="M20 500h107l106 -407h27l106 407h108l-190 -715h-107l60 215h-86zM90 607v114h104v-114h-104zM299 607v114h104v-114h-104z" glyph-name="ydieresis" horiz-adv-x="492" unicode="ÿ"/><glyph d="M20 0l169 685h221l170 -685h-112l-37 147h-263l-37 -147h-111zM275 592l-85 -347h219l-84 347h-50zM131 795v81h332v-81h-332z" glyph-name="Amacron" horiz-adv-x="599" unicode="Ā"/><glyph d="M436 346v-228q1 -22 11.5 -32.5t32.5 -13.5l-3 -83q-86 0 -133 37q-80 -37 -161 -37q-149 0 -149 159q0 76 40.5 110t124.5 41l129 11v36q0 40 -17.5 56t-51.5 16q-64 0 -160 -8l-32 -2l-4 77q109 26 200.5 26t132 -39.5t40.5 -125.5zM212 222q-69 -6 -69 -75t61 -69 q50 0 106 16l18 6v133zM109 609v82h282v-82h-282z" glyph-name="amacron" horiz-adv-x="507" unicode="ā"/><glyph d="M20 0l169 685h221l170 -685h-112l-37 147h-263l-37 -147h-111zM275 592l-85 -347h219l-84 347h-50zM244.5 867q20.5 -18 52.5 -18t52.5 18t22.5 47h99q-6 -65 -51 -104t-123.5 -39t-123.5 39t-50 104h99q2 -29 22.5 -47z" glyph-name="Abreve" horiz-adv-x="599" unicode="Ă"/><glyph d="M436 343v-212q1 -25 10.5 -35.5t32.5 -13.5l-3 -93q-54 0 -81 8t-51 28l-24 -9q-24 -9 -65.5 -18t-77.5 -9q-69 0 -106 42t-37 118t40 110t125 40l129 11v32q0 31 -18 48t-48 17q-74 0 -193 -10l-3 93l34 5q102 15 168 15q84 0 126 -39.5t42 -127.5zM197 82q57 0 131 22 v122l-116 -8q-69 -4 -69 -70t54 -66zM253 684q62 0 67 57h112q-5 -69 -51 -111t-128 -42t-128 41.5t-52 111.5h112q6 -57 68 -57z" glyph-name="abreve" horiz-adv-x="508" unicode="ă"/><glyph d="M504 -91.5q0 -15.5 10 -26t26 -10.5l45 5l10 -79q-53 -10 -94.5 -10t-70 25t-28.5 68q0 60 68 119h-2l-37 147h-263l-37 -147h-111l169 685h221l170 -685h-14q-22 -15 -42 -45.5t-20 -46zM275 592l-85 -347h219l-84 347h-50z" glyph-name="Aogonek" horiz-adv-x="599" unicode="Ą"/><glyph d="M436 346v-228q1 -22 11.5 -32.5t32.5 -13.5l-3 -83q-25 0 -36 1q-52 -52 -52 -80q0 -17 10 -27.5t26 -10.5l45 5l10 -79q-53 -10 -94.5 -10t-70 25t-28.5 62.5t20.5 69.5t40.5 49l20 16q-13 7 -24 16q-80 -37 -161 -37q-149 0 -149 159q0 76 40.5 110t124.5 41l129 11v36 q0 40 -17.5 56t-51.5 16q-64 0 -160 -8l-32 -2l-4 77q109 26 200.5 26t132 -39.5t40.5 -125.5zM212 222q-69 -6 -69 -75t61 -69q50 0 106 16l18 6v133z" glyph-name="aogonek" horiz-adv-x="506" unicode="ą"/><glyph d="M309 -11q-150 0 -203.5 83t-53.5 273t54 270.5t203 80.5q89 0 196 -25l-4 -90q-90 16 -180 16t-122 -53.5t-32 -201t31 -201t121 -53.5t182 15l3 -92q-103 -22 -195 -22zM162 836l236 103l35 -97l-243 -82z" glyph-name="Cacute" horiz-adv-x="544" unicode="Ć"/><glyph d="M253 511q53 0 125 -14l25 -5l-4 -86q-79 8 -117 8q-76 0 -102 -34t-26 -128t25 -130t104 -36l117 8l3 -87q-101 -18 -152 -18q-114 0 -160.5 61.5t-46.5 201.5t49 199.5t160 59.5zM110 647l236 101l34 -94l-244 -78z" glyph-name="cacute" horiz-adv-x="442" unicode="ć"/><glyph d="M309 -11q-150 0 -203.5 83t-53.5 273t54 270.5t203 80.5q89 0 196 -25l-4 -90q-90 16 -180 16t-122 -53.5t-32 -201t31 -201t121 -53.5t182 15l3 -92q-103 -22 -195 -22zM123 776l134 143h94l134 -143h-116l-64 67l-65 -67h-117z" glyph-name="Ccircumflex" horiz-adv-x="544" unicode="Ĉ"/><glyph d="M253 511q53 0 125 -14l25 -5l-4 -86q-79 8 -117 8q-76 0 -102 -34t-26 -128t25 -130t104 -36l117 8l3 -87q-101 -18 -152 -18q-114 0 -160.5 61.5t-46.5 201.5t49 199.5t160 59.5zM66 585l125 146h69l127 -146h-102l-58 76l-58 -76h-103z" glyph-name="ccircumflex" horiz-adv-x="442" unicode="ĉ"/><glyph d="M309 -11q-150 0 -203.5 83t-53.5 273t54 270.5t203 80.5q89 0 196 -25l-4 -90q-90 16 -180 16t-122 -53.5t-32 -201t31 -201t121 -53.5t182 15l3 -92q-103 -22 -195 -22zM235 777v114h108v-114h-108z" glyph-name="Cdotaccent" horiz-adv-x="544" unicode="Ċ"/><glyph d="M253 511q53 0 125 -14l25 -5l-4 -86q-79 8 -117 8q-76 0 -102 -34t-26 -128t25 -130t104 -36l117 8l3 -87q-101 -18 -152 -18q-114 0 -160.5 61.5t-46.5 201.5t49 199.5t160 59.5zM200 579v114h108v-114h-108z" glyph-name="cdotaccent" horiz-adv-x="442" unicode="ċ"/><glyph d="M309 -11q-150 0 -203.5 83t-53.5 273t54 270.5t203 80.5q89 0 196 -25l-4 -90q-90 16 -180 16t-122 -53.5t-32 -201t31 -201t121 -53.5t182 15l3 -92q-103 -22 -195 -22zM259 776l-134 143h117l65 -66l63 66h117l-134 -143h-94z" glyph-name="Ccaron" horiz-adv-x="544" unicode="Č"/><glyph d="M253 511q53 0 125 -14l25 -5l-4 -86q-79 8 -117 8q-76 0 -102 -34t-26 -128t25 -130t104 -36l117 8l3 -87q-101 -18 -152 -18q-114 0 -160.5 61.5t-46.5 201.5t49 199.5t160 59.5zM205 585l-125 146h102l59 -75l58 75h102l-127 -146h-69z" glyph-name="ccaron" horiz-adv-x="442" unicode="č"/><glyph d="M316 0h-237v685h237q158 0 216 -80t58 -251q0 -87 -11.5 -147.5t-40.5 -109.5q-57 -97 -222 -97zM475 354q0 124 -31 179t-128 55h-126v-490h126q99 0 132 73q16 37 21.5 79t5.5 104zM253 776l-134 143h117l65 -66l63 66h117l-134 -143h-94z" glyph-name="Dcaron" horiz-adv-x="641" unicode="Ď"/><glyph d="M576 680h106l-53 -222h-96zM474 708v-708h-108v26q-73 -37 -134 -37q-98 0 -143.5 59t-45.5 198t50.5 202t157.5 63q36 0 114 -13v210h109zM348 104l17 7v296q-60 10 -111 10q-101 0 -101 -168q0 -92 23.5 -127.5t74.5 -35.5t97 18z" glyph-name="dcaron" horiz-adv-x="625" unicode="ď"/><glyph d="M23 292v106h60v295h235q162 0 221 -87q30 -45 42 -103.5t12 -145t-11.5 -148t-40.5 -111.5q-58 -98 -223 -98h-235v292h-60zM478 359q0 119 -31.5 173.5t-128.5 54.5h-125v-189h142v-106h-142v-186h125q100 0 132 73q17 37 22.5 78t5.5 102z" glyph-name="Dcroat" horiz-adv-x="644" unicode="Đ"/><glyph d="M155 622v94h311v-8h8v-708h-108v26q-73 -37 -134 -37q-98 0 -143.5 59t-45.5 198t50.5 202t157.5 63q36 0 114 -13v124h-210zM348 104l17 7v296q-60 10 -111 10q-101 0 -101 -168q0 -92 23.5 -127.5t74.5 -35.5t97 18z" glyph-name="dcroat" horiz-adv-x="540" unicode="đ"/><glyph d="M79 0v685h432v-97h-321v-194h261v-96h-261v-200h321v-98h-432zM125 795v81h332v-81h-332z" glyph-name="Emacron" horiz-adv-x="553" unicode="Ē"/><glyph d="M422 90l28 3l2 -81q-114 -23 -202 -23q-111 0 -159.5 61t-48.5 195q0 266 217 266q210 0 210 -229l-7 -78h-310q1 -62 27 -91t97 -29t146 6zM362 288q0 74 -23.5 103.5t-79.5 29.5t-81.5 -31t-26.5 -102h211zM117 609v82h282v-82h-282z" glyph-name="emacron" horiz-adv-x="508" unicode="ē"/><glyph d="M79 0v685h432v-97h-321v-194h261v-96h-261v-200h321v-98h-432zM249.5 867q20.5 -18 52.5 -18t52.5 18t22.5 47h99q-6 -65 -51 -104t-123.5 -39t-123.5 39t-50 104h99q2 -29 22.5 -47z" glyph-name="Ebreve" horiz-adv-x="553" unicode="Ĕ"/><glyph d="M422 90l28 3l2 -81q-114 -23 -202 -23q-111 0 -159.5 61t-48.5 195q0 266 217 266q210 0 210 -229l-7 -78h-310q1 -62 27 -91t97 -29t146 6zM362 288q0 74 -23.5 103.5t-79.5 29.5t-81.5 -31t-26.5 -102h211zM206.5 674q19.5 -20 52 -20t51.5 20.5t21 53.5h84 q-6 -63 -47.5 -106t-109.5 -43t-110 43t-48 106h84q3 -34 22.5 -54z" glyph-name="ebreve" horiz-adv-x="508" unicode="ĕ"/><glyph d="M79 0v685h432v-97h-321v-194h261v-96h-261v-200h321v-98h-432zM244 782v114h108v-114h-108z" glyph-name="Edotaccent" horiz-adv-x="553" unicode="Ė"/><glyph d="M422 90l28 3l2 -81q-114 -23 -202 -23q-111 0 -159.5 61t-48.5 195q0 266 217 266q210 0 210 -229l-7 -78h-310q1 -62 27 -91t97 -29t146 6zM362 288q0 74 -23.5 103.5t-79.5 29.5t-81.5 -31t-26.5 -102h211zM201 579v114h108v-114h-108z" glyph-name="edotaccent" horiz-adv-x="508" unicode="ė"/><glyph d="M79 0v685h432v-97h-321v-194h261v-96h-261v-200h321v-98h-29q-22 -15 -42 -45.5t-20 -46t10 -26t26 -10.5l45 5l10 -79q-53 -10 -94.5 -10t-70 25t-28.5 68q0 60 68 119h-307z" glyph-name="Eogonek" horiz-adv-x="553" unicode="Ę"/><glyph d="M346 -90q0 -17 10 -27.5t26 -10.5l45 5l10 -79q-53 -10 -94.5 -10t-70 25t-28.5 73.5t59 105.5q-29 -3 -53 -3q-111 0 -159.5 61t-48.5 195q0 266 217 266q210 0 210 -229l-7 -78h-310q1 -62 27 -91t87 -29q81 0 156 6l28 3l2 -81q-24 -5 -55 -10l13 -1q-64 -57 -64 -91z M362 288q0 74 -23.5 103.5t-79.5 29.5t-81.5 -31t-26.5 -102h211z" glyph-name="eogonek" horiz-adv-x="509" unicode="ę"/><glyph d="M79 0v685h432v-97h-321v-194h261v-96h-261v-200h321v-98h-432zM237 776l-134 143h117l65 -66l63 66h117l-134 -143h-94z" glyph-name="Ecaron" horiz-adv-x="553" unicode="Ě"/><glyph d="M422 90l28 3l2 -81q-114 -23 -202 -23q-111 0 -159.5 61t-48.5 195q0 266 217 266q210 0 210 -229l-7 -78h-310q1 -62 27 -91t97 -29t146 6zM362 288q0 74 -23.5 103.5t-79.5 29.5t-81.5 -31t-26.5 -102h211zM218 585l-125 146h102l59 -75l58 75h102l-127 -146h-69z" glyph-name="ecaron" horiz-adv-x="508" unicode="ě"/><glyph d="M358 263v98h195v-348q-27 -7 -109.5 -15t-119.5 -8q-156 0 -215 86t-59 269.5t60.5 267.5t209.5 84q98 0 198 -20l35 -7l-4 -88q-121 16 -217 16t-131.5 -54t-35.5 -200t33.5 -201.5t135.5 -55.5q73 0 109 9v167h-85zM145 775l134 143h94l134 -143h-116l-64 67l-65 -67 h-117z" glyph-name="Gcircumflex" horiz-adv-x="613" unicode="Ĝ"/><glyph d="M503 -68q0 -164 -237 -164q-114 0 -169 31t-55 113q0 37 18 63.5t58 57.5q-33 22 -33 73q0 20 27 65l9 15q-72 43 -72 150q0 90 54 132t146 42q44 0 87 -10l15 -3l155 4v-88l-83 5q27 -35 27 -82q0 -98 -49.5 -135.5t-154.5 -37.5q-26 0 -44 4q-14 -34 -14 -52.5 t18.5 -25.5t89.5 -8q119 -1 163 -32t44 -117zM149 -78q0 -35 28 -50t96 -15q121 0 121 69q0 39 -21.5 49.5t-85.5 11.5l-98 6q-22 -18 -31 -33.5t-9 -37.5zM179 268.5q22 -21.5 71 -21.5t70.5 21.5t21.5 67.5t-22 67.5t-71 21.5q-92 0 -92 -89q0 -46 22 -67.5zM107 585 l125 146h69l127 -146h-102l-58 76l-58 -76h-103z" glyph-name="gcircumflex" horiz-adv-x="525" unicode="ĝ"/><glyph d="M358 262v98h195v-348q-27 -7 -109.5 -15t-119.5 -8q-156 0 -215 86t-59 269.5t60.5 267.5t209.5 84q88 0 198 -20l35 -7l-4 -88q-121 16 -217 16t-131.5 -54t-35.5 -200t33.5 -201.5t135.5 -55.5q73 0 109 9v167h-85zM272.5 867q20.5 -18 52.5 -18t52.5 18t22.5 47h99 q-6 -65 -51 -104t-123.5 -39t-123.5 39t-50 104h99q2 -29 22.5 -47z" glyph-name="Gbreve" horiz-adv-x="613" unicode="Ğ"/><glyph d="M503 -68q0 -164 -237 -164q-114 0 -169 31t-55 113q0 37 18 63.5t58 57.5q-33 22 -33 73q0 20 27 65l9 15q-72 43 -72 150q0 90 54 132t146 42q44 0 87 -10l15 -3l155 4v-88l-83 5q27 -35 27 -82q0 -98 -49.5 -135.5t-154.5 -37.5q-26 0 -44 4q-14 -34 -14 -52.5 t18.5 -25.5t89.5 -8q119 -1 163 -32t44 -117zM149 -78q0 -35 28 -50t96 -15q121 0 121 69q0 39 -21.5 49.5t-85.5 11.5l-98 6q-22 -18 -31 -33.5t-9 -37.5zM179 268.5q22 -21.5 71 -21.5t70.5 21.5t21.5 67.5t-22 67.5t-71 21.5q-92 0 -92 -89q0 -46 22 -67.5zM215.5 674 q19.5 -20 52 -20t51.5 20.5t21 53.5h84q-6 -63 -47.5 -106t-109.5 -43t-110 43t-48 106h84q3 -34 22.5 -54z" glyph-name="gbreve" horiz-adv-x="525" unicode="ğ"/><glyph d="M358 262v98h195v-348q-27 -7 -109.5 -15t-119.5 -8q-156 0 -215 86t-59 269.5t60.5 267.5t209.5 84q88 0 198 -20l35 -7l-4 -88q-121 16 -217 16t-131.5 -54t-35.5 -200t33.5 -201.5t135.5 -55.5q73 0 109 9v167h-85zM258 782v114h108v-114h-108z" glyph-name="Gdotaccent" horiz-adv-x="613" unicode="Ġ"/><glyph d="M503 -68q0 -164 -237 -164q-114 0 -169 31t-55 113q0 37 18 63.5t58 57.5q-33 22 -33 73q0 20 27 65l9 15q-72 43 -72 150q0 90 54 132t146 42q44 0 87 -10l15 -3l155 4v-88l-83 5q27 -35 27 -82q0 -98 -49.5 -135.5t-154.5 -37.5q-26 0 -44 4q-14 -34 -14 -52.5 t18.5 -25.5t89.5 -8q119 -1 163 -32t44 -117zM149 -78q0 -35 28 -50t96 -15q121 0 121 69q0 39 -21.5 49.5t-85.5 11.5l-98 6q-22 -18 -31 -33.5t-9 -37.5zM179 268.5q22 -21.5 71 -21.5t70.5 21.5t21.5 67.5t-22 67.5t-71 21.5q-92 0 -92 -89q0 -46 22 -67.5zM212 579v114 h108v-114h-108z" glyph-name="gdotaccent" horiz-adv-x="525" unicode="ġ"/><glyph d="M358 262v98h195v-348q-27 -7 -109.5 -15t-119.5 -8q-156 0 -215 86t-59 269.5t60.5 267.5t209.5 84q88 0 198 -20l35 -7l-4 -88q-121 16 -217 16t-131.5 -54t-35.5 -200t33.5 -201.5t135.5 -55.5q73 0 109 9v167h-85zM281 -77h106l-53 -223h-97z" glyph-name="Gcommaaccent" horiz-adv-x="613" unicode="Ģ"/><glyph d="M329 808l-44 -222h-105l52 222h97zM503 -68q0 -164 -237 -164q-114 0 -169 31t-55 113q0 37 18 63.5t58 57.5q-33 22 -33 73q0 20 27 65l9 15q-72 43 -72 150q0 90 54 132t146 42q44 0 87 -10l15 -3l155 4v-88l-83 5q27 -35 27 -82q0 -98 -49.5 -135.5t-154.5 -37.5 q-26 0 -44 4q-14 -34 -14 -52.5t18.5 -25.5t89.5 -8q119 -1 163 -32t44 -117zM149 -78q0 -35 28 -50t96 -15q121 0 121 69q0 39 -21.5 49.5t-85.5 11.5l-98 6q-22 -18 -31 -33.5t-9 -37.5zM179 268.5q22 -21.5 71 -21.5t70.5 21.5t21.5 67.5t-22 67.5t-71 21.5 q-92 0 -92 -89q0 -46 22 -67.5z" glyph-name="gcommaaccent" horiz-adv-x="525" unicode="ģ"/><glyph d="M486 0v296h-296v-296h-111v685h111v-292h296v292h112v-685h-112zM157 776l134 143h94l134 -143h-116l-64 67l-65 -67h-117z" glyph-name="Hcircumflex" horiz-adv-x="676" unicode="Ĥ"/><glyph d="M175 0h-109v708h109v-234q74 37 137 37q100 0 136.5 -56.5t36.5 -186.5v-268h-109v265q0 81 -17 115t-72 34q-48 0 -96 -16l-16 -6v-392zM112 760l125 146h69l127 -146h-102l-58 76l-58 -76h-103z" glyph-name="hcircumflex" horiz-adv-x="546" unicode="ĥ"/><glyph d="M17 495v95h66v95h111v-95h296v95h112v-95h73v-95h-73v-495h-112v296h-296v-296h-111v495h-66zM194 393h296v102h-296v-102z" glyph-name="Hbar" horiz-adv-x="685" unicode="Ħ"/><glyph d="M11 553v94h55v61h109v-61h147v-94h-147v-79q74 37 137 37q100 0 136.5 -56.5t36.5 -186.5v-268h-109v265q0 81 -17 115t-72 34q-48 0 -96 -16l-16 -6v-392h-109v553h-55z" glyph-name="hbar" horiz-adv-x="546" unicode="ħ"/><glyph d="M79 0v685h111v-685h-111zM214 777q-24 0 -87 25t-76 25q-25 0 -64 -33l-13 -11l-24 78q6 7 15.5 17.5t36 27.5t52.5 17t87.5 -25t72.5 -25q22 0 62 33l14 11l24 -79q-15 -21 -45.5 -41t-54.5 -20z" glyph-name="Itilde" horiz-adv-x="269" unicode="Ĩ"/><glyph d="M66 500h109v-500h-109v500zM236.5 613q-25.5 -16 -46.5 -16t-69.5 20t-62.5 20q-24 0 -63 -25l-13 -9l-24 63l16 16q9 9 35 24.5t47.5 15.5t70 -20t60.5 -20q22 0 63 27l13 9l24 -64l-15 -16q-10 -9 -35.5 -25z" glyph-name="itilde" horiz-adv-x="241" unicode="ĩ"/><glyph d="M79 0v685h111v-685h-111zM-29 795v81h332v-81h-332z" glyph-name="Imacron" horiz-adv-x="269" unicode="Ī"/><glyph d="M66 500h109v-500h-109v500zM-20 609v82h282v-82h-282z" glyph-name="imacron" horiz-adv-x="241" unicode="ī"/><glyph d="M79 0v685h111v-685h-111zM95.5 867q20.5 -18 52.5 -18t52.5 18t22.5 47h99q-6 -65 -51 -104t-123.5 -39t-123.5 39t-50 104h99q2 -29 22.5 -47z" glyph-name="Ibreve" horiz-adv-x="269" unicode="Ĭ"/><glyph d="M66 500h109v-500h-109v500zM69.5 674q19.5 -20 52 -20t51.5 20.5t21 53.5h84q-6 -63 -47.5 -106t-109.5 -43t-110 43t-48 106h84q3 -34 22.5 -54z" glyph-name="ibreve" horiz-adv-x="241" unicode="ĭ"/><glyph d="M79 0v685h111v-685q-23 -17 -46.5 -46t-23.5 -45t10 -26.5t25 -10.5l46 5l10 -79q-53 -10 -95 -10t-70.5 25t-28.5 68q0 63 71 119h-9z" glyph-name="Iogonek" horiz-adv-x="269" unicode="Į"/><glyph d="M66 0v500h109v-500q-28 -21 -49.5 -47.5t-21.5 -43t10 -27t26 -10.5l46 5l9 -79q-53 -10 -94.5 -10t-70 25t-28.5 68q0 61 73 119h-9zM66 585v115h109v-115h-109z" glyph-name="iogonek" horiz-adv-x="241" unicode="į"/><glyph d="M79 0v685h111v-685h-111zM80 782v114h108v-114h-108z" glyph-name="Idotaccent" horiz-adv-x="269" unicode="İ"/><glyph d="M66 0v500h109v-500h-109z" glyph-name="dotlessi" horiz-adv-x="241" unicode="ı"/><glyph d="M19 -71v98q53 0 72.5 16t19.5 71v571h110l1 -579q0 -107 -45 -142t-158 -35zM-15 775l134 143h94l134 -143h-116l-64 67l-65 -67h-117z" glyph-name="Jcircumflex" horiz-adv-x="296" unicode="Ĵ"/><glyph d="M67 19v481h108v-482q0 -98 -34.5 -145t-138.5 -100l-43 81q70 44 89 72t19 93zM-39 585l125 146h69l127 -146h-102l-58 76l-58 -76h-103z" glyph-name="jcircumflex" horiz-adv-x="242" unicode="ĵ"/><glyph d="M190 0h-111v693h111v-307l100 7l140 300h129l-169 -346l176 -347h-129l-145 286l-102 -7v-279zM253 -77h106l-53 -223h-96z" glyph-name="Kcommaaccent" horiz-adv-x="581" unicode="Ķ"/><glyph d="M38 -300l43 223h106l-53 -223h-96zM175 0h-109v708h109v-409l62 6l118 195h122l-144 -234l152 -266h-123l-122 211l-65 -7v-204z" glyph-name="kcommaaccent" horiz-adv-x="499" unicode="ķ"/><glyph d="M463 0h-384v693h111v-586h273v-107zM120 836l236 103l35 -97l-243 -82z" glyph-name="Lacute" horiz-adv-x="476" unicode="Ĺ"/><glyph d="M72 0v708h109v-708h-109zM46 854l236 101l34 -94l-244 -78z" glyph-name="lacute" horiz-adv-x="253" unicode="ĺ"/><glyph d="M220 -77h106l-53 -223h-97zM463 0h-384v685h111v-586h273v-99z" glyph-name="Lcommaaccent" horiz-adv-x="475" unicode="Ļ"/><glyph d="M72 0v708h109v-708h-109zM69 -77h106l-53 -223h-97z" glyph-name="lcommaaccent" horiz-adv-x="253" unicode="ļ"/><glyph d="M451 693v-249h-105v249h105zM463 0h-384v685h111v-586h273v-99z" glyph-name="Lcaron" horiz-adv-x="496" unicode="Ľ"/><glyph d="M282 680h106l-53 -222h-96zM72 0v708h109v-708h-109z" glyph-name="lcaron" horiz-adv-x="331" unicode="ľ"/><glyph d="M470 0h-384v240l-48 -33l-53 74l101 70v334h111v-256l118 83l53 -73l-171 -121v-219h273v-99z" glyph-name="Lslash" horiz-adv-x="482" unicode="Ł"/><glyph d="M117 0v244l-58 -40l-53 74l111 77v353h108v-277l68 48l53 -74l-121 -85v-320h-108z" glyph-name="lslash" horiz-adv-x="350" unicode="ł"/><glyph d="M79 0v685h194l208 -587h15v587h111v-685h-190l-213 588h-14v-588h-111zM210 836l236 103l35 -97l-243 -82z" glyph-name="Nacute" horiz-adv-x="686" unicode="Ń"/><glyph d="M66 0v500h108v-31l20 11q20 10 54.5 20.5t63.5 10.5q100 0 136.5 -56.5t36.5 -186.5v-268h-108v265q0 81 -17.5 115t-73.5 34t-111 -26v-388h-109zM152 647l236 101l34 -94l-244 -78z" glyph-name="nacute" horiz-adv-x="546" unicode="ń"/><glyph d="M310 -77h105l-52 -223h-97zM79 0v685h194l208 -587h15v587h111v-685h-190l-213 588h-14v-588h-111z" glyph-name="Ncommaaccent" horiz-adv-x="686" unicode="Ņ"/><glyph d="M50 -300l43 223h106l-53 -223h-96zM175 0h-109v500h108v-31q73 42 138 42q100 0 136.5 -56.5t36.5 -186.5v-268h-108v265q0 81 -17.5 115t-71.5 34q-51 0 -98 -20l-15 -6v-388z" glyph-name="ncommaaccent" horiz-adv-x="546" unicode="ņ"/><glyph d="M79 0v685h194l208 -587h15v587h111v-685h-190l-213 588h-14v-588h-111zM297 775l-134 143h117l65 -66l63 66h117l-134 -143h-94z" glyph-name="Ncaron" horiz-adv-x="686" unicode="Ň"/><glyph d="M175 0h-109v500h108v-31q73 42 138 42q100 0 136.5 -56.5t36.5 -186.5v-268h-108v265q0 81 -17.5 115t-71.5 34q-51 0 -98 -20l-15 -6v-388zM236 585l-125 146h102l59 -75l58 75h102l-127 -146h-69z" glyph-name="ncaron" horiz-adv-x="546" unicode="ň"/><glyph d="M79 0v685h194l208 -587h15v587h111v-710q0 -107 -45 -142t-158 -35v98q53 0 72.5 16t19.5 71v17h-79l-213 588h-14v-588h-111z" glyph-name="Eng" horiz-adv-x="686" unicode="Ŋ"/><glyph d="M174 0h-108v499h108v-26q84 38 141 38q95 0 132.5 -61.5t37.5 -188.5v-259q0 -100 -32.5 -146.5t-137.5 -98.5l-48 90q71 40 90.5 66.5t19.5 84.5v262q0 76 -17 114t-66 38q-42 0 -100 -20l-20 -6v-386z" glyph-name="eng" horiz-adv-x="546" unicode="ŋ"/><glyph d="M328 86q96 0 129.5 58t33.5 194.5t-34.5 198.5t-128.5 62t-129 -62t-35 -197.5t34 -194.5t130 -59zM328 -11q-155 0 -217 84.5t-62 265.5t62.5 269t216.5 88t216 -87.5t62 -269.5t-61.5 -266t-216.5 -84zM159 795v81h332v-81h-332z" glyph-name="Omacron" horiz-adv-x="656" unicode="Ō"/><glyph d="M265 511q120 0 171.5 -65t51.5 -195t-50 -196t-173 -66t-173 66t-50 196t51.5 195t171.5 65zM265 81q67 0 90 40t23 131t-24.5 129t-88.5 38t-88.5 -38t-24.5 -129t23 -131t90 -40zM127 614v82h282v-82h-282z" glyph-name="omacron" horiz-adv-x="530" unicode="ō"/><glyph d="M328 86q96 0 129.5 58t33.5 194.5t-34.5 198.5t-128.5 62t-129 -62t-35 -197.5t34 -194.5t130 -59zM328 -11q-155 0 -217 84.5t-62 265.5t62.5 269t216.5 88t216 -87.5t62 -269.5t-61.5 -266t-216.5 -84zM276.5 867q20.5 -18 52.5 -18t52.5 18t22.5 47h99 q-6 -65 -51 -104t-123.5 -39t-123.5 39t-50 104h99q2 -29 22.5 -47z" glyph-name="Obreve" horiz-adv-x="656" unicode="Ŏ"/><glyph d="M265 511q120 0 171.5 -65t51.5 -195t-50 -196t-173 -66t-173 66t-50 196t51.5 195t171.5 65zM265 81q67 0 90 40t23 131t-24.5 129t-88.5 38t-88.5 -38t-24.5 -129t23 -131t90 -40zM216.5 674q19.5 -20 52 -20t51.5 20.5t21 53.5h84q-6 -63 -47.5 -106t-109.5 -43 t-110 43t-48 106h84q3 -34 22.5 -54z" glyph-name="obreve" horiz-adv-x="530" unicode="ŏ"/><glyph d="M328 86q96 0 129.5 58t33.5 194.5t-34.5 198.5t-128.5 62t-129 -62t-35 -197.5t34 -194.5t130 -59zM328 -11q-155 0 -217 84.5t-62 265.5t62.5 269t216.5 88t216 -87.5t62 -269.5t-61.5 -266t-216.5 -84zM358 779l99 169l90 -39l-108 -164zM154 780l100 169l89 -39 l-107 -164z" glyph-name="Ohungarumlaut" horiz-adv-x="656" unicode="Ő"/><glyph d="M265 511q120 0 171.5 -65t51.5 -195t-50 -196t-173 -66t-173 66t-50 196t51.5 195t171.5 65zM265 81q67 0 90 40t23 131t-24.5 129t-88.5 38t-88.5 -38t-24.5 -129t23 -131t90 -40zM270 626l129 168l85 -57l-135 -166zM71 626l129 167l85 -56l-135 -166z" glyph-name="ohungarumlaut" horiz-adv-x="530" unicode="ő"/><glyph d="M868 0h-426q-72 -11 -140 -11t-119.5 21.5t-80 68.5t-40 109.5t-11.5 156.5q0 193 58 276t204 83q59 0 127 -11h428v-107h-318v-181h258v-106h-258v-192h318v-107zM331 98q30 0 109 7v482q-82 7 -112 7q-94 0 -128 -53t-34 -195t32.5 -195t132.5 -53z" glyph-name="OE" horiz-adv-x="912" unicode="Œ"/><glyph d="M758 94l28 3l2 -85q-114 -23 -202 -23q-113 0 -157 78q-45 -78 -165.5 -78t-171 66t-50.5 196t51.5 194.5t173.5 64.5t166 -91q47 91 157 91t162.5 -56t52.5 -172l-8 -79h-310q1 -60 27 -87.5t97.5 -27.5t146.5 6zM175.5 125.5q23.5 -38.5 90 -38.5t89.5 38.5t23 124.5 t-25.5 124.5t-88 38.5t-87.5 -37t-25 -124.5t23.5 -126zM487 288h210q0 69 -23.5 97.5t-79 28.5t-81.5 -30.5t-26 -95.5z" glyph-name="oe" horiz-adv-x="844" unicode="œ"/><glyph d="M190 244v-244h-111v685h260q232 0 232 -218q0 -146 -112 -198l113 -269h-122l-99 244h-161zM457 466q0 123 -118 123h-149v-249h151q60 0 88 34.5t28 91.5zM178 836l236 103l35 -97l-243 -82z" glyph-name="Racute" horiz-adv-x="618" unicode="Ŕ"/><glyph d="M66 0v500h108v-60q85 55 170 71v-109q-86 -17 -147 -44l-22 -9v-349h-109zM56 647l236 101l34 -94l-244 -78z" glyph-name="racute" horiz-adv-x="361" unicode="ŕ"/><glyph d="M226 -300l43 223h106l-52 -223h-97zM190 244v-244h-111v685h260q232 0 232 -218q0 -146 -112 -198l113 -269h-122l-99 244h-161zM457 466q0 123 -118 123h-149v-249h151q60 0 88 34.5t28 91.5z" glyph-name="Rcommaaccent" horiz-adv-x="618" unicode="Ŗ"/><glyph d="M66 -77h106l-52 -223h-97zM66 0v500h108v-60q85 55 170 71v-109q-86 -17 -147 -44l-22 -9v-349h-109z" glyph-name="rcommaaccent" horiz-adv-x="361" unicode="ŗ"/><glyph d="M190 244v-244h-111v685h260q232 0 232 -218q0 -146 -112 -198l113 -269h-122l-99 244h-161zM457 466q0 123 -118 123h-149v-249h151q60 0 88 34.5t28 91.5zM253 776l-134 143h117l65 -66l63 66h117l-134 -143h-94z" glyph-name="Rcaron" horiz-adv-x="618" unicode="Ř"/><glyph d="M66 0v500h108v-60q85 55 170 71v-109q-86 -17 -147 -44l-22 -9v-349h-109zM139 585l-125 146h102l59 -75l58 75h102l-127 -146h-69z" glyph-name="rcaron" horiz-adv-x="361" unicode="ř"/><glyph d="M280 599q-127 0 -127 -89q0 -46 30 -65.5t132.5 -48t144.5 -68t42 -124.5q0 -108 -61.5 -161.5t-167.5 -53.5q-85 0 -188 20l-36 7l11 89q135 -18 206 -18q124 0 124 110q0 43 -28 63.5t-126 45t-146 67.5t-48 136t60.5 140.5t167.5 47.5q77 0 182 -18l35 -6l-9 -90 q-140 16 -198 16zM153 836l236 103l35 -97l-243 -82z" glyph-name="Sacute" horiz-adv-x="543" unicode="Ś"/><glyph d="M413 397q-118 16 -171 16t-73.5 -12.5t-20.5 -39.5t22.5 -38t106 -25.5t118.5 -45.5t35 -110t-50.5 -116t-147.5 -37q-61 0 -154 17l-31 5l4 91q120 -16 173 -16t75.5 13t22.5 43t-21.5 41.5t-103 25t-119.5 42.5t-38 106t52.5 115t134.5 38q64 0 157 -16l31 -6zM101 647 l236 101l34 -94l-244 -78z" glyph-name="sacute" horiz-adv-x="469" unicode="ś"/><glyph d="M280 599q-127 0 -127 -89q0 -46 30 -65.5t132.5 -48t144.5 -68t42 -124.5q0 -108 -61.5 -161.5t-167.5 -53.5q-85 0 -188 20l-36 7l11 89q135 -18 206 -18q124 0 124 110q0 43 -28 63.5t-126 45t-146 67.5t-48 136t60.5 140.5t167.5 47.5q77 0 182 -18l35 -6l-9 -90 q-140 16 -198 16zM94 775l134 143h94l134 -143h-116l-64 67l-65 -67h-117z" glyph-name="Scircumflex" horiz-adv-x="543" unicode="Ŝ"/><glyph d="M413 397q-118 16 -171 16t-73.5 -12.5t-20.5 -39.5t22.5 -38t106 -25.5t118.5 -45.5t35 -110t-50.5 -116t-147.5 -37q-61 0 -154 17l-31 5l4 91q120 -16 173 -16t75.5 13t22.5 43t-21.5 41.5t-103 25t-119.5 42.5t-38 106t52.5 115t134.5 38q64 0 157 -16l31 -6zM75 585 l125 146h69l127 -146h-102l-58 76l-58 -76h-103z" glyph-name="scircumflex" horiz-adv-x="469" unicode="ŝ"/><glyph d="M396 -60q28 -17 28 -68t-27.5 -77t-76.5 -26q-38 0 -77 7l-13 3l4 65q34 -2 55 -2q41 0 41 31q0 15 -9.5 21t-31.5 6h-31v89q-73 2 -176 21l-33 6l11 89q135 -18 206 -18q124 0 124 110q0 43 -28 63.5t-126 45t-146 67.5t-48 136t60.5 140.5t167.5 47.5q77 0 182 -18 l35 -6l-9 -90q-140 16 -198 16q-127 0 -127 -89q0 -46 30 -65.5t132.5 -48t144.5 -68t42 -132t-52.5 -145.5t-144.5 -60v-33q63 -1 91 -18z" glyph-name="Scedilla" horiz-adv-x="543" unicode="Ş"/><glyph d="M342 -60q28 -17 28 -68t-27.5 -77t-76.5 -26q-38 0 -77 7l-13 3l4 65q34 -2 55 -2q41 0 41 31q0 15 -9.5 21t-31.5 6h-31v90q-69 4 -133 16l-24 5l4 91q120 -16 173 -16t75.5 13t22.5 43t-21.5 41.5t-103 25t-119.5 42.5t-38 106t52.5 115t134.5 38q64 0 157 -16l31 -6 l-2 -91q-118 16 -171 16t-73.5 -12.5t-20.5 -39.5t22.5 -38t106 -25.5t118.5 -45.5t35 -108q0 -148 -179 -154v-32q63 -1 91 -18z" glyph-name="scedilla" horiz-adv-x="469" unicode="ş"/><glyph d="M280 599q-127 0 -127 -89q0 -46 30 -65.5t132.5 -48t144.5 -68t42 -124.5q0 -108 -61.5 -161.5t-167.5 -53.5q-85 0 -188 20l-36 7l11 89q135 -18 206 -18q124 0 124 110q0 43 -28 63.5t-126 45t-146 67.5t-48 136t60.5 140.5t167.5 47.5q77 0 182 -18l35 -6l-9 -90 q-140 16 -198 16zM242 776l-134 143h117l65 -66l63 66h117l-134 -143h-94z" glyph-name="Scaron" horiz-adv-x="543" unicode="Š"/><glyph d="M413 397q-118 16 -171 16t-73.5 -12.5t-20.5 -39.5t22.5 -38t106 -25.5t118.5 -45.5t35 -110t-50.5 -116t-147.5 -37q-61 0 -154 17l-31 5l4 91q120 -16 173 -16t75.5 13t22.5 43t-21.5 41.5t-103 25t-119.5 42.5t-38 106t52.5 115t134.5 38q64 0 157 -16l31 -6zM209 585 l-125 146h102l59 -75l58 75h102l-127 -146h-69z" glyph-name="scaron" horiz-adv-x="469" unicode="š"/><glyph glyph-name="Tcedilla" horiz-adv-x="0" unicode="Ţ"/><glyph d="M335 407h-138v-220q0 -61 9 -81t46 -20l82 3l5 -87q-67 -13 -102 -13q-85 0 -116.5 39t-31.5 147v232h-64v93h64v145h108v-145h138v-93zM248 -60q28 -17 28 -68t-27.5 -77t-76.5 -26q-38 0 -77 7l-13 3l4 65q34 -2 55 -2q41 0 41 31q0 15 -9.5 21t-31.5 6h-31v101h47v-43 q63 -1 91 -18z" glyph-name="tcedilla" horiz-adv-x="358" unicode="ţ"/><glyph d="M13 586v99h500v-99h-193v-586h-112v586h-195zM217 776l-134 143h117l65 -66l63 66h117l-134 -143h-94z" glyph-name="Tcaron" horiz-adv-x="526" unicode="Ť"/><glyph d="M336 401h-138v-208q0 -61 9 -81t46 -20l81 3l6 -93q-67 -13 -102 -13q-85 0 -117 39.5t-32 146.5v226h-64v98h64v146h109v-146h138v-98zM478 693v-249h-105v249h105z" glyph-name="tcaron" horiz-adv-x="463" unicode="ť"/><glyph d="M14 586v99h500v-99h-193v-218h150v-94h-150v-274h-112v274h-145v94h145v218h-195z" glyph-name="Tbar" horiz-adv-x="529" unicode="Ŧ"/><glyph d="M336 401h-138v-91h112v-82h-112v-35q0 -61 9 -81t46 -20l82 3l5 -93q-67 -13 -102 -13q-85 0 -116.5 39t-31.5 147v53h-41v82h41v91h-64v98h64v146h108v-146h138v-98z" glyph-name="tbar" horiz-adv-x="360" unicode="ŧ"/><glyph d="M185 219q0 -133 140 -133t140 133v466h112v-464q0 -121 -63.5 -176.5t-189 -55.5t-188.5 55.5t-63 176.5v464h112v-466zM403 777q-24 0 -87 25t-76 25q-25 0 -64 -33l-13 -11l-24 78q6 7 15.5 17.5t36 27.5t52.5 17t87.5 -25t72.5 -25q22 0 63 33l13 11l24 -79 q-15 -21 -45.5 -41t-54.5 -20z" glyph-name="Utilde" horiz-adv-x="650" unicode="Ũ"/><glyph d="M477 500v-500h-108v31l-20 -11q-20 -10 -53.5 -20.5t-61.5 -10.5q-103 0 -138 55.5t-35 194.5v261h109v-262q0 -90 15 -121t72.5 -31t111.5 26v388h108zM380.5 613q-25.5 -16 -46.5 -16t-69.5 20t-62.5 20q-24 0 -63 -25l-13 -9l-24 63l16 16q9 9 35 24.5t47.5 15.5 t70 -20t60.5 -20q22 0 63 27l13 9l24 -64l-15 -16q-10 -9 -35.5 -25z" glyph-name="utilde" horiz-adv-x="543" unicode="ũ"/><glyph d="M185 219q0 -133 140 -133t140 133v466h112v-464q0 -121 -63.5 -176.5t-189 -55.5t-188.5 55.5t-63 176.5v464h112v-466zM162 795v81h332v-81h-332z" glyph-name="Umacron" horiz-adv-x="650" unicode="Ū"/><glyph d="M477 500v-500h-108v31l-20 -11q-20 -10 -53.5 -20.5t-61.5 -10.5q-103 0 -138 55.5t-35 194.5v261h109v-262q0 -90 15 -121t72.5 -31t111.5 26v388h108zM130 609v82h282v-82h-282z" glyph-name="umacron" horiz-adv-x="543" unicode="ū"/><glyph d="M185 219q0 -133 140 -133t140 133v466h112v-464q0 -121 -63.5 -176.5t-189 -55.5t-188.5 55.5t-63 176.5v464h112v-466zM275.5 867q20.5 -18 52.5 -18t52.5 18t22.5 47h99q-6 -65 -51 -104t-123.5 -39t-123.5 39t-50 104h99q2 -29 22.5 -47z" glyph-name="Ubreve" horiz-adv-x="650" unicode="Ŭ"/><glyph d="M477 500v-500h-108v31l-20 -11q-20 -10 -53.5 -20.5t-61.5 -10.5q-103 0 -138 55.5t-35 194.5v261h109v-262q0 -90 15 -121t72.5 -31t111.5 26v388h108zM217.5 674q19.5 -20 52 -20t51.5 20.5t21 53.5h84q-6 -63 -47.5 -106t-109.5 -43t-110 43t-48 106h84 q3 -34 22.5 -54z" glyph-name="ubreve" horiz-adv-x="543" unicode="ŭ"/><glyph d="M185 219q0 -133 140 -133t140 133v466h112v-464q0 -121 -63.5 -176.5t-189 -55.5t-188.5 55.5t-63 176.5v464h112v-466zM464 842q0 -54 -39 -85.5t-97.5 -31.5t-97.5 31.5t-39 85.5t39 85.5t97.5 31.5t97.5 -31.5t39 -85.5zM267 842q0 -22 16 -34t44 -12t44.5 12t16.5 34 t-16.5 34.5t-44.5 12.5t-44 -12.5t-16 -34.5z" glyph-name="Uring" horiz-adv-x="650" unicode="Ů"/><glyph d="M477 500v-500h-108v31l-20 -11q-20 -10 -53.5 -20.5t-61.5 -10.5q-103 0 -138 55.5t-35 194.5v261h109v-262q0 -90 15 -121t72.5 -31t111.5 26v388h108zM192 561.5q-32 31.5 -32 79t32 79.5t79 32t79.5 -32.5t32.5 -79.5t-32.5 -78.5t-79.5 -31.5t-79 31.5zM236 676.5 q-14 -14.5 -14 -36t14 -36t35.5 -14.5t35.5 14.5t14 36t-14 36t-35.5 14.5t-35.5 -14.5z" glyph-name="uring" horiz-adv-x="543" unicode="ů"/><glyph d="M185 219q0 -133 140 -133t140 133v466h112v-464q0 -121 -63.5 -176.5t-189 -55.5t-188.5 55.5t-63 176.5v464h112v-466zM357 779l99 169l90 -39l-108 -164zM153 780l100 169l89 -39l-107 -164z" glyph-name="Uhungarumlaut" horiz-adv-x="650" unicode="Ű"/><glyph d="M477 500v-500h-108v31l-20 -11q-20 -10 -53.5 -20.5t-61.5 -10.5q-103 0 -138 55.5t-35 194.5v261h109v-262q0 -90 15 -121t72.5 -31t111.5 26v388h108zM301 626l129 168l85 -57l-135 -166zM102 626l129 167l85 -56l-135 -166z" glyph-name="uhungarumlaut" horiz-adv-x="543" unicode="ű"/><glyph d="M185 219q0 -133 140 -133t140 133v466h112v-464q0 -186 -159 -222q-61 -55 -61 -89q0 -17 10 -27.5t26 -10.5l45 5l10 -79q-53 -10 -94.5 -10t-70 25t-28.5 73.5t56 102.5q-119 3 -178.5 58.5t-59.5 173.5v464h112v-466z" glyph-name="Uogonek" horiz-adv-x="651" unicode="Ų"/><glyph d="M369 499h108v-499q-24 -15 -48.5 -43t-24.5 -46t10 -28.5t26 -10.5l45 5l10 -79q-53 -10 -95 -10t-70.5 25t-28.5 68q0 61 76 119h-8v26q-78 -37 -135 -37q-103 0 -138 55.5t-35 194.5v260h109v-260q0 -90 15 -121t70 -31q39 0 96 19l18 6v387z" glyph-name="uogonek" horiz-adv-x="543" unicode="ų"/><glyph d="M24 685h117l98 -589h21l130 587h130l130 -587h22l98 589h117l-135 -685h-179l-118 549l-117 -549h-180zM275 775l134 143h94l134 -143h-116l-64 67l-65 -67h-117z" glyph-name="Wcircumflex" horiz-adv-x="911" unicode="Ŵ"/><glyph d="M27 500h107l79 -407h20l95 397h112l95 -397h20l78 407h108l-106 -500h-173l-78 343l-78 -343h-173zM225 585l125 146h69l127 -146h-102l-58 76l-58 -76h-103z" glyph-name="wcircumflex" horiz-adv-x="768" unicode="ŵ"/><glyph d="M331 0h-112v282l-215 403h125l145 -294l146 294h124l-213 -403v-282zM95 776l134 143h94l134 -143h-116l-64 67l-65 -67h-117z" glyph-name="Ycircumflex" horiz-adv-x="549" unicode="Ŷ"/><glyph d="M20 500h107l106 -407h27l106 407h108l-190 -715h-107l60 215h-86zM88 585l125 146h69l127 -146h-102l-58 76l-58 -76h-103z" glyph-name="ycircumflex" horiz-adv-x="492" unicode="ŷ"/><glyph d="M331 0h-112v282l-215 403h125l145 -294l146 294h124l-213 -403v-282zM116 783v114h104v-114h-104zM325 783v114h104v-114h-104z" glyph-name="Ydieresis" horiz-adv-x="549" unicode="Ÿ"/><glyph d="M42 588v97h450v-107l-318 -462v-19h318v-97h-450v106l317 462v20h-317zM135 836l236 103l35 -97l-243 -82z" glyph-name="Zacute" horiz-adv-x="534" unicode="Ź"/><glyph d="M41 500h371v-97l-240 -306h240v-97h-371v97l241 306h-241v97zM95 647l236 101l34 -94l-244 -78z" glyph-name="zacute" horiz-adv-x="454" unicode="ź"/><glyph d="M42 588v97h450v-107l-318 -462v-19h318v-97h-450v106l317 462v20h-317zM213 782v114h108v-114h-108z" glyph-name="Zdotaccent" horiz-adv-x="534" unicode="Ż"/><glyph d="M41 500h371v-97l-240 -306h240v-97h-371v97l241 306h-241v97zM172 579v114h108v-114h-108z" glyph-name="zdotaccent" horiz-adv-x="454" unicode="ż"/><glyph d="M42 588v97h450v-107l-318 -462v-19h318v-97h-450v106l317 462v20h-317zM225 776l-134 143h117l65 -66l63 66h117l-134 -143h-94z" glyph-name="Zcaron" horiz-adv-x="534" unicode="Ž"/><glyph d="M41 403v97h371v-97l-240 -306h240v-97h-371v97l241 306h-241zM199 585l-125 146h102l59 -75l58 75h102l-127 -146h-69z" glyph-name="zcaron" horiz-adv-x="454" unicode="ž"/><glyph d="M304 -50q0 -102 -37 -142t-121 -40q-36 0 -88 8l-16 3v90q63 -4 92 -4q61 0 61 87v425h-58v93h58v37q0 102 30 148.5t111 46.5q26 0 88 -8l19 -3v-89q-45 2 -78.5 2t-47 -20.5t-13.5 -68.5v-45h131v-93h-131v-427z" glyph-name="florin" unicode="ƒ"/><glyph d="M435 731q0 -38 -20 -66l165 -665h-112l-37 147h-263l-37 -147h-111l163 663q-21 29 -21 75.5t39 78t97.5 31.5t97.5 -31.5t39 -85.5zM275 592l-85 -347h219l-84 347h-50zM155 933l236 103l35 -97l-243 -82zM238 731q0 -22 16 -34t44 -12h5q26 1 41 13t15 33.5t-16.5 34 t-44.5 12.5t-44 -12.5t-16 -34.5z" glyph-name="Aringacute" horiz-adv-x="599" unicode="Ǻ"/><glyph d="M436 346v-228q1 -22 11.5 -32.5t32.5 -13.5l-3 -83q-86 0 -133 37q-80 -37 -161 -37q-149 0 -149 159q0 76 40.5 110t124.5 41l129 11v36q0 40 -17.5 56t-51.5 16q-64 0 -160 -8l-32 -2l-4 77q109 26 200.5 26t132 -39.5t40.5 -125.5zM212 222q-69 -6 -69 -75t61 -69 q50 0 106 16l18 6v133zM170 561.5q-32 31.5 -32 79t32 79.5t79 32t79.5 -32.5t32.5 -79.5t-32.5 -78.5t-79.5 -31.5t-79 31.5zM214 676.5q-14 -14.5 -14 -36t14 -36t35.5 -14.5t35.5 14.5t14 36t-14 36t-35.5 14.5t-35.5 -14.5zM118 840l236 101l34 -94l-244 -78z" glyph-name="aringacute" horiz-adv-x="507" unicode="ǻ"/><glyph d="M400 0v142h-229l-42 -142h-113l202 693h612v-107h-320v-181h260v-105h-260v-193h320v-107h-430zM297 586l-98 -337h201l1 337h-104zM386 836l236 103l35 -97l-243 -82z" glyph-name="AEacute" horiz-adv-x="874" unicode="Ǽ"/><glyph d="M706 94l29 3l2 -85q-115 -23 -209 -23t-144 50l-27 -12q-86 -38 -180 -38q-70 0 -106.5 42t-36.5 119.5t42.5 110.5t134.5 40l117 9v32q0 32 -17.5 48.5t-49.5 16.5q-75 0 -159 -8l-32 -3l-4 96q127 18 211 18t123 -52q49 52 149 52q204 0 204 -228l-7 -79h-310 q1 -60 27 -87.5t97.5 -27.5t145.5 6zM197 82q45 0 90 11.5t48 13.5q-8 47 -8 119l-115 -8q-69 -5 -69 -70.5t54 -65.5zM436 288h210q0 68 -24 97t-79.5 29t-81 -30t-25.5 -96zM271 647l236 101l34 -94l-244 -78z" glyph-name="aeacute" horiz-adv-x="793" unicode="ǽ"/><glyph d="M329 -11q-61 0 -107 12l-57 -123l-80 39l58 124q-93 75 -93 298q0 181 62.5 269t216.5 88q61 0 112 -16l58 125l82 -35l-62 -133q88 -80 88 -298q0 -182 -61.5 -266t-216.5 -84zM200 537q-35 -62 -35 -196t30 -189l203 436q-30 11 -69 11q-94 0 -129 -62zM329 86 q96 0 129.5 58t33.5 188.5t-27 189.5l-199 -428q29 -8 63 -8zM187 836l236 103l35 -97l-243 -82z" glyph-name="Oslashacute" horiz-adv-x="658" unicode="Ǿ"/><glyph d="M265 511q26 0 64 -6l41 101l68 -25l-42 -101q92 -55 92 -227q0 -132 -50 -198t-173 -66q-38 0 -68 6l-43 -105l-67 25l44 105q-89 57 -89 233q0 128 51.5 193t171.5 65zM265 81q67 0 90 40t23 132t-26 129l-121 -298q15 -3 34 -3zM131 647l236 101l34 -94l-244 -78z M265 419q-64 0 -88.5 -38t-24.5 -132.5t24 -129.5l119 297q-13 3 -30 3z" glyph-name="oslashacute" horiz-adv-x="530" unicode="ǿ"/><glyph d="M230 -77h106l-53 -223h-97zM280 599q-127 0 -127 -89q0 -46 30 -65.5t132.5 -48t144.5 -68t42 -124.5q0 -108 -61.5 -161.5t-167.5 -53.5q-85 0 -188 20l-36 7l11 89q135 -18 206 -18q124 0 124 110q0 43 -28 63.5t-126 45t-146 67.5t-48 136t60.5 140.5t167.5 47.5 q77 0 182 -18l35 -6l-9 -90q-140 16 -198 16z" glyph-name="Scommaaccent" horiz-adv-x="543" unicode="Ș"/><glyph d="M82 -77h106l-53 -223h-97zM413 397q-118 16 -171 16t-73.5 -12.5t-20.5 -39.5t22.5 -38t106 -25.5t118.5 -45.5t35 -110t-50.5 -116t-147.5 -37q-61 0 -154 17l-31 5l4 91q120 -16 173 -16t75.5 13t22.5 43t-21.5 41.5t-103 25t-119.5 42.5t-38 106t52.5 115t134.5 38 q64 0 157 -16l31 -6z" glyph-name="scommaaccent" horiz-adv-x="469" unicode="ș"/><glyph d="M233 -77h106l-53 -223h-97zM13 586v99h500v-99h-193v-586h-112v586h-195z" glyph-name="Tcommaaccent" horiz-adv-x="526" unicode="Ț"/><glyph d="M89 -77h106l-53 -223h-97zM335 407h-138v-220q0 -61 9 -81t46 -20l82 3l5 -87q-67 -13 -102 -13q-85 0 -116.5 39t-31.5 147v232h-64v93h64v145h108v-145h138v-93z" glyph-name="tcommaaccent" horiz-adv-x="358" unicode="ț"/><glyph d="M-22 585l125 146h69l127 -146h-102l-58 76l-58 -76h-103z" glyph-name="circumflex" horiz-adv-x="254" unicode="ˆ"/><glyph d="M106 585l-125 146h102l59 -75l58 75h102l-127 -146h-69z" glyph-name="caron" horiz-adv-x="254" unicode="ˇ"/><glyph d="M87.5 674q19.5 -20 52 -20t51.5 20.5t21 53.5h84q-6 -63 -47.5 -106t-109.5 -43t-110 43t-48 106h84q3 -34 22.5 -54z" glyph-name="breve" horiz-adv-x="254" unicode="˘"/><glyph d="M73 579v114h108v-114h-108z" glyph-name="dotaccent" horiz-adv-x="254" unicode="˙"/><glyph d="M51 561.5q-32 31.5 -32 79t32 79.5t79 32t79.5 -32.5t32.5 -79.5t-32.5 -78.5t-79.5 -31.5t-79 31.5zM95 676.5q-14 -14.5 -14 -36t14 -36t35.5 -14.5t35.5 14.5t14 36t-14 36t-35.5 14.5t-35.5 -14.5z" glyph-name="ring" horiz-adv-x="254" unicode="˚"/><glyph d="M308 -90q0 -17 10 -27.5t26 -10.5l45 5l10 -79q-53 -10 -94.5 -10t-70 25t-28.5 62.5t20 69.5t40 49l21 16l85 -9q-64 -57 -64 -91z" glyph-name="ogonek" horiz-adv-x="464" unicode="˛"/><glyph d="M253.5 613q-25.5 -16 -46.5 -16t-69.5 20t-61.5 20q-25 0 -64 -25l-13 -9l-24 63l15 16q10 9 36 24.5t47.5 15.5t70 -20t60.5 -20q22 0 62 27l14 9l24 -64l-16 -16q-9 -9 -34.5 -25z" glyph-name="tilde" horiz-adv-x="254" unicode="˜"/><glyph d="M149 626l129 168l85 -57l-135 -166zM-50 626l129 167l85 -56l-135 -166z" glyph-name="hungarumlaut" horiz-adv-x="254" unicode="˝"/><glyph d="M337 154v253h-116l-27 -407h-109l31 407q-35 0 -82 -10l-14 -3v89q62 17 146 17h244q61 0 104 10l15 3v-90q-26 -11 -84 -14v-255q0 -39 15.5 -54t61.5 -15v-92q-62 0 -96.5 6t-55.5 25.5t-27 48.5t-6 81z" glyph-name="pi" unicode="π"/><glyph d="M24 685h117l98 -589h21l130 587h130l130 -587h22l98 589h117l-135 -685h-179l-118 549l-117 -549h-180zM358 939l236 -103l-28 -76l-243 82z" glyph-name="Wgrave" horiz-adv-x="911" unicode="Ẁ"/><glyph d="M27 500h107l79 -407h20l95 397h112l95 -397h20l78 407h108l-106 -500h-173l-78 343l-78 -343h-173zM265 748l236 -101l-26 -71l-244 78z" glyph-name="wgrave" horiz-adv-x="768" unicode="ẁ"/><glyph d="M24 685h117l98 -589h21l130 587h130l130 -587h22l98 589h117l-135 -685h-179l-118 549l-117 -549h-180zM330 836l236 103l35 -97l-243 -82z" glyph-name="Wacute" horiz-adv-x="911" unicode="Ẃ"/><glyph d="M27 500h107l79 -407h20l95 397h112l95 -397h20l78 407h108l-106 -500h-173l-78 343l-78 -343h-173zM262 647l236 101l34 -94l-244 -78z" glyph-name="wacute" horiz-adv-x="768" unicode="ẃ"/><glyph d="M24 685h117l98 -589h21l130 587h130l130 -587h22l98 589h117l-135 -685h-179l-118 549l-117 -549h-180zM298 783v114h104v-114h-104zM507 783v114h104v-114h-104z" glyph-name="Wdieresis" horiz-adv-x="911" unicode="Ẅ"/><glyph d="M27 500h107l79 -407h20l95 397h112l95 -397h20l78 407h108l-106 -500h-173l-78 343l-78 -343h-173zM229 607v114h104v-114h-104zM438 607v114h104v-114h-104z" glyph-name="wdieresis" horiz-adv-x="768" unicode="ẅ"/><glyph d="M436 346v-228q1 -22 11.5 -32.5t32.5 -13.5l-3 -83q-86 0 -133 37q-80 -37 -161 -37q-149 0 -149 159q0 76 40.5 110t124.5 41l129 11v36q0 40 -17.5 56t-51.5 16q-64 0 -160 -8l-32 -2l-4 77q109 26 200.5 26t132 -39.5t40.5 -125.5zM212 222q-69 -6 -69 -75t61 -69 q50 0 106 16l18 6v133zM75 555l125 146h69l127 -146h-102l-58 76l-58 -76h-103zM343.5 757q-25.5 -16 -46.5 -16t-69.5 20t-61.5 20q-25 0 -64 -25l-13 -9l-24 63l15 16q10 9 36 24.5t47.5 15.5t70 -20t60.5 -20q22 0 62 27l14 9l24 -64l-16 -16q-9 -9 -34.5 -25z" glyph-name="uni1EAB" horiz-adv-x="507" unicode="ẫ"/><glyph d="M20 0l169 693h221l167 -692h-112l-40 141h-257l-37 -142h-111zM275 590l-83 -341h211l-81 341h-47zM248.5 830q20.5 -18 52.5 -18t52.5 18t22.5 47h99q-6 -65 -51 -104t-123.5 -39t-123.5 39t-50 104h99q2 -29 22.5 -47zM144 1101l236 -101l-26 -71l-244 78z" glyph-name="uni1EB0" horiz-adv-x="597" unicode="Ằ"/><glyph d="M422 94l28 3l2 -85q-114 -23 -202 -23q-111 0 -159.5 61t-48.5 195q0 265 217 265q106 0 158 -56t52 -172l-7 -79h-310q1 -60 27 -87.5t97 -27.5t146 6zM362 288q0 68 -24 97t-79.5 29t-81 -30t-26.5 -96h211zM101 555l125 146h69l127 -146h-102l-58 76l-58 -76h-103z M366.5 757q-25.5 -16 -46.5 -16t-69.5 20t-62.5 20q-24 0 -63 -25l-13 -9l-24 63l16 16q9 9 35 24.5t47.5 15.5t70 -20t60.5 -20q22 0 63 27l13 9l24 -64l-15 -16q-10 -9 -35.5 -25z" glyph-name="uni1EC5" horiz-adv-x="509" unicode="ễ"/><glyph d="M265 511q120 0 171.5 -65t51.5 -195t-50 -196t-173 -66t-173 66t-50 196t51.5 195t171.5 65zM265 81q67 0 90 40t23 131t-24.5 129t-88.5 38t-88.5 -38t-24.5 -129t23 -131t90 -40zM103 555l125 146h69l127 -146h-102l-58 76l-58 -76h-103zM363.5 757 q-25.5 -16 -46.5 -16t-69.5 20t-61.5 20q-25 0 -64 -25l-13 -9l-24 63l15 16q10 9 36 24.5t47.5 15.5t70 -20t60.5 -20q22 0 62 27l14 9l24 -64l-16 -16q-9 -9 -34.5 -25z" glyph-name="uni1ED7" horiz-adv-x="530" unicode="ỗ"/><glyph d="M331 0h-112v282l-215 403h125l145 -294l146 294h124l-213 -403v-282zM175 939l236 -103l-28 -76l-243 82z" glyph-name="Ygrave" horiz-adv-x="549" unicode="Ỳ"/><glyph d="M20 500h107l106 -407h27l106 407h108l-190 -715h-107l60 215h-86zM125 748l236 -101l-26 -71l-244 78z" glyph-name="ygrave" horiz-adv-x="492" unicode="ỳ"/><glyph d="M325 0h-111v297l-213 396h124l144 -272l143 272h124l-211 -397v-296zM378.5 806q-25.5 -16 -46.5 -16t-69.5 20t-62.5 20q-24 0 -63 -26l-13 -8l-24 63l16 15q9 10 35 25.5t47.5 15.5t70 -20t60.5 -20q22 0 63 27l13 9l24 -64l-15 -15q-10 -10 -35.5 -26z" glyph-name="uni1EF8" horiz-adv-x="537" unicode="Ỹ"/><glyph d="M20 499h107l106 -394h27l106 394h108l-190 -714h-107l57 215h-83zM357.5 613q-25.5 -16 -46.5 -16t-69.5 20t-61.5 20q-25 0 -64 -25l-13 -9l-24 63l15 16q10 9 36 24.5t47.5 15.5t70 -20t60.5 -20q22 0 62 27l14 9l24 -64l-16 -16q-9 -9 -34.5 -25z" glyph-name="uni1EF9" horiz-adv-x="492" unicode="ỹ"/><glyph d="M61 313h500v-93h-500v93z" glyph-name="endash" horiz-adv-x="622" unicode="–"/><glyph d="M61 313h1000v-93h-1000v93z" glyph-name="emdash" horiz-adv-x="1122" unicode="—"/><glyph d="M201 691l-45 -235h-114l76 235h83z" glyph-name="quoteleft" horiz-adv-x="242" unicode="‘"/><glyph d="M47 457l45 235h114l-76 -235h-83z" glyph-name="quoteright" horiz-adv-x="238" unicode="’"/><glyph d="M57 -57l22 113h54l-36 -113h-40z" glyph-name="quotesinglbase" horiz-adv-x="239" unicode="‚"/><glyph d="M372 691l-45 -235h-114l76 235h83zM201 691l-45 -235h-114l76 235h83z" glyph-name="quotedblleft" horiz-adv-x="413" unicode="“"/><glyph d="M47 458l45 235h114l-76 -235h-83zM220 458l45 235h114l-76 -235h-83z" glyph-name="quotedblright" horiz-adv-x="412" unicode="”"/><glyph d="M165 115l-45 -235h-114l76 235h83zM339 115l-45 -235h-114l76 235h83z" glyph-name="quotedblbase" horiz-adv-x="394" unicode="„"/><glyph d="M31 407v93h154v185h109v-185h155v-93h-155l-8 -480h-93l-8 480h-154z" glyph-name="dagger" horiz-adv-x="479" unicode="†"/><glyph d="M204 -73v185h-155v93h155v202h-155v93h155v185h108v-185h154v-93h-154v-202h155v-93h-155v-185h-108z" glyph-name="daggerdbl" horiz-adv-x="516" unicode="‡"/><glyph d="M105 103v282h250v-282h-250z" glyph-name="bullet" horiz-adv-x="460" unicode="•"/><glyph d="M61 0v144h117v-144h-117zM316 0v144h117v-144h-117zM570 0v144h117v-144h-117z" glyph-name="ellipsis" horiz-adv-x="748" unicode="…"/><glyph d="M122 586.5q-7 -17.5 -7 -57.5t7 -58t26.5 -18t26.5 17.5t7 58.5t-7 58t-26.5 17t-26.5 -17.5zM151 -6l222 697l62 -21l-222 -696zM33 529q0 142 115.5 142t115.5 -142q0 -72 -30 -108t-85.5 -36t-85.5 36t-30 108zM437 -11q-115 0 -115 143t115.5 143t115.5 -142 q0 -72 -30 -108t-86 -36zM410.5 189.5q-7.5 -17.5 -7.5 -57t7.5 -58t26.5 -18.5t26.5 18.5t7.5 58t-7.5 57t-26.5 17.5t-26.5 -17.5zM579 133q0 142 115.5 142t115.5 -142q0 -72 -30 -108t-85.5 -36t-85.5 36t-30 108zM667.5 189.5q-7.5 -17.5 -7.5 -57t7.5 -58t26.5 -18.5 t26.5 18t7.5 58.5t-7 57.5t-26.5 17t-27 -17.5z" glyph-name="perthousand" horiz-adv-x="841" unicode="‰"/><glyph d="M251 330l-116 -83l116 -94v-111l-209 162v81l209 155v-110z" glyph-name="guilsinglleft" horiz-adv-x="311" unicode="‹"/><glyph d="M175 254l-116 83v110l209 -155v-80l-209 -163v111z" glyph-name="guilsinglright" horiz-adv-x="311" unicode="›"/><glyph d="M-224 29l393 631l47 -30l-393 -633z" glyph-name="fraction" horiz-adv-x="0" unicode="⁄"/><glyph d="M45.5 762.5q30.5 37.5 94 37.5t94 -38t30.5 -129t-30.5 -128t-93.5 -37t-94 37t-31 128.5t30.5 129zM166.5 703.5q-7.5 18.5 -26 18.5t-26.5 -18.5t-8 -70.5t8 -69.5t26.5 -17.5t26 17t7.5 69.5t-7.5 71z" glyph-name="zerosuperior" horiz-adv-x="280" unicode="⁰"/><glyph d="M154 478v41h-136v73l52 198h98l-61 -192h47l10 89h77v-89h18v-79h-18v-41h-87z" glyph-name="foursuperior" horiz-adv-x="280" unicode="⁴"/><glyph d="M141 604q-16 0 -38 -8l-65 8l10 186h199v-75h-129l-4 -46q28 10 50 10q93 0 93 -99q0 -110 -113 -110q-45 0 -96 10l-17 4l6 71q56 -9 92.5 -9t36.5 29t-25 29z" glyph-name="fivesuperior" horiz-adv-x="280" unicode="⁵"/><glyph d="M111 676q34 9 47 9q103 0 103 -104q0 -53 -32 -83t-83 -30q-125 0 -125 157q0 89 30.5 132t101.5 43q24 0 81 -8l16 -3l-4 -72q-60 6 -90 6q-45 0 -45 -47zM144 613q-14 0 -24 -5.5t-10 -6.5q2 -57 32.5 -57t30.5 34.5t-29 34.5z" glyph-name="sixsuperior" horiz-adv-x="280" unicode="⁶"/><glyph d="M28 703v87h217v-91l-99 -230l-98 16l96 202v16h-116z" glyph-name="sevensuperior" horiz-adv-x="280" unicode="⁷"/><glyph d="M140 800q119 0 119 -87q0 -30 -11.5 -49.5t-22.5 -22.5q13 -3 26 -21t13 -50q0 -55 -31.5 -78.5t-93 -23.5t-92.5 22.5t-31 77.5q0 31 13.5 50t25.5 24q-11 4 -22.5 21.5t-11.5 49.5q0 87 119 87zM140 539q34 0 34 32q0 23 -24 36h-20q-24 -14 -24 -37q0 -31 34 -31z M140 729q-32 0 -32 -27q0 -21 22 -33h20q22 11 22 33q0 27 -32 27z" glyph-name="eightsuperior" horiz-adv-x="280" unicode="⁸"/><glyph d="M121 546q45 0 47 45q-25 -8 -47 -8q-49 0 -75 27t-26 79t31 81.5t90 29.5q119 0 119 -165q0 -86 -29.5 -126.5t-98.5 -40.5q-39 0 -86 9l-15 3l5 73q48 -7 85 -7zM116 662q8 -10 21.5 -10t33.5 9q0 62 -33 62q-30 0 -30 -35q0 -16 8 -26z" glyph-name="ninesuperior" horiz-adv-x="280" unicode="⁹"/><glyph d="M45.5 184.5q30.5 37.5 94 37.5t94 -38t30.5 -129t-30.5 -128t-93.5 -37t-94 37t-31 128.5t30.5 129zM166.5 125.5q-7.5 18.5 -26 18.5t-26.5 -18.5t-8 -70.5t8 -69.5t26.5 -17.5t26 17t7.5 69.5t-7.5 71z" glyph-name="zeroinferior" horiz-adv-x="280" unicode="₀"/><glyph d="M219 212v-312h-88v215l-56 -38l-41 62l105 73h80z" glyph-name="oneinferior" horiz-adv-x="280" unicode="₁"/><glyph d="M253 -100h-221v75l79 71q48 41 48 68q0 25 -42 25l-79 -7l-4 80q67 10 118 10t75 -22.5t24 -64.5t-13 -65.5t-45 -48.5l-49 -42h109v-79z" glyph-name="twoinferior" horiz-adv-x="280" unicode="₂"/><glyph d="M134 222q114 0 114 -86q0 -53 -34 -72q41 -16 41 -75q0 -99 -113 -99l-118 8l6 77q59 -7 96.5 -7t37.5 28q0 26 -35 26h-66v72h65q12 0 20 7t8 19q0 24 -35 24l-87 -6l-6 75q65 9 106 9z" glyph-name="threeinferior" horiz-adv-x="280" unicode="₃"/><glyph d="M159 -100v41h-136v73l52 198h98l-61 -192h47l10 89h77v-89h18v-79h-18v-41h-87z" glyph-name="fourinferior" horiz-adv-x="280" unicode="₄"/><glyph d="M133 26q-16 0 -38 -8l-65 8l10 186h199v-75h-129l-4 -46q28 10 50 10q93 0 93 -99q0 -110 -113 -110q-45 0 -96 10l-17 4l6 71q56 -9 92.5 -9t36.5 29t-25 29z" glyph-name="fiveinferior" horiz-adv-x="280" unicode="₅"/><glyph d="M107 98q34 9 47 9q103 0 103 -104q0 -53 -32 -83t-83 -30q-125 0 -125 157q0 89 30.5 132t101.5 43q27 0 81 -8l16 -3l-4 -72q-60 6 -90 6q-45 0 -45 -47zM140 35q-14 0 -24 -5.5t-10 -6.5q2 -57 32.5 -57t30.5 34.5t-29 34.5z" glyph-name="sixinferior" horiz-adv-x="280" unicode="₆"/><glyph d="M31 125v87h217v-91l-99 -230l-98 16l96 202v16h-116z" glyph-name="seveninferior" horiz-adv-x="280" unicode="₇"/><glyph d="M139 222q119 0 119 -87q0 -30 -11.5 -49.5t-22.5 -22.5q13 -3 26 -21t13 -50q0 -55 -31.5 -78.5t-93 -23.5t-92.5 22.5t-31 77.5q0 31 13.5 50t25.5 24q-11 4 -22.5 21.5t-11.5 49.5q0 87 119 87zM139 -39q34 0 34 32q0 23 -24 36h-20q-24 -14 -24 -37q0 -31 34 -31z M139 151q-32 0 -32 -27q0 -21 22 -33h20q22 11 22 33q0 27 -32 27z" glyph-name="eightinferior" horiz-adv-x="280" unicode="₈"/><glyph d="M120 -32q45 0 47 45q-25 -8 -47 -8q-49 0 -75 27t-26 79t31 81.5t90 29.5q119 0 119 -165q0 -86 -29.5 -126.5t-98.5 -40.5q-41 0 -86 9l-15 3l5 73q48 -7 85 -7zM115 84q8 -10 21.5 -10t33.5 9q0 62 -33 62q-30 0 -30 -35q0 -16 8 -26z" glyph-name="nineinferior" horiz-adv-x="280" unicode="₉"/><glyph d="M28 365v84h62q14 117 69 169.5t173 52.5q77 0 189 -24l-4 -87q-81 15 -160 15t-112 -28.5t-43 -97.5h258v-84h-265v-79h265v-84h-258q11 -64 44 -90.5t104 -26.5t167 14l3 -88q-99 -22 -188 -22q-116 0 -171 51.5t-70 161.5h-63v84h57q-1 14 -1 44v35h-56z" glyph-name="Euro" unicode="€"/><glyph d="M85 571v67h200v-67h-52v-239h-74v239h-74zM313 331v307h89l52 -180l56 180h88v-307h-69v196l-48 -178h-50l-49 178v-196h-69z" glyph-name="trademark" horiz-adv-x="668" unicode="™"/><glyph d="M49 84h99q-4 6 -11 16t-24 42t-30 66q-35 90 -35 173q0 152 52.5 221t179.5 69t179.5 -69t52.5 -221q0 -88 -36 -174q-31 -76 -54 -108l-10 -15h99v-93h-203v81q10 18 25 48t39.5 104.5t24.5 128.5q0 124 -22 172.5t-95 48.5t-95 -48.5t-22 -172.5q0 -54 22.5 -124 t44.5 -113l22 -44v-81h-203v93z" glyph-name="Omega" unicode="Ω"/><glyph d="M264 719q129 0 187.5 -88t58.5 -276t-57.5 -276t-186.5 -88q-112 0 -171 56.5t-59 164t56.5 165.5t158.5 58q68 0 123 -20l20 -7q-5 121 -37 169.5t-112 48.5q-32 0 -71 -10t-62 -20l-23 -9l-4 85q85 47 179 47zM394 316q-56 25 -121.5 25t-93 -34t-27.5 -92 q0 -131 114 -131q65 0 96.5 56t31.5 176z" glyph-name="partialdiff" unicode="∂"/><glyph d="M512 0h-464v84l139 576h186l139 -578v-82zM293 568h-26l-110 -475h245z" glyph-name="Delta" unicode="∆"/><glyph d="M356 -172v832h-154v-832h-111v832h-60v97h499v-97h-63v-832h-111z" glyph-name="product" unicode="∏"/><glyph d="M36 757h487v-98h-369v-18l233 -301v-77l-233 -318v-20h369v-97h-487v122l250 352l-250 333v122z" glyph-name="summation" unicode="∑"/><glyph d="M64 202v98h432v-98h-432z" glyph-name="minus" unicode="−"/><glyph d="M2 345v98h147l108 -483h12l190 825h110l-221 -918h-174l-115 478h-57z" glyph-name="radical" unicode="√"/><glyph d="M161 121q-65 0 -99 43.5t-34 127t33.5 127.5t97.5 44q41 0 70 -21t51 -69q22 48 51 69t70 21q64 0 97.5 -43.5t33.5 -127.5q0 -171 -133 -171q-40 0 -68.5 21t-50.5 68q-23 -50 -50 -69.5t-69 -19.5zM175 369q-47 0 -47 -77t47 -77q23 0 36 17.5t32 59.5q-14 29 -20 40.5 t-19.5 24t-28.5 12.5zM385 215q47 0 47 77t-47 77q-15 0 -28.5 -12.5t-19.5 -24t-20 -40.5q4 -13 9.5 -21t10 -16.5t6.5 -11.5t6.5 -9t8 -8t8.5 -6q7 -5 19 -5z" glyph-name="infinity" unicode="∞"/><glyph d="M333 -12q0 -99 -37.5 -140.5t-106.5 -41.5q-27 0 -78 8l-15 3l4 90q31 -3 62.5 -3t45 19t13.5 67v595q0 110 32.5 152.5t111.5 42.5q29 0 83 -8l16 -3l-4 -90q-34 4 -67 4t-46.5 -22t-13.5 -76v-597z" glyph-name="integral" unicode="∫"/><glyph d="M381.5 267q-27.5 0 -105.5 25.5t-97 25.5t-46 -10.5t-44 -21.5l-17 -10l-10 88q62 52 121 52q29 0 104 -25.5t95 -25.5q36 0 89 31l17 10l9 -87q-18 -18 -53 -35t-62.5 -17zM381.5 62q-27.5 0 -105.5 25.5t-97 25.5t-46 -10.5t-44 -20.5l-17 -11l-10 88q62 52 121 52 q29 0 104 -25.5t95 -25.5t46 10t43 20l17 11l9 -87q-18 -18 -53 -35t-62.5 -17z" glyph-name="approxequal" unicode="≈"/><glyph d="M60 301v98h233l68 155l85 -34l-53 -121h105v-98h-148l-44 -100h192v-98h-235l-64 -147l-85 34l49 113h-103v98h146l44 100h-190z" glyph-name="notequal" unicode="≠"/><glyph d="M488 402l-300 -72l300 -79v-106l-422 133v95l422 135v-106zM66 20v98h422v-98h-422z" glyph-name="lessequal" unicode="≤"/><glyph d="M372 330l-300 72v106l422 -135v-95l-422 -133v106zM494 118v-98h-422v98h422z" glyph-name="greaterequal" unicode="≥"/><glyph d="M206 172l-158 154l158 162h149l157 -162l-157 -154h-149zM290 247l112 79l-112 87h-20l-113 -87l113 -79h20z" glyph-name="lozenge" unicode="◊"/><glyph d="M67 19v481h108v-482q0 -98 -34.5 -145t-138.5 -100l-43 81q70 44 89 72t19 93z" glyph-name="dotlessj" horiz-adv-x="242" unicode=""/><glyph d="M7 -300l44 223h106l-53 -223h-97z" glyph-name="commaaccent" horiz-adv-x="170" unicode=""/><glyph glyph-name="CR" horiz-adv-x="235"/><glyph glyph-name="DLE" horiz-adv-x="0"/><glyph d="M103.5 447.5q57.5 61.5 164.5 61.5t163.5 -61t56.5 -203.5t-56.5 -198t-164 -55.5t-164.5 56t-57 197.5t57.5 203zM357.5 380q-28.5 36 -90 36t-90.5 -36.5t-29 -132t29.5 -129.5t90 -34t89.5 34t29 130t-28.5 132z" glyph-name="zero.pnum" horiz-adv-x="534"/><glyph d="M308 500v-500h-101v383l-150 -83l-38 82l202 118h87z" glyph-name="one.pnum" horiz-adv-x="378"/><glyph d="M436 0h-388v89l146 113q71 53 97.5 83t26.5 65t-25.5 48.5t-87.5 13.5q-27 0 -89 -7.5t-62 -8.5l-6 93q114 20 191 20q188 0 188 -146q0 -60 -28 -97.5t-95 -86.5l-112 -86h244v-93z" glyph-name="two.pnum" horiz-adv-x="481"/><glyph d="M50 491q110 19 193.5 19t131 -29t47.5 -101t-73 -113q88 -35 88 -123q0 -76 -53 -114.5t-141 -38.5q-79 0 -169 15l-32 6l12 93q108 -13 173.5 -13t86.5 14.5t21 46.5q0 56 -94 58h-129v89h128q80 2 80 59q0 54 -83 54q-66 0 -151 -10l-26 -3z" glyph-name="three.pnum" horiz-adv-x="482"/><glyph d="M299 -9v96h-267v75l139 338h108l-136 -316h156v123h102v-123h46v-97h-46v-96h-102z" glyph-name="four.pnum" horiz-adv-x="479"/><glyph d="M438 503v-106h-269l-13 -100q55 23 108 23q94 0 144 -39.5t50 -119t-52.5 -125t-149.5 -45.5q-75 0 -177 21l-34 7l12 93q123 -22 196 -22q93 0 93 67.5t-95 67.5q-45 0 -97 -20l-19 -7l-79 16l20 289h362z" glyph-name="five.pnum" horiz-adv-x="499"/><glyph d="M430 409q-100 10 -160 10t-91 -29t-31 -100q73 31 130 31q187 0 187 -164q0 -79 -58.5 -123t-158 -44t-151 63t-51.5 199t60 196.5t160 60.5q83 0 148 -11l23 -4zM262 226q-42 0 -96 -15l-18 -5q3 -127 110 -127q47 0 76 19t29 59q0 69 -101 69z" glyph-name="six.pnum" horiz-adv-x="503"/><glyph d="M31 411v89h356v-112l-204 -397l-88 24l195 374v22h-259z" glyph-name="seven.pnum" horiz-adv-x="417"/><glyph d="M252 509q92 0 144 -33.5t52 -105.5t-75 -108q29 -15 44 -26t28.5 -37t13.5 -64q0 -75 -56 -110t-150 -35t-150.5 35t-56.5 108q0 51 21.5 79.5t61.5 49.5q-72 37 -72 110q0 137 195 137zM252 78q105 0 105 66q0 31 -17.5 46.5t-53.5 26.5h-70q-36 -11 -52.5 -27.5 t-16.5 -47.5q0 -64 105 -64zM347 364q0 57 -94.5 57t-94.5 -57q0 -28 14 -43t44 -25h70q31 9 46 24.5t15 43.5z" glyph-name="eight.pnum" horiz-adv-x="505"/><glyph d="M224 82q54 0 83.5 32.5t29.5 97.5q-50 -25 -116 -25q-181 0 -181 155q0 79 53.5 123.5t142.5 44.5q205 0 205 -259.5t-217 -259.5q-82 0 -144 15l-20 5l9 85q79 -14 155 -14zM164.5 293q22.5 -18 57.5 -18q61 0 98 18l13 6q-3 121 -101 121q-46 0 -68 -18.5t-22 -54.5 t22.5 -54z" glyph-name="nine.pnum" horiz-adv-x="486"/><glyph d="M30 151q0 67 16.5 102t67.5 75t67.5 63.5t16.5 50.5v33h88q24 -31 24 -78q0 -25 -19 -50t-68 -65.5t-65 -63t-16 -58.5q0 -74 106 -74q50 0 126 14l23 5l6 -83q-93 -33 -169 -33q-105 0 -154.5 38.5t-49.5 123.5zM303 685v-140h-116v140h116z" glyph-name="questiondown.cap" horiz-adv-x="431"/><glyph d="M62 343h500v-93h-500v93z" glyph-name="endash.cap" horiz-adv-x="624"/><glyph d="M62 343h1000v-93h-1000v93z" glyph-name="emdash.cap" horiz-adv-x="1124"/><glyph d="M61 259v144h117v-144h-117z" glyph-name="periodcentered.cap" horiz-adv-x="239"/><glyph d="M192 686v-140h-117v140h117zM181 445l10 -444h-116l10 444h96z" glyph-name="exclamdown.cap" horiz-adv-x="266"/><glyph d="M163 331q0 -87 23.5 -193.5t47.5 -169.5l24 -63h-103q-14 23 -36 76.5t-37 101t-27 116t-12 151.5t28 195t56 173l28 62h103q-34 -86 -64.5 -224t-30.5 -225z" glyph-name="parenleft.cap" horiz-adv-x="289"/><glyph d="M126 359q0 87 -23.5 193.5t-47.5 169.5l-24 63h103q14 -23 36 -76.5t37 -101t27 -116t12 -151.5t-28 -195t-56 -173l-28 -62h-103q34 86 64.5 224t30.5 225z" glyph-name="parenright.cap" horiz-adv-x="289"/><glyph d="M306 779v-97h-123v-678h123v-97h-233v872h233z" glyph-name="bracketleft.cap" horiz-adv-x="344"/><glyph d="M38 682v97h233v-872h-233v97h123v678h-123z" glyph-name="bracketright.cap" horiz-adv-x="344"/><glyph d="M228 605l7 -125q0 -63 -21 -91t-88 -46q66 -17 87.5 -47.5t21.5 -94.5l-7 -117q0 -43 19 -66.5t71 -26.5v-92q-107 4 -151.5 43.5t-44.5 129.5l7 121q0 77 -110 107v85q57 13 83.5 37.5t26.5 63.5l-7 127q0 94 44.5 132.5t152.5 42.5l1 -92q-53 -4 -72.5 -26t-19.5 -65z" glyph-name="braceleft.cap" horiz-adv-x="357"/><glyph d="M129 79l-7 125q0 63 21 91t88 46q-66 17 -87.5 47.5t-21.5 94.5l7 117q0 43 -19 66.5t-71 26.5v92q107 -4 151.5 -43.5t44.5 -129.5l-7 -121q0 -77 110 -107v-85q-57 -13 -83.5 -37.5t-26.5 -63.5l7 -127q0 -94 -44.5 -132.5t-152.5 -42.5l-1 92q53 4 72.5 26t19.5 65z" glyph-name="braceright.cap" horiz-adv-x="358"/><glyph d="M44 939l236 -103l-28 -76l-243 82z" glyph-name="grave.cap" horiz-adv-x="254"/><glyph d="M6 836l236 103l35 -97l-243 -82z" glyph-name="acute.cap" horiz-adv-x="254"/><glyph d="M37 776l134 143h94l134 -143h-116l-64 67l-65 -67h-117z" glyph-name="circumflex.cap" horiz-adv-x="476"/><glyph d="M93 776l-134 143h117l65 -66l63 66h117l-134 -143h-94z" glyph-name="caron.cap" horiz-adv-x="254"/><glyph d="M229 777q-24 0 -87 25t-76 25q-25 0 -64 -33l-13 -11l-24 78q6 7 15.5 17.5t36 27.5t52.5 17t87.5 -25t72.5 -25q22 0 63 33l13 11l24 -79q-15 -21 -45.5 -41t-54.5 -20z" glyph-name="tilde.cap" horiz-adv-x="254"/><glyph d="M-33 783v114h104v-114h-104zM176 783v114h104v-114h-104z" glyph-name="dieresis.cap" horiz-adv-x="254"/><glyph d="M-24 795v81h332v-81h-332z" glyph-name="macron.cap" horiz-adv-x="254"/><glyph d="M95.5 867q20.5 -18 52.5 -18t52.5 18t22.5 47h99q-6 -65 -51 -104t-123.5 -39t-123.5 39t-50 104h99q2 -29 22.5 -47z" glyph-name="breve.cap" horiz-adv-x="254"/><glyph d="M278 747q0 -54 -39 -85.5t-97.5 -31.5t-97.5 31.5t-39 85.5t39 85.5t97.5 31.5t97.5 -31.5t39 -85.5zM81 747q0 -22 16 -34t44 -12t44.5 12t16.5 34t-16.5 34.5t-44.5 12.5t-44 -12.5t-16 -34.5z" glyph-name="ring.cap" horiz-adv-x="254"/><glyph d="M173 779l99 169l90 -39l-108 -164zM-31 780l100 169l89 -39l-107 -164z" glyph-name="hungarumlaut.cap" horiz-adv-x="254"/><glyph d="M73 782v114h108v-114h-108z" glyph-name="dotaccent.cap" horiz-adv-x="254"/><glyph d="M45.5 662.5q30.5 37.5 94 37.5t94 -38t30.5 -129t-30.5 -128t-93.5 -37t-94 37t-31 128.5t30.5 129zM166.5 603.5q-7.5 18.5 -26 18.5t-26.5 -18.5t-8 -70.5t8 -69.5t26.5 -17.5t26 17t7.5 69.5t-7.5 71z" glyph-name="zero.numr" horiz-adv-x="280"/><glyph d="M213 690v-312h-88v215l-56 -38l-41 62l105 73h80z" glyph-name="one.numr" horiz-adv-x="280"/><glyph d="M250 378h-221v75l79 71q48 41 48 68q0 25 -42 25l-79 -7l-4 80q67 10 118 10t75 -22.5t24 -64.5t-13 -65.5t-45 -48.5l-49 -42h109v-79z" glyph-name="two.numr" horiz-adv-x="280"/><glyph d="M137 700q114 0 114 -86q0 -53 -34 -72q41 -16 41 -75q0 -99 -113 -99l-118 8l6 77q59 -7 96.5 -7t37.5 28q0 26 -35 26h-66v72h65q12 0 20 7t8 19q0 24 -35 24l-87 -6l-6 75q65 9 106 9z" glyph-name="three.numr" horiz-adv-x="280"/><glyph d="M155 378v41h-136v73l52 198h98l-61 -192h47l10 89h77v-89h18v-79h-18v-41h-87z" glyph-name="four.numr" horiz-adv-x="280"/><glyph d="M140 504q-16 0 -38 -8l-65 8l10 186h199v-75h-129l-4 -46q28 10 50 10q93 0 93 -99q0 -110 -113 -110q-45 0 -96 10l-17 4l6 71q56 -9 92.5 -9t36.5 29t-25 29z" glyph-name="five.numr" horiz-adv-x="280"/><glyph d="M109 576q34 9 47 9q103 0 103 -104q0 -53 -32 -83t-83 -30q-125 0 -125 157q0 89 30.5 132t101.5 43q27 0 81 -8l16 -3l-4 -72q-60 6 -90 6q-45 0 -45 -47zM142 513q-14 0 -24 -5.5t-10 -6.5q2 -57 32.5 -57t30.5 34.5t-29 34.5z" glyph-name="six.numr" horiz-adv-x="280"/><glyph d="M35 603v87h217v-91l-99 -230l-98 16l96 202v16h-116z" glyph-name="seven.numr" horiz-adv-x="280"/><glyph d="M139 700q119 0 119 -87q0 -30 -11.5 -49.5t-22.5 -22.5q13 -3 26 -21t13 -50q0 -55 -31.5 -78.5t-93 -23.5t-92.5 22.5t-31 77.5q0 31 13.5 50t25.5 24q-11 4 -22.5 21.5t-11.5 49.5q0 87 119 87zM139 439q34 0 34 32q0 23 -24 36h-20q-24 -14 -24 -37q0 -31 34 -31z M139 629q-32 0 -32 -27q0 -21 22 -33h20q22 11 22 33q0 27 -32 27z" glyph-name="eight.numr" horiz-adv-x="280"/><glyph d="M123 446q45 0 47 45q-25 -8 -47 -8q-49 0 -75 27t-26 79t31 81.5t90 29.5q119 0 119 -165q0 -86 -29.5 -126.5t-98.5 -40.5q-39 0 -86 9l-15 3l5 73q48 -7 85 -7zM118 562q8 -10 21.5 -10t33.5 9q0 62 -33 62q-30 0 -30 -35q0 -16 8 -26z" glyph-name="nine.numr" horiz-adv-x="280"/><glyph d="M251 277v101h65v-101h-65zM280 671q125 0 187 -80t62 -264.5t-62.5 -261t-187 -76.5t-187 76t-62.5 260.5t62.5 265t187.5 80.5zM280 574q-72 0 -103.5 -54.5t-31.5 -191.5t32.5 -189.5t103 -52.5t102 52.5t31.5 189.5t-31 191.5t-103 54.5z" glyph-name="zero.slash"/><glyph d="M937 329v-10q0 -165 -46 -231.5t-139 -66.5q-45 0 -76.5 14.5t-40.5 28.5l-9 15q-88 -57 -167.5 -57t-127 55.5t-47.5 190t44 196.5t152 62q40 0 86 -18l16 -7v14h108v-184q0 -152 10 -185q3 -12 11 -21t16.5 -11t29.5 -2t37 14q34 31 34 193v11q0 171 -77.5 248 t-250.5 77t-261.5 -93t-88.5 -284.5t81.5 -278t269.5 -86.5l143 9l5 -95q-92 -9 -148 -9q-115 0 -197 22.5t-142 75.5q-120 105 -120 369q0 235 120.5 350t339.5 115q435 0 435 -421zM475 117q42 0 114 34q-7 40 -7 135v130q-50 15 -80 15q-64 0 -86 -36.5t-22 -122.5 q0 -155 81 -155z" glyph-name="at.cap" horiz-adv-x="970"/><glyph d="M45.5 284.5q30.5 37.5 94 37.5t94 -38t30.5 -129t-30.5 -128t-93.5 -37t-94 37t-31 128.5t30.5 129zM166.5 225.5q-7.5 18.5 -26 18.5t-26.5 -18.5t-8 -70.5t8 -69.5t26.5 -17.5t26 17t7.5 69.5t-7.5 71z" glyph-name="zero.dnom" horiz-adv-x="280"/><glyph d="M215 312v-312h-88v215l-56 -38l-41 62l105 73h80z" glyph-name="one.dnom" horiz-adv-x="280"/><glyph d="M252 0h-221v75l79 71q48 41 48 68q0 25 -42 25l-79 -7l-4 80q67 10 118 10t75 -22.5t24 -64.5t-13 -65.5t-45 -48.5l-49 -42h109v-79z" glyph-name="two.dnom" horiz-adv-x="280"/><glyph d="M137 322q114 0 114 -86q0 -53 -34 -72q41 -16 41 -75q0 -99 -113 -99l-118 8l6 77q59 -7 96.5 -7t37.5 28q0 26 -35 26h-66v72h65q12 0 20 7t8 19q0 24 -35 24l-87 -6l-6 75q65 9 106 9z" glyph-name="three.dnom" horiz-adv-x="280"/><glyph d="M156 0v41h-136v73l52 198h98l-61 -192h47l10 89h77v-89h18v-79h-18v-41h-87z" glyph-name="four.dnom" horiz-adv-x="280"/><glyph d="M136 126q-16 0 -38 -8l-65 8l10 186h199v-75h-129l-4 -46q28 10 50 10q93 0 93 -99q0 -110 -113 -110q-45 0 -96 10l-17 4l6 71q56 -9 92.5 -9t36.5 29t-25 29z" glyph-name="five.dnom" horiz-adv-x="280"/><glyph d="M107 198q34 9 47 9q103 0 103 -104q0 -53 -32 -83t-83 -30q-125 0 -125 157q0 89 30.5 132t101.5 43q27 0 81 -8l16 -3l-4 -72q-60 6 -90 6q-45 0 -45 -47zM140 135q-14 0 -24 -5.5t-10 -6.5q2 -57 32.5 -57t30.5 34.5t-29 34.5z" glyph-name="six.dnom" horiz-adv-x="280"/><glyph d="M34 225v87h217v-91l-99 -230l-98 16l96 202v16h-116z" glyph-name="seven.dnom" horiz-adv-x="280"/><glyph d="M140 322q119 0 119 -87q0 -30 -11.5 -49.5t-22.5 -22.5q13 -3 26 -21t13 -50q0 -55 -31.5 -78.5t-93 -23.5t-92.5 22.5t-31 77.5q0 31 13.5 50t25.5 24q-11 4 -22.5 21.5t-11.5 49.5q0 87 119 87zM140 61q34 0 34 32q0 23 -24 36h-20q-24 -14 -24 -37q0 -31 34 -31z M140 251q-32 0 -32 -27q0 -21 22 -33h20q22 11 22 33q0 27 -32 27z" glyph-name="eight.dnom" horiz-adv-x="280"/><glyph d="M121 68q45 0 47 45q-25 -8 -47 -8q-49 0 -75 27t-26 79t31 81.5t90 29.5q119 0 119 -165q0 -86 -29.5 -126.5t-98.5 -40.5q-39 0 -86 9l-15 3l5 73q48 -7 85 -7zM116 184q8 -10 21.5 -10t33.5 9q0 62 -33 62q-30 0 -30 -35q0 -16 8 -26z" glyph-name="nine.dnom" horiz-adv-x="280"/><glyph d="M61 250v99h299v-99h-299z" glyph-name="hyphen.cap" horiz-adv-x="421"/></font>
</defs>
</svg>
